<?xml version="1.0" encoding="UTF-8" standalone="no"?>
<svg width="574px" height="566px" viewBox="0 0 574 566" version="1.1" xmlns="http://www.w3.org/2000/svg" xmlns:xlink="http://www.w3.org/1999/xlink">
    <!-- Generator: Sketch 49.1 (51147) - http://www.bohemiancoding.com/sketch -->
    <title>Group</title>
    <desc>Created with Sketch.</desc>
    <defs>
        <linearGradient x1="50%" y1="0%" x2="50%" y2="100%" id="linearGradient-1">
            <stop stop-color="#FFFFFF" offset="0%"></stop>
            <stop stop-color="#D8D8D8" offset="100%"></stop>
        </linearGradient>
        <polygon id="path-2" points="0.399889525 0 19.5518291 0 19.5518291 49.008 0.399889525 49.008"></polygon>
        <path d="M7.621,8.191 C4.096,8.191 0.655,6.895 0.434,4.992 C0.203,2.978 2.742,0.989 6.259,0.301 C6.461,0.639 6.667,0.956 6.877,1.25 C8.437,3.434 10.451,4.687 12.334,4.688 C13.275,4.688 14.183,4.375 14.986,3.709 C14.938,5.743 12.978,7.649 9.242,8.097 C8.707,8.161 8.163,8.191 7.621,8.191 Z" id="path-4"></path>
    </defs>
    <g id="Page-1" stroke="none" stroke-width="1" fill="none" fill-rule="evenodd">
        <g id="home1" transform="translate(-73.000000, -106.000000)">
            <g id="Group" transform="translate(73.000000, 106.000000)">
                <path d="M311.981928,566 C484.284789,566 662.988234,293.974774 524.231928,269.703298 C385.475621,245.431821 484.284789,0 311.981928,0 C139.679067,0 0,126.703416 0,283 C0,439.296584 139.679067,566 311.981928,566 Z" id="Oval" fill="url(#linearGradient-1)" opacity="0.312091884"></path>
                <g id="Group-13" transform="translate(101.000000, 95.000000)">
                    <polyline id="Fill-185-Copy" fill="#FFFFFF" points="52.916 369.5 52 419.333 59.25 419.583 57.083 369 52.916 369.5"></polyline>
                    <polyline id="Fill-186-Copy" fill="#FFFFFF" points="26.666 417 83.333 417.334 84.666 428 77.333 427 77.333 422 60.666 422.667 60.666 428 51.333 428 51.666 422.667 33.333 422.334 33.333 428.334 25 427.334 26.666 417"></polyline>
                    <g id="Group-12">
                        <g id="Group-11" transform="translate(394.000000, 328.000000)">
                            <polyline id="Fill-41" fill="#BEDACB" points="25.84 80.72 22.84 80.696 23.17 40.529 26.17 40.553 25.84 80.72"></polyline>
                            <path d="M41.02,32.232 C37.38,30.264 30.17,57.586 29.71,69.953 C29.97,47.72 30.21,-1.039 24.73,0.764 C19.59,2.449 20.48,55.396 20.12,69.819 C18.71,65.011 7.37,2.894 1.35,6.008 C-2.61,8.057 13.75,71.566 14.81,83.804 L16.93,85.989 C24.37,85.989 32.6,84.022 32.6,84.022 C32.6,84.022 45.03,34.408 41.02,32.232" id="Fill-102" fill="#6B7D46"></path>
                            <polyline id="Fill-103" fill="#E3BA42" points="13.66 112.596 35.95 112.157 41.2 86.809 7.98 86.372 13.66 112.596"></polyline>
                            <polyline id="Fill-104" fill="#CEA73F" points="8.82 90.313 38.96 97.565 40.6 89.841 8.82 90.313"></polyline>
                            <polyline id="Fill-105" fill="#F0C960" points="4.05 80.253 45.57 81.564 44.26 90.306 5.36 90.306 4.05 80.253"></polyline>
                        </g>
                        <polyline id="Fill-319" fill="#BEDACB" points="194.421 308.174 194.171 262.674 197.171 262.658 197.421 308.158 194.421 308.174"></polyline>
                        <polyline id="Fill-320" fill="#BEDACB" points="300.421 308.174 300.171 262.674 303.171 262.658 303.421 308.158 300.421 308.174"></polyline>
                        <polyline id="Fill-333" fill="#BEDACB" points="306.504 215.842 303.504 215.825 303.754 172.741 306.754 172.759 306.504 215.842"></polyline>
                        <polyline id="Fill-336" fill="#BEDACB" points="127.629 355.64 127.172 309.348 130.172 309.318 130.629 355.61 127.629 355.64"></polyline>
                        <polyline id="Fill-337" fill="#BEDACB" points="249.838 352.022 249.172 307.355 252.172 307.311 252.838 351.978 249.838 352.022"></polyline>
                        <polyline id="Fill-341" fill="#BEDACB" points="251.004 262.033 250.004 216.783 253.004 216.717 254.004 261.967 251.004 262.033"></polyline>
                        <polyline id="Fill-345" fill="#BEDACB" points="248.004 171.339 245.004 171.328 245.171 126.994 248.171 127.006 248.004 171.339"></polyline>
                        <polyline id="Fill-348" fill="#BEDACB" points="131.838 80.011 131.505 35.011 134.505 34.989 134.838 79.989 131.838 80.011"></polyline>
                        <polyline id="Fill-359" fill="#BEDACB" points="297.505 126.341 294.505 126.325 294.755 80.241 297.755 80.258 297.505 126.341"></polyline>
                        <path d="M104.626,196.613 C106.404,191.039 106.997,185.938 106.285,180.125 C105.693,173.958 103.676,168.857 102.135,163.046 C101.779,161.622 99.406,155.455 100.355,153.912 C101.542,152.014 102.73,153.043 103.379,154.125 C106.004,158.5 110.199,169.451 111.031,176.449 C113.284,175.263 116.013,173.484 117.792,176.686 C119.808,180.245 117.08,184.514 115.537,187.836 C113.995,191.039 109.251,199.103 104.744,198.629 L104.626,196.613" id="Fill-366" fill="#D6C0B0"></path>
                        <path d="M110.56,179.231 C109.203,178.587 110.096,173.862 111.63,170.627 C113.164,167.394 114.758,166.877 116.115,167.521 C117.474,168.166 117.33,171.309 115.798,174.542 C114.263,177.777 111.918,179.874 110.56,179.231" id="Fill-367" fill="#E6CCB9"></path>
                        <path d="M113.326,179.986 C112.41,179.053 114.496,175.44 116.676,173.242 C118.855,171.043 120.299,171.095 121.216,172.028 C122.133,172.961 121.108,175.499 118.93,177.697 C116.752,179.895 114.242,180.919 113.326,179.986" id="Fill-368" fill="#E6CCB9"></path>
                        <path d="M114.596,181.548 C114.239,180.54 117.029,178.585 119.398,177.712 C121.771,176.838 122.824,177.377 123.179,178.385 C123.538,179.394 121.904,180.919 119.535,181.793 C117.164,182.667 114.952,182.556 114.596,181.548" id="Fill-369" fill="#E6CCB9"></path>
                        <path d="M114.738,183.96 C114.18,185.355 109.407,184.756 106.084,183.426 C102.762,182.095 102.147,180.536 102.706,179.142 C103.267,177.747 106.411,177.693 109.735,179.024 C113.057,180.355 115.297,182.565 114.738,183.96" id="Fill-370" fill="#E6CCB9"></path>
                        <path d="M44.608,214.82 C44.608,214.82 83.275,248.033 104.864,192.758 L111.979,194.181 C111.979,194.181 103.202,250.879 55.758,242.099 L48.878,241.152 L44.608,214.82" id="Fill-371" fill="#63282A"></path>
                        <path d="M380.605,78.621 C380.605,95.066 366.94,108.398 350.082,108.398 C333.226,108.398 319.56,95.066 319.56,78.622 C319.56,62.177 330.094,48.082 346.952,48.081 C363.809,48.081 380.605,62.177 380.605,78.621" id="Fill-372" fill="#363936"></path>
                        <path d="M358.047,102.488 C344.379,106.949 329.591,99.757 325.016,86.422 C320.442,73.089 327.814,58.662 341.482,54.2 C355.15,49.737 369.353,55.837 373.928,69.172 C378.501,82.506 371.717,98.025 358.047,102.488" id="Fill-373" fill="#FFFFFE"></path>
                        <path d="M351.019,57.681 C351.019,58.379 350.452,58.946 349.754,58.946 C349.056,58.946 348.49,58.379 348.49,57.681 C348.49,56.983 348.969,56.364 349.666,56.364 C350.364,56.364 351.019,56.983 351.019,57.681" id="Fill-374" fill="#363738"></path>
                        <path d="M365.349,64.003 C365.349,64.702 364.888,65.303 364.189,65.303 C363.491,65.303 362.82,64.702 362.82,64.003 C362.82,63.305 363.386,62.739 364.084,62.739 C364.782,62.739 365.349,63.305 365.349,64.003" id="Fill-375" fill="#363738"></path>
                        <path d="M370.969,78.333 C370.969,79.032 370.401,79.598 369.704,79.598 C369.006,79.598 368.369,78.943 368.369,78.246 C368.369,77.548 369.006,77.069 369.704,77.069 C370.401,77.069 370.969,77.635 370.969,78.333" id="Fill-376" fill="#363738"></path>
                        <path d="M365.138,92.804 C365.138,93.502 364.501,93.928 363.803,93.928 C363.104,93.928 362.539,93.361 362.539,92.663 C362.539,91.965 363.104,91.399 363.803,91.399 C364.501,91.399 365.138,92.106 365.138,92.804" id="Fill-377" fill="#363738"></path>
                        <path d="M351.3,98.002 C351.3,98.7 350.732,99.266 350.035,99.266 C349.337,99.266 348.771,98.7 348.771,98.002 C348.771,97.304 349.231,96.72 349.93,96.72 C350.628,96.72 351.3,97.304 351.3,98.002" id="Fill-378" fill="#363738"></path>
                        <path d="M337.268,92.628 C337.268,93.326 336.685,93.787 335.986,93.787 C335.288,93.787 334.722,93.221 334.722,92.523 C334.722,91.825 335.288,91.258 335.986,91.258 C336.685,91.258 337.268,91.93 337.268,92.628" id="Fill-379" fill="#363738"></path>
                        <path d="M331.068,78.755 C331.068,79.453 330.503,80.02 329.805,80.02 C329.106,80.02 328.54,79.453 328.54,78.755 C328.54,78.057 328.966,77.438 329.664,77.438 C330.362,77.438 331.068,78.057 331.068,78.755" id="Fill-380" fill="#363738"></path>
                        <path d="M336.407,64.425 C336.407,65.123 335.911,65.777 335.214,65.777 C334.516,65.777 333.879,65.123 333.879,64.425 C333.879,63.727 334.445,63.161 335.143,63.161 C335.842,63.161 336.407,63.727 336.407,64.425" id="Fill-381" fill="#363738"></path>
                        <path d="M349.895,80.551 C349.447,80.551 349.084,80.19 349.082,79.743 L348.988,62.977 C348.986,62.528 349.348,62.162 349.796,62.16 L349.801,62.16 C350.248,62.16 350.611,62.521 350.613,62.968 L350.707,79.734 C350.71,80.183 350.348,80.549 349.899,80.551 L349.895,80.551" id="Fill-382" fill="#F0C960"></path>
                        <path d="M349.894,80.551 C349.715,80.551 349.535,80.493 349.385,80.372 C349.035,80.09 348.98,79.579 349.262,79.229 L355.068,72.016 C355.351,71.667 355.862,71.611 356.211,71.893 C356.562,72.174 356.616,72.686 356.335,73.035 L350.528,80.248 C350.367,80.448 350.132,80.551 349.894,80.551" id="Fill-383" fill="#F0C960"></path>
                        <path d="M352.049,79.738 C352.049,80.928 351.084,81.893 349.895,81.893 C348.705,81.893 347.459,81.116 347.459,79.926 C347.459,78.736 348.424,77.678 349.613,77.678 C350.804,77.678 352.049,78.549 352.049,79.738" id="Fill-384" fill="#F0C960"></path>
                        <path d="M126.687,122.665 C102.937,122.665 88.91,105.071 86.668,82.207 L179.994,81.49 C176.22,104.702 150.687,122.665 126.687,122.665 M86.444,79.209 C86.382,78.02 86.351,76.82 86.351,75.608 C86.351,59.507 94.438,45.293 106.771,36.809 L131.515,36.375 L131.83,78.86 L86.444,79.209 M134.829,78.837 L134.515,36.322 L158.675,35.898 C171.78,44.253 180.471,58.915 180.471,75.608 C180.471,76.576 180.432,77.534 180.357,78.487 L134.829,78.837 M111.946,33.717 C118.382,30.413 125.678,28.548 133.409,28.548 C140.554,28.548 147.329,30.141 153.395,32.99 L111.946,33.717" id="Fill-385" fill="#E0E0E0"></path>
                        <path d="M106.771,36.809 C108.423,35.672 110.151,34.639 111.946,33.717 L153.395,32.99 C155.222,33.848 156.985,34.821 158.675,35.898 L134.515,36.322 L134.505,34.989 L131.505,35.011 L131.515,36.375 L106.771,36.809" id="Fill-386" fill="#C8E1D3"></path>
                        <path d="M86.668,82.207 C86.571,81.217 86.497,80.217 86.444,79.209 L131.83,78.86 L131.838,80.011 L134.838,79.989 L134.829,78.837 L180.357,78.487 C180.277,79.497 180.155,80.499 179.994,81.49 L86.668,82.207" id="Fill-387" fill="#C8E1D3"></path>
                        <polyline id="Fill-388" fill="#C8E1D3" points="131.838 80.011 131.505 35.011 134.505 34.989 134.838 79.989 131.838 80.011"></polyline>
                        <path d="M110.754,76.75 C110.754,67.088 117.4,59.408 124.577,54.191 C125.598,53.452 124.999,49.694 125.033,47.976 C125.087,45.57 126.131,45.174 132.407,45.174 C136.906,45.174 138.272,44.937 138.751,46.796 C139.229,48.657 138.822,52.617 139.988,53.211 C146.976,56.771 154.254,63.536 154.254,73.25 C154.254,86.2 146.008,96.25 135.254,96.25 C124.503,96.25 110.754,89.702 110.754,76.75" id="Fill-389" fill="#FFFFFF"></path>
                        <path d="M133.449,48.023 C134.938,50.568 136.592,53.014 138.064,55.572 C139.076,57.326 139.893,59.17 140.561,61.08 C140.906,62.148 141.133,63.242 141.232,64.364 C141.296,64.923 140.718,71.302 138.34,68.963 C136.753,67.406 136.093,64.692 135.646,62.593 C134.883,58.996 138.146,62.231 138.301,64.206 C137.832,67.517 136.126,69.205 133.177,69.27 C131.806,69.057 131.125,67.136 130.779,66.061 C130.371,64.782 130.382,63.384 130.65,62.085 C131.2,59.433 133.764,60.68 132.887,62.757 C132.09,64.65 130.485,66.339 128.859,67.552 C124.35,70.911 126.559,60.56 127.014,58.828 C128.019,54.989 129.666,51.326 131.064,47.623 C131.275,47.064 130.382,46.824 130.174,47.377 C128.437,51.972 126.533,56.473 125.465,61.285 C124.975,63.497 124.205,66.849 125.75,68.797 C127.803,71.383 132.331,65.479 133.161,64.194 C134.142,62.68 134.455,57.635 131.125,59.892 C127.982,62.022 129.632,68.048 132.275,69.888 C134.24,71.257 136.857,69.135 138.046,67.76 C139.852,65.672 139.328,62.569 138.155,60.361 C137.611,59.337 135.805,58.103 134.924,59.59 C134.017,61.12 134.847,63.455 135.309,64.988 C136.054,67.445 138.977,73.291 141.41,68.923 C145.192,62.134 137.4,52.936 134.247,47.555 C133.945,47.041 133.145,47.506 133.449,48.023" id="Fill-390" fill="#252626"></path>
                        <g id="Group-394" transform="translate(122.000000, 0.000000)">
                            <mask id="mask-3" fill="white">
                                <use xlink:href="#path-2"></use>
                            </mask>
                            <g id="Clip-392"></g>
                            <path d="M3.688,49.008 C7.532,48.855 20.818,49.033 19.454,45.577 C18.851,44.048 15.994,44.33 14.263,44.174 C15.415,43.705 18.878,42.302 18.685,40.897 C18.301,39.494 15.226,39.963 13.877,39.963 C18.494,36.687 12.339,35.751 9.069,35.751 C7.146,35.751 2.913,35.439 2.725,37.623 C2.725,39.027 5.03,39.806 6.185,40.119 C2.532,39.963 0.032,43.394 4.839,44.018 C-0.352,43.862 -1.315,48.699 3.688,49.008" id="Fill-391" fill="#363936" mask="url(#mask-3)"></path>
                            <polyline id="Fill-393" fill="#363936" mask="url(#mask-3)" points="7.005 37 6.004 -9.75 11.004 -9.75 10.338 36.667 7.005 37"></polyline>
                        </g>
                        <path d="M252.588,332.334 C252.588,332.334 263.254,418.667 261.921,432.667 C261.921,432.667 264.587,436.001 265.921,432.001 C267.255,428.001 269.921,331.334 269.921,331.334 L252.588,332.334" id="Fill-411" fill="#E9A270"></path>
                        <path d="M262.02,430.156 C261.63,431.626 259.837,436 256.089,436.833 C253.688,437.367 245.223,437.306 245.423,439.666 C245.547,441.126 248.489,442.131 251.066,442.125 C256.251,442.113 260.71,442.604 264.879,436.938 C265.045,438.104 264.545,440.854 265.879,441.188 C267.545,441.688 267.129,437.417 267.129,436.25 C267.129,435.084 267.025,431.146 266.191,430.313 C264.754,431.625 262.938,431.427 262.02,430.156" id="Fill-412" fill="#252626"></path>
                        <path d="M264.797,381.527 C264.797,377.302 261.513,373.875 257.463,373.875 L257.391,373.879 C257.89,378.477 258.387,383.179 258.861,387.835 C262.417,387.537 264.797,385.433 264.797,381.527" id="Fill-413" fill="#E6CCB9"></path>
                        <path d="M258.861,387.835 C258.387,383.179 257.89,378.477 257.391,373.879 L257.463,373.875 C261.513,373.875 264.797,377.302 264.797,381.527 C264.797,385.432 262.417,387.537 258.862,387.835 L258.861,387.835" id="Fill-414" fill="#E6AA9C"></path>
                        <path d="M288.835,332.334 C288.835,332.334 278.169,418.667 279.502,432.667 C279.502,432.667 276.836,436.001 275.502,432.001 C274.168,428.001 271.502,331.334 271.502,331.334 L288.835,332.334" id="Fill-415" fill="#E9A270"></path>
                        <path d="M279.403,430.156 C279.793,431.626 281.586,436 285.334,436.833 C287.735,437.367 296.2,437.306 296,439.666 C295.876,441.126 292.934,442.131 290.356,442.125 C285.172,442.113 280.713,442.604 276.544,436.938 C276.378,438.104 276.878,440.854 275.544,441.188 C273.878,441.688 274.294,437.417 274.294,436.25 C274.294,435.084 274.397,431.146 275.231,430.313 C276.669,431.625 278.485,431.427 279.403,430.156" id="Fill-416" fill="#252626"></path>
                        <path d="M276.626,381.527 C276.626,377.302 279.91,373.875 283.96,373.875 L284.032,373.879 C283.533,378.477 283.036,383.179 282.561,387.835 C279.006,387.537 276.626,385.433 276.626,381.527" id="Fill-417" fill="#E6CCB9"></path>
                        <path d="M282.561,387.835 C279.006,387.537 276.626,385.433 276.626,381.527 C276.626,377.302 279.91,373.875 283.96,373.875 L284.032,373.879 C283.533,378.477 283.036,383.179 282.561,387.835" id="Fill-418" fill="#E6AA9C"></path>
                        <path d="M252.504,334.5 L289.004,334.5 C289.004,334.5 305.337,287.5 289.837,255 L249.129,254.375 C249.129,254.375 232.504,285.5 252.504,334.5" id="Fill-419" fill="#252626"></path>
                        <path d="M244.438,242.341 C240.018,242.988 233.453,242.349 229.19,238.791 C226.524,236.565 225.279,233.803 225.309,229.26 C225.374,219.129 236.413,214.572 237.524,213.999 C236.748,211.84 233.162,207.557 232.141,205.356 C228.333,207.628 223.288,211.973 220.875,215.748 C217.389,221.37 215.514,230.382 219.429,236.294 C227.81,248.952 244.699,247.287 248.155,245.59 C247.255,244.169 246.022,243.962 244.957,242.766 L244.438,242.341" id="Fill-420" fill="#E9A270"></path>
                        <path d="M308.394,240.333 C311.394,238.583 313.082,236.068 313.811,231.583 C315.435,221.584 305.31,215.25 304.31,214.5 C305.436,212.5 309.685,208.875 311.06,206.875 C314.435,209.75 318.686,214.875 320.435,219 C322.936,225.125 323.281,234.323 318.435,239.5 C308.061,250.584 291.686,246.125 288.561,243.875 C289.686,242.625 290.936,242.625 292.185,241.625 L292.769,241.292 C297.018,242.667 303.598,243.132 308.394,240.333 Z" id="Fill-421" fill="#E9A270"></path>
                        <path d="M263.734,188.042 C241.816,192.875 227.401,205.042 227.401,205.042 L235.401,217.375 C235.401,217.375 246.838,211.5 252.171,210.5 C264.838,208.167 279.838,208.5 292.504,210.833 C295.504,211.5 305.838,216.167 305.838,216.167 C305.838,216.167 313.399,208.709 314.732,206.709 C303.065,196.375 280.316,185.875 263.734,188.042" id="Fill-422" fill="#252626"></path>
                        <path d="M235.572,79.595 C229.847,85.124 229.633,103.619 231.158,116.854 C232.376,126.653 236.664,136.946 230.57,146.018 C226.213,152.574 218.354,160.484 219.115,169.203 C219.813,174.765 223.424,179.987 227.689,183.147 C235.226,188.618 251.422,189.062 258.43,182.149 C271.855,169.337 262.51,144.821 260.265,130.489 C258.217,117.222 258.637,97.086 250.68,85.809 C248.017,82.224 240.025,75.673 235.572,79.595" id="Fill-423" fill="#3A322E"></path>
                        <path d="M279.933,63.62 C294.094,62.571 298.551,73.847 299.338,86.959 C300.387,103.217 296.453,120.787 304.059,135.997 C309.827,147.272 322.938,156.975 316.121,171.66 C312.188,179.789 305.107,183.985 296.978,186.083 C290.422,187.656 277.835,186.869 272.59,180.838 C267.084,175.069 267.87,170.611 267.607,163.006 C267.346,156.188 267.607,150.419 270.755,144.125 C273.901,138.356 279.408,133.374 282.03,127.605 C287.275,115.542 283.604,99.284 279.933,87.221 C277.311,79.092 272.59,70.439 280.457,63.358" id="Fill-424" fill="#3A322E"></path>
                        <path d="M242.272,121.733 L240.664,120.743 C237.581,119.002 216.422,112.737 220.459,121.346 C223.729,128.52 237.934,123.732 242.272,121.733" id="Fill-425" fill="#D6C0B0"></path>
                        <path d="M236.298,121.63 L235.576,121.186 C234.185,120.405 224.64,117.605 226.453,121.477 C227.923,124.7 234.339,122.535 236.298,121.63" id="Fill-426" fill="#B9A292"></path>
                        <path d="M285.267,122.967 L286.875,121.977 C289.958,120.236 311.118,113.97 307.08,122.58 C303.811,129.753 289.605,124.965 285.267,122.967" id="Fill-427" fill="#E6CCB9"></path>
                        <path d="M291.241,122.863 L291.964,122.418 C293.354,121.638 302.899,118.838 301.087,122.71 C299.616,125.934 293.2,123.768 291.241,122.863" id="Fill-428" fill="#B9A292"></path>
                        <path d="M248.203,70.701 C241.385,82.501 238.063,88.795 236.752,101.906 C235.703,114.231 234.305,129.441 246.629,143.339 C252.444,149.896 260.527,153.304 262.363,163.269 C263.675,170.873 262.611,190.666 262.611,190.666 C262.611,190.666 266.563,189.353 270.267,191.151 C270.355,185.12 266.821,172.185 268.657,161.17 C270.231,152.517 278.884,147.01 283.605,139.93 C292.258,127.081 295.143,104.004 291.209,89.319 C287.275,74.896 269.313,63.227 254.104,66.636 C251.743,66.899 249.776,69.39 248.203,70.701" id="Fill-429" fill="#E9A270"></path>
                        <path d="M274.611,122.546 C274.311,122.546 274,122.532 273.677,122.504 C269.998,122.182 266.19,120.087 266.367,118.073 C266.531,116.257 269.092,114.964 272.293,114.964 C272.641,114.964 272.996,114.979 273.357,115.011 C277.037,115.334 279.875,117.227 279.697,119.242 C279.532,121.078 277.722,122.546 274.611,122.546" id="Fill-430" fill="#E6AA9C"></path>
                        <path d="M266.049,90.787 C266.147,89.698 266.661,88.742 269.405,88.982 C272.147,89.223 276.082,90.569 275.986,91.659 C275.888,92.749 274.311,93.562 271.564,93.322 C268.822,93.081 265.953,91.877 266.049,90.787" id="Fill-431" fill="#C07241"></path>
                        <path d="M255.827,88.856 C256.16,89.899 256.059,90.979 253.438,91.826 C250.819,92.671 246.672,92.963 246.336,91.921 C246.002,90.879 247.139,89.516 249.76,88.669 C252.379,87.824 255.491,87.815 255.827,88.856" id="Fill-432" fill="#C07241"></path>
                        <path d="M244.912,119.271 C242.367,119.271 239.883,118.334 239.722,116.96 C239.539,115.374 240.585,113.267 243.482,112.92 C243.76,112.887 244.045,112.871 244.333,112.871 C247.047,112.871 250.048,114.272 250.216,115.706 C250.399,117.293 248.983,118.856 246.084,119.202 C245.698,119.249 245.304,119.271 244.912,119.271" id="Fill-433" fill="#E6AA9C"></path>
                        <path d="M274.176,109.107 C274.176,109.107 274.142,108.661 274.053,107.875 C273.968,107.089 273.806,105.971 273.541,104.652 C273.274,103.34 272.871,101.808 272.146,100.364 C271.789,99.644 271.305,98.971 270.695,98.511 C270.08,98.065 269.333,97.895 268.561,98.066 L268.307,98.115 L267.982,98.221 C267.75,98.293 267.655,98.369 267.479,98.453 C267.151,98.647 266.865,98.908 266.611,99.203 C266.123,99.817 265.791,100.578 265.579,101.354 C265.168,102.918 265.061,104.494 265.066,105.833 C265.078,107.175 265.141,108.304 265.223,109.088 C265.297,109.875 265.357,110.318 265.357,110.318 C265.376,110.455 265.279,110.582 265.143,110.6 C265.017,110.617 264.9,110.537 264.867,110.417 C264.867,110.417 264.744,109.968 264.598,109.176 C264.46,108.383 264.256,107.247 264.188,105.857 C264.13,104.474 264.091,102.825 264.535,101.074 C264.759,100.205 265.118,99.301 265.734,98.498 C266.056,98.106 266.438,97.745 266.888,97.468 C267.11,97.342 267.412,97.184 267.614,97.121 L267.937,97.01 C268.132,96.959 268.21,96.954 268.353,96.924 C269.367,96.704 270.545,96.976 271.361,97.615 C272.178,98.253 272.717,99.076 273.107,99.884 C273.508,100.694 273.754,101.517 273.957,102.294 C274.155,103.073 274.293,103.815 274.397,104.501 C274.606,105.875 274.646,107.027 274.678,107.831 C274.698,108.634 274.676,109.099 274.676,109.099 C274.67,109.237 274.554,109.344 274.415,109.339 C274.288,109.333 274.187,109.231 274.176,109.107" id="Fill-434" fill="#363936"></path>
                        <path d="M243.228,108.459 C243.228,108.459 243.204,108.037 243.219,107.307 C243.244,106.576 243.273,105.528 243.459,104.279 C243.552,103.655 243.675,102.979 243.854,102.27 C244.035,101.562 244.258,100.811 244.622,100.071 C244.978,99.333 245.471,98.579 246.221,97.991 C246.974,97.403 248.063,97.154 248.994,97.356 C249.126,97.384 249.194,97.387 249.378,97.437 L249.671,97.537 C249.854,97.595 250.137,97.742 250.341,97.858 C250.756,98.113 251.105,98.446 251.401,98.805 C251.968,99.542 252.296,100.368 252.501,101.162 C252.907,102.759 252.867,104.26 252.813,105.518 C252.75,106.781 252.561,107.813 252.434,108.534 C252.298,109.253 252.184,109.661 252.184,109.661 C252.146,109.794 252.008,109.872 251.875,109.835 C251.755,109.802 251.681,109.687 251.692,109.568 L251.693,109.563 C251.693,109.563 251.735,109.157 251.809,108.446 C251.88,107.734 251.929,106.71 251.935,105.494 C251.937,104.28 251.831,102.854 251.457,101.442 C251.265,100.742 250.963,100.06 250.525,99.511 C250.297,99.248 250.042,99.015 249.75,98.842 C249.592,98.768 249.514,98.704 249.303,98.637 L249.008,98.542 L248.785,98.499 C248.094,98.345 247.437,98.493 246.887,98.888 C246.343,99.297 245.906,99.901 245.583,100.55 C244.928,101.853 244.559,103.24 244.315,104.429 C244.074,105.624 243.922,106.638 243.844,107.35 C243.77,108.061 243.728,108.467 243.728,108.467 C243.715,108.605 243.594,108.707 243.455,108.695 C243.331,108.684 243.236,108.58 243.228,108.459" id="Fill-435" fill="#363936"></path>
                        <path d="M259.479,110.035 C259.085,108.069 258.168,106.495 256.594,108.331 C255.152,110.035 255.422,113.055 254.496,115.018 C251.219,121.967 249.383,120.656 247.154,123.541 C246.104,124.982 246.236,127.343 247.679,128.654 C249.907,130.751 253.054,127.998 254.627,126.163 C258.168,122.229 260.659,115.411 259.479,110.035" id="Fill-436" fill="#E9988A"></path>
                        <path d="M272.021,131.145 C271.629,129.31 270.187,127.736 268.22,127.736 C264.155,127.867 263.699,133.077 259.173,132.98 C257.119,132.937 256.371,131.916 254.846,131.451 C252.172,130.638 249.423,130.719 249.776,134.161 C250.476,140.979 262.232,142.159 266.559,139.012 C268.919,137.438 272.546,134.423 272.021,131.145" id="Fill-437" fill="#EA4335"></path>
                        <path d="M252.701,133.925 C252.701,133.926 252.865,134.136 253.262,134.46 C253.647,134.785 254.269,135.156 255.05,135.507 C255.445,135.676 255.888,135.82 256.363,135.945 C256.846,136.051 257.356,136.14 257.892,136.21 C258.431,136.258 258.989,136.29 259.561,136.269 C260.123,136.249 260.733,136.206 261.272,136.119 C261.905,136.041 262.384,135.907 262.915,135.726 C263.441,135.542 263.938,135.304 264.398,135.032 C265.323,134.499 266.113,133.851 266.715,133.217 C267.32,132.587 267.786,132.012 268.076,131.585 C268.37,131.162 268.504,130.908 268.504,130.908 L268.508,130.902 C268.575,130.774 268.733,130.725 268.861,130.792 C268.981,130.855 269.031,130.998 268.983,131.121 C268.983,131.121 268.866,131.421 268.607,131.901 C268.346,132.377 267.956,133.059 267.344,133.773 C266.733,134.485 265.925,135.251 264.917,135.885 C264.415,136.201 263.864,136.483 263.277,136.707 C262.697,136.931 262.022,137.12 261.447,137.203 C261.285,137.229 261.18,137.258 260.971,137.281 L260.504,137.306 C260.192,137.318 259.885,137.352 259.575,137.335 C258.958,137.338 258.351,137.286 257.766,137.215 C257.475,137.163 257.188,137.111 256.908,137.061 C256.633,136.988 256.363,136.917 256.102,136.848 C255.583,136.679 255.104,136.49 254.678,136.276 C253.818,135.857 253.219,135.308 252.83,134.914 C252.634,134.715 252.498,134.54 252.405,134.419 C252.311,134.291 252.27,134.222 252.27,134.222 C252.194,134.098 252.234,133.937 252.358,133.862 C252.474,133.792 252.621,133.822 252.701,133.925" id="Fill-438" fill="#602822"></path>
                        <path d="M298.42,128.392 C298.42,130.419 296.776,132.063 294.749,132.063 C292.722,132.063 291.078,130.419 291.078,128.392 C291.078,126.364 292.11,124.634 294.138,124.634 C296.164,124.634 298.42,126.364 298.42,128.392" id="Fill-439" fill="#E2E5E1"></path>
                        <path d="M293.84,129.873 C292.721,129.613 292.028,128.494 292.291,127.374 C292.554,126.254 293.674,125.556 294.791,125.816 C295.909,126.077 296.73,126.87 296.467,127.99 C296.203,129.11 294.958,130.133 293.84,129.873" id="Fill-440" fill="#FFFFFE"></path>
                        <path d="M233.079,130.734 C231.364,131.815 229.097,131.301 228.016,129.587 C226.935,127.872 227.447,125.605 229.162,124.523 C230.878,123.441 232.892,123.392 233.974,125.106 C235.055,126.821 234.794,129.652 233.079,130.734" id="Fill-441" fill="#E2E5E1"></path>
                        <path d="M229.383,127.649 C229.007,126.564 229.583,125.381 230.67,125.006 C231.758,124.631 232.946,125.206 233.321,126.29 C233.698,127.375 233.466,128.492 232.378,128.867 C231.289,129.242 229.76,128.734 229.383,127.649" id="Fill-442" fill="#FFFFFE"></path>
                        <path d="M283.604,68.078 C275.475,76.732 267.346,82.501 255.808,83.812 C242.958,85.124 229.584,84.336 223.553,71.225 C220.668,65.194 221.193,63.096 226.699,66.243 C231.42,69.127 234.305,72.012 239.024,68.34 C245.318,62.834 247.154,54.705 255.283,51.558 C261.576,49.198 270.23,48.936 275.737,52.869 C281.244,56.802 283.604,61.785 283.604,68.078" id="Fill-443" fill="#3A322E"></path>
                        <path d="M262.752,187.792 C262.752,187.792 266.252,190.667 270.002,187.167 C270.002,187.167 279.377,196.792 276.252,198.417 C272.715,200.255 266.127,192.042 266.127,192.042 C266.127,192.042 261.396,200.939 256.502,198.667 C253.002,197.042 259.752,189.667 262.752,187.792" id="Fill-444" fill="#FFFFFE"></path>
                        <polyline id="Fill-445" fill="#FFFFFE" points="236.339 217.833 228.172 203.166 223.506 206.166 233.839 219.333 236.339 217.833"></polyline>
                        <polyline id="Fill-446" fill="#FFFFFE" points="303.006 216.166 313.172 202.833 317.339 206.833 305.339 218.166 303.006 216.166"></polyline>
                        <polyline id="Fill-447" fill="#E2E5E1" points="248.67 204.333 253.337 265.666 292.337 266 295.004 207.667 248.67 204.333"></polyline>
                        <polyline id="Fill-448" fill="#FFFFFE" points="249.671 264.667 243.671 207 292.337 204 288.67 262 249.671 264.667"></polyline>
                        <path d="M242.593,242.57 C243.54,241.22 244.98,234.23 246.113,234.144 C249.152,233.911 247.381,238.624 247.008,239.874 C249.61,238.68 255.441,233.326 256.75,235.878 C257.707,237.748 251.435,241.471 249.235,242.447 C251.435,241.471 258.695,238.546 259.232,240.962 C259.729,243.186 252.345,244.126 250.264,244.935 C251.464,245.018 256.534,246.06 255.859,248.104 C255.248,249.689 251.621,248.711 250.295,248.482 C248.201,248.12 239.338,246.38 242.34,243.254 L242.593,242.57" id="Fill-449" fill="#E9A270"></path>
                        <path d="M294.861,242.356 C294.152,240.868 293.897,233.735 292.795,233.461 C289.838,232.725 290.799,237.667 290.958,238.962 C288.591,237.351 283.734,231.099 282.019,233.397 C280.763,235.081 286.327,239.798 288.332,241.127 C286.327,239.798 279.655,235.704 278.723,237.996 C277.862,240.106 284.986,242.265 286.903,243.409 C285.706,243.291 280.533,243.473 280.858,245.601 C281.196,247.266 284.936,246.906 286.281,246.901 C288.406,246.894 297.436,246.656 294.997,243.073 L294.861,242.356" id="Fill-450" fill="#E9A270"></path>
                        <path d="M222.838,228.917 C222.838,225.796 220.885,223.138 218.137,222.079 C216.961,226.278 216.822,230.913 218.551,234.679 C221.173,233.964 222.838,232.045 222.838,228.917" id="Fill-451" fill="#E6CCB9"></path>
                        <path d="M218.551,234.679 C217.646,232.707 217.253,230.498 217.252,228.238 C217.252,226.18 217.576,224.08 218.137,222.079 C220.885,223.138 222.838,225.796 222.838,228.917 C222.838,232.045 221.173,233.964 218.551,234.679" id="Fill-452" fill="#E6AA9C"></path>
                        <path d="M321.849,224.012 C319.259,224.993 317.754,227.581 317.754,230.75 C317.754,233.252 318.883,235.046 320.698,236.054 C322.331,232.447 322.543,228.027 321.849,224.012" id="Fill-453" fill="#E6CCB9"></path>
                        <path d="M320.698,236.054 C318.883,235.046 317.754,233.252 317.754,230.75 C317.754,227.581 319.259,224.993 321.849,224.012 C322.091,225.408 322.222,226.853 322.223,228.295 C322.224,231.002 321.763,233.701 320.698,236.054" id="Fill-454" fill="#E6AA9C"></path>
                        <polyline id="Fill-455" fill="#CBCDCB" points="29.252 435 28.752 429.5 31.002 429.5 31.252 434.75 29.252 435"></polyline>
                        <polyline id="Fill-456" fill="#CBCDCB" points="56.002 435 56.002 430 58.252 430 58.252 434.75 56.002 435"></polyline>
                        <polyline id="Fill-457" fill="#CBCDCB" points="80.502 434.75 80.502 429.5 82.252 429.75 82.502 434.5 80.502 434.75"></polyline>
                        <polyline id="Fill-458" fill="#FFFFFF" points="53.835 373 52.919 422.833 60.169 423.083 58.002 372.5 53.835 373"></polyline>
                        <polyline id="Fill-459" fill="#F4F3F0" points="27.835 420.583 84.502 420.917 85.835 431.583 78.502 430.583 78.502 425.583 61.835 426.25 61.835 431.583 52.502 431.583 52.835 426.25 34.502 425.917 34.502 431.917 26.169 430.917 27.835 420.583"></polyline>
                        <path d="M30.669,358 C32.752,367.25 40.669,376 55.002,377 C70.002,378 84.252,368.5 86.003,356.334 C81.336,354 73.003,357.334 68.003,358 C61.003,358.334 54.336,358.667 47.336,358.667 C42.336,358.667 36.003,359.667 31.003,358" id="Fill-460" fill="#F4F3F0"></path>
                        <path d="M30.002,245.5 C25.002,238.5 15.002,239.5 9.502,244.5 C-0.998,254 1.002,268.5 1.002,281 C1.002,307.5 0.002,356.5 31.502,364 C43.002,366.5 96.502,366 105.002,360.5 C110.002,358 113.002,349.5 111.002,344 C106.502,333 87.002,332 77.502,329 C68.502,326.5 60.002,324 51.002,321.5 C40.002,319 43.502,314.5 42.002,302 C40.502,282 34.002,265.5 29.002,246.5" id="Fill-461" fill="#F0C960"></path>
                        <path d="M113.002,339.5 C120.502,354.5 124.502,378.5 114.002,393.5 C109.002,400.5 106.502,402 99.002,406.5 C96.002,409 81.63,414.067 80.002,417 C78.961,418.876 83.185,428.577 87.335,435.75 C89.825,440.054 91.752,443.688 94.002,443.5 C100.002,443 89.002,426 88.502,422 C104.502,414.5 122.502,405 133.002,390 C139.502,380.5 139.002,371 139.002,360 C139.002,353 122.502,329 112.002,338" id="Fill-462" fill="#1C1D1D"></path>
                        <path d="M34.752,333.25 C41.252,340.5 65.002,337 83.002,339 C97.502,340.5 112.002,343 123.502,354 C135.502,366 134.502,385.75 135.002,401.25 C135.502,413.25 134.752,439.75 136.252,440.25 C143.752,441.75 167.002,442.5 166.502,439.5 C165.68,434.568 143.752,435.5 143.752,435.5 C143.752,435.5 144.502,423.5 145.002,413 C146.002,390 148.002,354 133.002,335 C114.502,310.5 84.002,307 56.502,298.5 C50.502,310 42.002,319 34.002,328.5 L34.752,333.25" id="Fill-463" fill="#252626"></path>
                        <polyline id="Fill-464" fill="#FFFFFE" points="125.002 294.083 125.002 291.333 134.002 291.083 133.502 294.333 125.002 294.083"></polyline>
                        <polyline id="Fill-465" fill="#FFFFFE" points="136.835 294.084 136.835 290.834 146.835 290.834 147.003 293.751 136.835 294.084"></polyline>
                        <polyline id="Fill-466" fill="#FFFFFE" points="150.752 293.916 150.752 290.416 160.502 290.666 160.502 293.666 150.752 293.916"></polyline>
                        <polyline id="Fill-467" fill="#FFFFFE" points="164.169 292.833 164.169 290.583 172.169 290.333 172.419 292.583 164.169 292.833"></polyline>
                        <path d="M117.919,282.167 C118.544,277.917 122.419,274.917 126.794,275.667 C129.544,276.292 131.919,278.792 132.544,281.417 C132.794,282.792 133.484,286.279 132.044,287.042 C128.503,288.917 128.881,282.267 126.836,281.001 C123.336,278.834 119.044,285.042 117.919,282.167" id="Fill-468" fill="#CFB2A1"></path>
                        <path d="M124.391,279.797 C121.112,276.812 116.091,277.396 113.843,281.073 C111.59,284.876 112.053,289.769 109.68,293.442 C107.311,296.99 100.581,296.267 96.971,295.771 L95.604,295.477 C95.559,296.851 95.271,297.967 94.977,299.333 C94.664,301.198 94.189,301.915 95.889,301.989 C111.502,302.668 115.174,301.254 116.769,298.43 C117.968,296.219 116.968,292.433 117.171,290.063 C117.358,288.193 117.795,286.332 119.807,286.023 C122.696,285.619 122.372,287.859 123.06,289.759 C123.63,291.403 126.104,292.236 127.416,290.403 C129.377,287.842 126.331,281.612 124.391,279.797" id="Fill-469" fill="#E6CCB9"></path>
                        <polyline id="Fill-470" fill="#CBCDCB" points="54.169 265 40.419 238.25 38.585 220.667 42.419 215.333 44.169 215.25 47.585 226.333 54.669 254 56.254 264.083 54.169 265"></polyline>
                        <path d="M53.835,262 C53.835,262 47.002,234.813 45.003,221.667 L44.503,215.083 C44.503,215.083 48.587,224.167 52.503,238.333 C56.419,252.5 66.334,289.251 66.334,289.251 L57.584,282.084 L53.334,265.001 L53.835,262" id="Fill-471" fill="#63282A"></path>
                        <polyline id="Fill-472" fill="#E6CCB9" points="37.252 180.5 38.752 213.5 44.502 216 44.002 188.25 37.252 180.5"></polyline>
                        <path d="M77.002,134.875 C77.002,137.375 78.377,142.875 77.002,145 C75.877,143.625 75.627,141.75 75.002,140.125 C74.377,138.375 73.377,136.75 73.252,134.875 C74.252,134.625 75.377,134.75 76.377,135" id="Fill-473" fill="#2D2F2D"></path>
                        <path d="M81.627,168.125 L74.127,134.875 C74.127,134.875 73.798,131.494 73.307,127.488 C73.002,125 73.127,119.125 73.127,119.125 L28.002,120.375 L24.377,144.875 L39.002,171.75 L69.877,177.25 L80.877,170.375 L81.627,168.125 Z" id="Fill-474" fill="#ED9455"></path>
                        <g id="Group-477" transform="translate(55.000000, 156.000000)">
                            <mask id="mask-5" fill="white">
                                <use xlink:href="#path-4"></use>
                            </mask>
                            <g id="Clip-476"></g>
                            <polygon id="Fill-475" fill="#E6AA9C" mask="url(#mask-5)" points="0.203 8.191 14.986 8.191 14.986 0.301 0.203 0.301"></polygon>
                        </g>
                        <path d="M60.645,129.889 C60.555,128.866 60.721,127.498 61.611,127.128 C63,126.564 63.743,128.205 64.113,129.025 C64.269,127.608 64.734,126.132 66.401,125.911 C68.09,125.784 68.588,127.273 68.021,128.769 C66.685,132.393 60.595,132.378 57.62,131.955 C54.09,131.454 59.345,129.248 60.645,129.889" id="Fill-478" fill="#363936"></path>
                        <path d="M50.752,201.5 C52.752,203.5 64.752,211.75 68.252,209.5 C70.252,208.25 74.9609375,211.75 74.2109375,209.5 C77.9609375,213.25 78.252,212.25 84.502,211.25 C90.752,210 92.877,209.173828 90.377,206.173828 C95.002,208.423828 89.002,201 91.002,199.75 C94.502,197.5 91.877,192.125 90.377,190.125 C84.627,181.625 84.002,174.25 81.502,164.75 C78.502,167 67.669,169.917 58.669,169.167 C51.419,168.417 42.226,163.637 37.252,158.5 C29.586,150.583 27.252,139.75 26.002,137 C25.252,137.5 23.002,138.5 23.002,138.5 C29.252,172.25 34.002,185.5 50.752,201.5 Z" id="Fill-479" fill="#2D2F2D"></path>
                        <path d="M79.561,166.528 C74.516,156.199 72.443,142.687 72.377,136.625 C72.366,130.905 74.874,135.852 77.028,142.516 C78.91,148.339 81.517,153.795 82.107,155.004 C87.064,165.137 91.324,164.959 90.831,169.042 C90.462,172.104 87.948,172.956 85.289,172.555 C82.412,171.97 80.584,169.28 79.561,166.528" id="Fill-480" fill="#BD644D"></path>
                        <path d="M69.752,144.416 C69.752,145.176 69.192,145.791 68.502,145.791 C67.811,145.791 67.252,145.176 67.252,144.416 C67.252,143.657 68.063,143.208 68.753,143.208 C69.443,143.208 69.752,143.657 69.752,144.416" id="Fill-481" fill="#2D2F2D"></path>
                        <path d="M75.288,173.677 C72.921,174.609 70.041,174.932 67.279,173.046 C65.751,172.002 64.474,171.831 62.676,173.133 C59.94,175.013 61.303,178.772 62.61,181.136 C65.498,186.389 72.415,187.296 77.278,183.281 C79.262,181.599 81.938,177.758 80.4,175.132 C79.401,173.558 76.941,173.018 75.288,173.677" id="Fill-482" fill="#D4AD98"></path>
                        <path d="M74.854,175.418 C73.097,176.11 70.676,176.884 68.627,175.485 C67.493,174.71 65.688,173.772 64.354,174.738 C62.324,176.133 63.682,178.784 64.84,180.238 C67.612,183.717 72.116,184.81 75.726,181.83 C77.197,180.581 79.063,178.354 77.922,176.405 C77.182,175.235 76.081,174.929 74.854,175.418" id="Fill-483" fill="#602822"></path>
                        <path d="M70.21,179.922 C68.837,179.923 66.64,180.111 65.592,181.081 C68.38,183.875 72.426,184.553 75.726,181.83 C75.079,181.027 72.677,179.92 70.21,179.922" id="Fill-484" fill="#863C3C"></path>
                        <path d="M45.3971133,101.667515 C50.4031133,99.8215153 50.6008799,94.8054491 54.7338799,94.1934491 C59.5558799,93.4794491 59.5767549,86.5944491 58.2937549,90.4194491 C65.3147549,87.9074491 71.6108799,85.1594491 80.8378799,90.4194491 C93.8268799,97.3334491 83.8808799,115.742449 77.1038799,122.267449 C65.7478799,133.521449 50.2508799,133.461449 35.4018799,132.123449 C30.1848799,131.653449 21.9868799,130.658449 18.6788799,124.658449 C15.7988799,105.204449 32.4981133,107.258515 45.3971133,101.667515 Z" id="Fill-485" fill="#363936" transform="translate(52.759531, 110.075199) rotate(-155.000000) translate(-52.759531, -110.075199) "></path>
                        <path d="M23.5878906,98.8339844 C17.2948906,100.721984 3.018,126.543 7.847,132.375 C4.03,137.412 5.601,146.648 13.465,152.525 C17.06,155.254 22.676,154.625 25.821,151.477 C30.54,146.648 30.764,135.104 30.54,128.807 C30.54,124.818 29.865,119.991 26.496,116.843" id="Fill-486" fill="#363936"></path>
                        <polyline id="Fill-487" fill="#2D2F2D" points="27.877 149.625 55.252 137 56.252 139.75 28.877 152 27.877 149.625"></polyline>
                        <path d="M69.986,159.709 C69.989,159.559 69.982,159.408 69.965,159.256 C69.744,157.351 67.115,156.053 63.805,156.053 C63.297,156.053 62.773,156.083 62.239,156.147 C61.905,156.187 61.578,156.239 61.259,156.301 C58.411,151.55 56.312,142.789 55.691,140.001 L56.252,139.75 L55.793,138.489 C58.059,134.975 69.797,134.875 71.129,134.875 C71.21,134.875 71.252,134.875 71.252,134.875 C71.252,134.875 73.752,142.375 72.877,152.375 C72.548,156.139 71.44,158.503 69.986,159.709 M68.753,143.208 C68.063,143.208 67.252,143.657 67.252,144.416 C67.252,145.176 67.811,145.791 68.502,145.791 C69.192,145.791 69.752,145.176 69.752,144.416 C69.752,143.657 69.443,143.208 68.753,143.208" id="Fill-488" fill="#C49067"></path>
                        <path d="M67.334,160.688 C65.451,160.687 63.437,159.434 61.877,157.25 C61.667,156.956 61.461,156.639 61.259,156.301 C61.578,156.239 61.905,156.187 62.239,156.147 C62.773,156.083 63.297,156.053 63.805,156.053 C67.115,156.053 69.744,157.351 69.965,159.256 C69.982,159.408 69.989,159.559 69.986,159.709 C69.183,160.375 68.275,160.688 67.334,160.688" id="Fill-489" fill="#EFC8BC"></path>
                        <path d="M68.502,145.791 C67.811,145.791 67.252,145.176 67.252,144.416 C67.252,143.657 68.063,143.208 68.753,143.208 C69.443,143.208 69.752,143.657 69.752,144.416 C69.752,145.176 69.192,145.791 68.502,145.791" id="Fill-490" fill="#797C7C"></path>
                        <path d="M55.691,140.001 C55.567,139.444 55.502,139.125 55.502,139.125 C55.566,138.901 55.664,138.69 55.793,138.489 L56.252,139.75 L55.691,140.001" id="Fill-491" fill="#797C7C"></path>
                        <path d="M54.502,139.667 C55.502,145.417 60.752,165.167 69.752,160.917 C74.252,158.917 73.669,148.75 73.669,144.75 C73.669,143.019 73.085,136.25 73.085,136.25 C73.085,136.25 71.906,136.436 70.752,136.667 C72.002,141.167 74.585,157.833 67.835,158.833 C60.835,159.833 58.002,143.75 57.252,139.25 C61.752,138 69.002,137.167 73.752,136.917 C80.252,136.417 79.752,133.417 73.502,133.167 C68.502,132.917 56.252,132.417 54.002,138.417" id="Fill-492" fill="#2D2F2D"></path>
                        <polyline id="Fill-493" fill="#F7F4E7" points="35.912 140.569 37.186 133.206 35.955 132.158 30.27 137.147 31.557 139.758 35.912 140.569"></polyline>
                        <polyline id="Fill-494" fill="#E3BA42" points="14.297 178.634 35.912 140.569 30.27 137.147 10.842 176.519 14.297 178.634"></polyline>
                        <polyline id="Fill-495" fill="#363738" points="37.186 133.206 40.127 127.379 39.381 126.722 35.955 132.158 37.186 133.206"></polyline>
                        <polyline id="Fill-496" fill="#363738" points="34.486 139.705 32.227 138.334 11.838 177.127 13.24 177.985 34.486 139.705"></polyline>
                        <path d="M30.357,158.042 L28.217,157.292 C24.13,156.041 -3.188,154.208 2.965,163.375 C7.975,171.037 25.172,161.571 30.357,158.042" id="Fill-497" fill="#D6C0B0"></path>
                        <path d="M22.855,159.506 L21.894,159.169 C20.051,158.61 7.731,157.815 10.495,161.938 C12.747,165.381 20.515,161.102 22.855,159.506" id="Fill-498" fill="#B9A292"></path>
                        <polyline id="Fill-499" fill="#2D2F2D" points="26.753 156.958 27.711 160.667 31.544 159.083 30.253 155.583 26.753 156.958"></polyline>
                        <path d="M44.502,212.5 L43.503,215.166 C43.503,215.166 43.587,219.574 44.189,222.25 C45.21,226.785 46.939,227.75 44.502,212.5" id="Fill-500" fill="#F4F3F0"></path>
                        <path d="M33.168,217.5 L35.877,215.125 L39.502,215.125 L40.502,223 C40.502,223 45.335,247 53.835,262 C53.835,262 57.334,273.999 59.168,283.166 C61.002,292.333 63.169,301.666 63.169,301.666 C63.169,301.666 59.752,327.583 34.752,333.25 C34.752,333.25 5.752,271.5 33.168,217.5" id="Fill-501" fill="#6B2C2E"></path>
                        <path d="M100.377,302.875 C100.877,300.125 101.127,297.125 100.627,294.625 C75.752,291.625 59.752,285.25 47.252,267.75 C40.002,257.25 37.002,247 36.752,234.25 C36.752,231.25 39.752,216 33.752,217 C29.252,217.75 27.752,230.75 27.002,234 C23.002,252.75 22.752,278.75 38.002,292.5 C53.752,306.5 80.627,305.625 100.377,302.875" id="Fill-502" fill="#863C3C"></path>
                        <path d="M38.564,211.75 L43.503,215.166 C43.503,215.166 41.401,240.09 37.767,215.975 C37.002,215.75 35.877,215.125 35.877,215.125 C35.877,215.125 37.771,212.959 38.564,211.75" id="Fill-503" fill="#F4F3F0"></path>
                        <polyline id="Fill-504" fill="#E2E5E1" points="123.002 300.75 122.502 293 181.752 291.75 202.004 227.5 209.504 230.5 187.835 300.334 123.002 300.75"></polyline>
                        <path d="M36.002,440.5 C36.002,444.228 33.651,447.25 30.752,447.25 C27.853,447.25 24.752,443.228 24.752,439.5 C24.752,435.772 27.853,433.75 30.752,433.75 C33.651,433.75 36.002,436.772 36.002,440.5" id="Fill-505" fill="#2F3231"></path>
                        <path d="M61.188,442.664 C59.258,445.853 55.682,447.22 53.201,445.718 C50.721,444.216 50.152,439.17 52.083,435.981 C54.014,432.793 57.714,432.669 60.194,434.17 C62.674,435.672 63.119,439.476 61.188,442.664" id="Fill-506" fill="#2F3231"></path>
                        <path d="M86.979,439.471 C87.33,443.182 85.273,446.412 82.386,446.685 C79.498,446.957 76.033,443.245 75.683,439.534 C75.331,435.823 78.229,433.519 81.115,433.244 C84.002,432.973 86.628,435.76 86.979,439.471" id="Fill-507" fill="#2F3231"></path>
                        <path d="M32.844,441.531 C32.161,443.166 30.576,444.062 29.304,443.529 C28.032,442.998 27.41,440.666 28.093,439.03 C28.776,437.395 30.507,437.076 31.778,437.607 C33.051,438.139 33.527,439.896 32.844,441.531" id="Fill-508" fill="#1C1D1D"></path>
                        <path d="M59.041,441.363 C57.967,443.126 55.981,443.881 54.605,443.049 C53.23,442.216 52.918,439.424 53.992,437.66 C55.066,435.897 57.119,435.831 58.495,436.662 C59.87,437.495 60.114,439.6 59.041,441.363" id="Fill-509" fill="#1C1D1D"></path>
                        <path d="M83.646,438.855 C84.404,440.364 84.07,442.065 82.898,442.654 C81.728,443.244 79.658,442.246 78.9,440.737 C78.143,439.229 78.983,437.779 80.154,437.189 C81.325,436.602 82.889,437.347 83.646,438.855" id="Fill-510" fill="#1C1D1D"></path>
                        <polyline id="Fill-542" fill="#E36F65" points="212.814 300.469 236.091 300.75 237.148 270.969 211.822 270.969 212.814 300.469"></polyline>
                        <path d="M233.126,279.932 C236.991,277.17 243.84,273.525 246.822,277.501 C248.942,280.329 248.699,283.796 246.158,286.115 C243.397,288.545 229.371,291.086 232.133,284.68 C234.562,285.453 244.392,285.563 245.165,281.477 C245.828,278.053 238.428,278.385 233.679,283.134 C233.348,282.25 233.126,281.035 233.126,279.932" id="Fill-543" fill="#E36F65"></path>
                        <path d="M343.101,250.189 C339.559,249.427 335.303,263.669 330.222,267.285 C329.924,262.025 332.365,247.231 329.345,247.121 C324.379,246.941 321.883,260.381 319.791,266.957 C319.492,262.354 318.823,252.6 316.503,252.162 C313.37,251.569 310.861,263.56 309.399,267.505 C308.23,258.081 307.863,237.352 303.671,238.667 C298.887,240.168 300.193,259.614 299.471,268.93 C297.079,262.354 295.591,248.654 291.102,248.216 C287.926,247.907 287.815,262.354 287.218,267.943 C286.32,262.025 282,247.778 279.151,248.654 C275.772,249.694 277.179,261.806 277.179,267.066 C275.686,264.436 267.315,251.066 265.401,253.477 C263.588,255.762 269.049,264.546 269.945,266.848 C272.036,271.122 273.172,274.19 277.057,276.491 L279.448,276.491 C285.125,277.807 291.7,276.82 297.678,276.82 C308.734,276.82 320.688,278.464 331.745,277.149 C340.411,275.834 348.195,251.285 343.101,250.189" id="Fill-544" fill="#7C9158"></path>
                        <polyline id="Fill-545" fill="#F0C960" points="268.411 300.821 344.688 300.821 348.195 273.642 264.027 272.766 268.411 300.821"></polyline>
                        <polyline id="Fill-546" fill="#FFFFFE" points="91.591 299.791 372.283 299.967 372.283 312.217 92.894 309.989 91.591 299.791"></polyline>
                        <polyline id="Fill-547" fill="#FFFFFE" points="152.267 444.917 145.271 305.432 161.563 305.432 158.836 444.917 152.267 444.917"></polyline>
                        <polyline id="Fill-548" fill="#FFFFFE" points="322.101 445.333 314.771 305.432 331.063 305.432 328.67 445.333 322.101 445.333"></polyline>
                    </g>
                </g>
            </g>
        </g>
    </g>
</svg>