<?xml version="1.0" encoding="iso-8859-1"?>
<!-- Generator: Adobe Illustrator 16.0.0, SVG Export Plug-In . SVG Version: 6.00 Build 0)  -->
<!DOCTYPE svg PUBLIC "-//W3C//DTD SVG 1.1//EN" "http://www.w3.org/Graphics/SVG/1.1/DTD/svg11.dtd">
<svg version="1.1" id="Capa_1" xmlns="http://www.w3.org/2000/svg" xmlns:xlink="http://www.w3.org/1999/xlink" x="0px" y="0px"
	 width="94.094px" height="94.094px" viewBox="0 0 94.094 94.094" style="enable-background:new 0 0 94.094 94.094;"
	 xml:space="preserve">
<g>
	<path d="M47.047,0C21.064,0,0,21.064,0,47.047c0,25.982,21.064,47.047,47.047,47.047c25.982,0,47.047-21.064,47.047-47.047
		C94.094,21.064,73.029,0,47.047,0z M61.07,71.773c0,0.946-0.535,1.812-1.381,2.235c-0.354,0.177-0.738,0.265-1.119,0.265
		c-0.53,0-1.058-0.168-1.498-0.498L24.026,49.048c-0.631-0.472-1.002-1.213-1.002-2.001s0.371-1.53,1.002-2.001l33.046-24.727
		c0.76-0.568,1.771-0.657,2.617-0.234c0.848,0.424,1.381,1.289,1.381,2.235V71.773L61.07,71.773z"/>
</g>
<g>
</g>
<g>
</g>
<g>
</g>
<g>
</g>
<g>
</g>
<g>
</g>
<g>
</g>
<g>
</g>
<g>
</g>
<g>
</g>
<g>
</g>
<g>
</g>
<g>
</g>
<g>
</g>
<g>
</g>
</svg>
