<?xml version="1.0" encoding="UTF-8" standalone="no"?>
<svg width="210px" height="133px" viewBox="0 0 210 133" version="1.1" xmlns="http://www.w3.org/2000/svg" xmlns:xlink="http://www.w3.org/1999/xlink">
    <!-- Generator: Sketch 49.1 (51147) - http://www.bohemiancoding.com/sketch -->
    <title>Group 14</title>
    <desc>Created with Sketch.</desc>
    <defs></defs>
    <g id="Page-1" stroke="none" stroke-width="1" fill="none" fill-rule="evenodd">
        <g id="home1" transform="translate(-560.000000, -1991.000000)">
            <g id="Group-14" transform="translate(560.000000, 1991.000000)">
                <path d="M86.5119709,130 L109,130 C88.0355695,127.961187 68.0773381,117.107563 55.1579501,98.5222278 C44.0676605,82.5680151 40.1683141,63.795158 42.7540117,46 C38.4646657,65.3380085 41.9571124,86.3287941 54.1719011,103.901513 C62.5432433,115.944282 73.8707827,124.742928 86.5119709,130" id="Fill-287" fill="#9BC03D"></path>
                <path d="M157.820525,118.146383 C147.101029,125.595601 135.112136,129.807134 123,131 L143.355108,131 C148.00459,129.036008 152.523695,126.565538 156.836532,123.568381 C174.46409,111.319019 185.157641,92.7572461 188,73 C184.112675,90.6987379 173.825175,107.024051 157.820525,118.146383" id="Fill-288" fill="#F5A623"></path>
                <path d="M206.240149,72.352916 L175.723981,72.352916 C173.68688,72.3081946 172.048088,70.6528575 172.048088,68.612528 C172.048088,66.5449769 173.731137,64.8682513 175.807939,64.8682513 L194.816762,64.8682513 L204.039689,54.7404916 C212.907913,45.0009648 207.363483,29.3485011 194.32213,27.3068754 L53.2082858,5.21065205 C40.069308,3.15347111 29.9586473,16.5497764 35.5954952,28.5461098 L83.2682206,130 L135.505875,130 L181.1812,79.8414694 L206.240149,79.8414694 C208.3163,79.8414694 210,78.1653919 210,76.0971927 C210,74.0296416 208.3163,72.352916 206.240149,72.352916" id="Fill-289" fill="#FBBC00"></path>
                <path d="M86.1759212,130 L84.051091,130 L78.2209362,117.416842 C78.1191134,116.262982 78.0441872,115.10136 78,113.931977 L86.1759212,130 M95.8868688,127.638596 L94.6227293,127.638596 L81.4241913,90.0171859 C85.3978414,78.1635991 92.5849929,67.8053738 101.935398,60 C101.626087,64.3509073 102.200522,70.8465462 105.097028,80.3115645 C107.74506,88.9655172 111.79876,97.0386591 119,99.2778209 L111.335114,121.269727 C110.272058,119.405699 108.283632,118.147707 106.000625,118.147707 L101.115693,118.147707 C98.2845071,118.147707 95.9054402,120.080293 95.1862768,122.708818 C95.1593802,122.807129 95.133124,122.906087 95.1113506,123.006338 C95.0934196,123.085893 95.0780501,123.166741 95.063321,123.247588 C95.0428284,123.362069 95.0255377,123.477196 95.011449,123.593617 C95.0024835,123.661529 94.993518,123.728795 94.987114,123.796707 C94.9698233,123.984274 94.9589366,124.173781 94.9589366,124.366523 C94.9589366,125.568245 95.3021883,126.687179 95.8868688,127.638596" id="Fill-291" fill="#F5A623"></path>
                <path d="M165.957431,97 C165.081777,92.6869179 162.206497,88.9237875 158.036034,86.9483203 L148.484877,82.4230774 L148,79.6278105 C148.052931,79.4342378 148.104556,79.2413061 148.151606,79.0477334 C148.18624,78.9054382 148.216953,78.763143 148.24832,78.6208478 C148.287528,78.4426584 148.326083,78.2651099 148.360717,78.0869205 L148.36137,78.0926892 C148.36137,78.0926892 148.428678,78.0503852 148.543689,77.9734689 C148.898525,78.1907575 149.56376,78.6157201 150.182599,79.1137532 C151.075896,79.8335617 152.095314,81.868639 152.095314,81.868639 C152.095314,81.868639 152.04761,80.181608 151.168689,78.8554426 C150.613891,78.0189777 149.863051,77.5529931 149.434373,77.3363455 L149.435026,77.3363455 C150.025765,77.3607023 150.755695,77.470308 151.556852,77.7709226 C153.628361,78.5490593 155.663275,81.6045597 155.663275,81.6045597 C155.663275,81.6045597 155.333271,78.8374954 153.353249,77.2357133 C152.705657,76.7120414 151.869212,76.2665678 151.135362,75.9319819 C152.674291,74.5551799 154.588966,72.5386907 156.175597,69.9184084 C156.51475,69.3582013 156.839526,68.7704325 157.14143,68.155102 C157.745892,66.925723 158.262136,65.5880202 158.633962,64.1458394 C158.912995,63.0645242 159.110997,61.9242399 159.205097,60.7269094 C159.26783,59.9282617 159.283514,59.1046162 159.246266,58.255973 C159.209018,57.4073297 159.118839,56.5336886 158.967886,55.6350497 C158.882935,55.129325 158.788835,54.6357787 158.68624,54.1537698 C158.637229,53.9262257 158.581684,53.7095781 158.529406,53.4871618 C158.471247,53.2391067 158.416355,52.9865648 158.354276,52.7442784 C158.277819,52.4487916 158.192868,52.1648422 158.11053,51.877688 C158.065441,51.7225734 158.024272,51.5623311 157.977875,51.4097804 C157.87528,51.0739126 157.764843,50.7495821 157.653753,50.4265336 C157.621733,50.3329521 157.592326,50.2348838 157.559653,50.1425842 C157.433532,49.7855644 157.300224,49.4400819 157.164302,49.0984453 L157.104182,48.9414079 C156.955844,48.5741325 156.801624,48.2177536 156.643484,47.8684254 L156.615385,47.8036875 C156.448749,47.438335 156.276886,47.0825971 156.100448,46.7364737 L156.09522,46.7255772 C156.020071,46.5775133 155.942961,46.4326542 155.866505,46.2877952 C156.047517,46.1961366 156.225915,46.1019141 156.393204,46 C170.622573,48.4638858 183.3104,55.3113602 192.957618,65.0669122 L176.394698,65.0669122 C174.309466,65.0669122 172.619586,66.7250996 172.619586,68.7697915 C172.619586,70.7875627 174.26503,72.4245981 176.3104,72.468825 L199.281273,72.468825 C201.01363,74.8263099 202.591113,77.2991693 204,79.8745837 L181.789768,79.8745837 L165.957431,96.999359" id="Fill-292" fill="#F5A623"></path>
                <path d="M76.9996781,63 C73.1341458,63 70,59.8663539 70,56 C70,52.1336461 73.1341458,49 76.9996781,49 C80.8658542,49 84,52.1336461 84,56 C84,59.8663539 80.8658542,63 76.9996781,63" id="Fill-293" fill="#F5A623"></path>
                <path d="M136.022376,130 L86,129.92787 L136.087472,129.92787 L136.022376,130 M138.854016,126.882795 L166,97 C166,97.0006498 166,97.0006498 166,97.0006498 L138.854016,126.882795" id="Fill-294" fill="#CECDC8"></path>
                <polyline id="Fill-295" fill="#819C3E" points="136 131 136 131 139 128 136 131"></polyline>
                <path d="M77.7724696,114 L62,83.2831169 L76.0448234,83.2831169 C77.7303319,83.2831169 79.2330275,84.3458771 79.7963763,85.9361245 L81.2387826,90.0100384 C78.9594565,96.7460433 77.7232009,103.965416 77.7232009,111.471565 C77.7232009,112.31827 77.740056,113.161081 77.7724696,114 M102.002302,59.8985004 C102.436645,53.8573772 104.584371,51.9368826 104.584371,51.9368826 L104.566868,51.918067 L104.534454,51.8817333 L104.516951,51.8622688 L104.45731,51.7915479 L104.43851,51.7694882 L104.360717,51.6728146 L104.334138,51.639725 L104.240787,51.5183965 L104.208373,51.4749258 L104.100112,51.3250494 L104.06705,51.2783347 C104.028154,51.2225365 103.987961,51.1628455 103.947119,51.101208 L103.910816,51.0460586 C103.868679,50.9824747 103.826541,50.9149978 103.783107,50.8442769 L103.746155,50.7832883 C103.702072,50.7106209 103.657342,50.6347095 103.612611,50.5555539 L103.575659,50.4893747 C103.53028,50.4082728 103.485549,50.3239267 103.44017,50.2369854 L103.403219,50.1643181 C103.35784,50.0754303 103.313757,49.9839473 103.269026,49.8892202 L103.232723,49.8094158 C103.188641,49.7127423 103.145855,49.6141223 103.103069,49.5116094 L103.069359,49.4279122 C103.027221,49.3228041 102.985731,49.2163983 102.946187,49.1054508 L102.917015,49.0217536 C102.87747,48.907562 102.838574,48.7920728 102.801622,48.6720419 L102.778932,48.5928864 C102.742629,48.4683137 102.706974,48.3424435 102.674561,48.2126803 L102.660947,48.150394 C102.627237,48.0115475 102.59612,47.8714033 102.568244,47.7267174 C102.018509,44.8128859 102.757539,40.6474889 108.362503,36.0649034 C115.784575,29.9958811 123.61441,27.9741713 130.101673,27.9741713 C131.007958,27.9741713 131.88896,28.0137491 132.737549,28.0870652 C135.77665,28.3498356 138.162941,29.4865608 139.885401,30.6803817 C139.954118,30.545428 140.036449,30.4156649 140.111,30.2833065 C140.197869,30.1308348 140.27631,29.975119 140.371606,29.8258914 C140.55766,29.5326267 140.759273,29.2458501 140.978389,28.9675082 C141.194263,28.6930591 141.421159,28.4341817 141.657778,28.1876317 C141.736868,28.1052321 141.822439,28.0319159 141.903474,27.9521116 C142.064893,27.7944493 142.226313,27.6361383 142.395512,27.4908036 C142.497291,27.4038623 142.605553,27.3253556 142.710573,27.2423072 C142.866806,27.1183834 143.02304,26.9931619 143.185757,26.8789704 C143.301797,26.7972196 143.422376,26.7245522 143.54101,26.6486408 C143.699837,26.5467767 143.858015,26.443615 144.02138,26.3514832 C144.147793,26.2794646 144.277447,26.2158807 144.406454,26.1490527 C144.568522,26.0666531 144.729942,25.9842535 144.895251,25.9096397 C145.03074,25.8492998 145.167526,25.7954481 145.304959,25.7409476 C145.46962,25.6754172 145.634282,25.6111844 145.801536,25.5547374 C145.943508,25.5067251 146.086776,25.4639032 146.230044,25.4217302 C146.397298,25.373069 146.563904,25.3270031 146.733104,25.2867766 C146.880261,25.2517405 147.027419,25.2205973 147.175874,25.1920495 C147.344425,25.1589599 147.513624,25.130412 147.683471,25.1064058 C147.83387,25.0849949 147.984918,25.0661792 148.136614,25.0512564 C148.305813,25.0343872 148.475012,25.0233574 148.645507,25.0149228 C148.7985,25.007137 148.95214,25.0012976 149.105781,25 C149.11745,25 149.129119,25 149.140788,25 C149.298966,25 149.455848,25.0058393 149.614026,25.0129763 C149.768315,25.0194645 149.921956,25.0259526 150.076245,25.0395778 C150.245444,25.0545005 150.413346,25.0778579 150.581897,25.1012153 C150.735538,25.1219774 150.889178,25.1420906 151.042171,25.1699897 C151.210722,25.2011329 151.376679,25.2413595 151.543934,25.2809372 C151.694981,25.3166221 151.846677,25.3497117 151.997076,25.3925335 C152.16433,25.4398971 152.328992,25.4982905 152.494949,25.5547374 C152.641459,25.6046963 152.788617,25.6494645 152.93383,25.7065603 C153.103029,25.7727395 153.268987,25.8518951 153.435593,25.9271577 C153.572378,25.989444 153.711109,26.0452421 153.845949,26.1140166 C154.0333,26.2087437 154.215465,26.3190424 154.398926,26.4267458 C154.507835,26.4909785 154.619338,26.5467767 154.726952,26.6149023 C155.018674,26.8004636 155.303914,27.0015965 155.581375,27.2202474 C156.909685,28.2654896 157.905432,29.5741509 158.572504,31.0099801 L158.572504,31.0093313 L158.572504,31.0106289 C158.666503,31.2130594 158.752724,31.4180852 158.83311,31.6257062 L158.872006,31.7282191 C159.100198,32.3361594 159.270693,32.9603202 159.382845,33.5968084 C159.395162,33.6655829 159.406831,33.7337085 159.417203,33.802483 C159.447672,33.9958301 159.474899,34.189826 159.493699,34.3844707 C159.500182,34.4435129 159.501478,34.5025552 159.506665,34.5615974 C159.533244,34.8918446 159.544913,35.2220918 159.539727,35.5542855 C159.53843,35.6788581 159.537133,35.8027819 159.530651,35.9273545 C159.52352,36.0798262 159.512499,36.2316491 159.498237,36.383472 C159.483327,36.5443783 159.462582,36.7052846 159.439893,36.8655421 C159.420444,37.0069839 159.401644,37.1477769 159.375714,37.2885699 C159.331631,37.5325246 159.277176,37.7751817 159.214942,38.0165412 C159.187066,38.1242446 159.155301,38.2306503 159.123536,38.3377049 C159.065839,38.5355937 159.00166,38.7321849 158.931647,38.9268296 C158.899882,39.0163662 158.870061,39.1059028 158.835054,39.1947905 C158.728738,39.4679419 158.610752,39.7372005 158.479801,40.0032149 C158.448684,40.0655012 158.413029,40.1264899 158.381264,40.1887762 C158.267816,40.4074271 158.145941,40.6228339 158.015638,40.8356455 C157.968962,40.9109081 157.923583,40.9855219 157.874963,41.0594869 C157.704467,41.3229061 157.524896,41.5830812 157.327173,41.8348217 C156.980995,42.2753676 156.599163,42.6691987 156.201123,43.0383749 C156.659452,42.8476231 157.192332,42.5945849 157.735584,42.266933 C158.287264,41.9340905 158.743648,41.5376641 159.098253,41.1723809 C159.690126,40.5637917 160,40.041495 160,40.041495 C160,40.041495 159.95138,40.2997237 159.822373,40.7162634 C159.692719,41.1321543 159.48203,41.7050586 159.158542,42.3344098 C158.916088,42.8067477 158.609456,43.3102287 158.225678,43.802031 C158.097969,43.9661814 157.961183,44.1290341 157.815322,44.2892916 C157.524247,44.6091578 157.196221,44.9179941 156.828003,45.2021754 C156.643893,45.3449148 156.45006,45.4811661 156.245206,45.6096316 C156.240668,45.6122269 156.23613,45.615471 156.231592,45.6180662 C152.435957,44.9471908 148.529467,44.5974791 144.541294,44.5974791 C128.378565,44.5974791 113.558407,50.3394983 102.002302,59.8985004" id="Fill-296" fill="#F5A623"></path>
                <path d="M136.2094,130 L86.326094,130 L78.0492707,113.979675 C78.0168558,113.145868 78,112.308191 78,111.466645 C78,104.006229 79.2363047,96.8308411 81.5157212,90.1358764 L94.8771475,127.645606 L96.1568882,127.645606 C95.5649919,126.697013 95.2175041,125.581401 95.2175041,124.383246 C95.2175041,124.191077 95.2285251,124.002132 95.2460292,123.815122 C95.2525122,123.747411 95.2615883,123.680345 95.2706645,123.612635 C95.2849271,123.496559 95.3024311,123.381774 95.3231767,123.267633 C95.3380875,123.187025 95.3536467,123.106418 95.371799,123.027099 C95.3938412,122.927146 95.4204214,122.828482 95.4476499,122.730463 C96.1756888,120.10974 98.5841167,118.182891 101.450243,118.182891 L106.395462,118.182891 C108.706645,118.182891 110.719611,119.437149 111.795786,121.295643 L119.555267,99.3690208 C112.265154,97.1365061 108.161426,89.0873296 105.480713,80.4590664 C102.54846,71.0221453 101.966937,64.545789 102.280065,60.2077975 C113.836629,50.7070351 128.657374,45 144.820746,45 C148.809076,45 152.715721,45.347581 156.511507,46.0143691 C156.345543,46.1169022 156.168558,46.2116971 155.988979,46.3039124 C156.06483,46.4496514 156.141329,46.5953904 156.215883,46.7443537 L156.22107,46.7553163 C156.39611,47.1035422 156.566613,47.461441 156.731929,47.8290128 L156.759806,47.8941439 C156.916694,48.2455941 157.069692,48.6041377 157.216856,48.9736441 L157.276499,49.1316354 C157.411345,49.4753473 157.543598,49.8229283 157.66872,50.1821168 C157.701135,50.2749771 157.730308,50.373641 157.762075,50.467791 C157.872285,50.7928018 157.981848,51.1191024 158.08363,51.4570104 C158.12966,51.6104877 158.170502,51.7717034 158.215235,51.9277602 C158.296921,52.2166587 158.381199,52.5023329 158.45705,52.7996146 C158.518639,53.0433727 158.573096,53.2974486 158.630794,53.5470105 C158.682658,53.7707779 158.737763,53.9887415 158.786386,54.2176677 C158.888169,54.7026045 158.981524,55.1991488 159.065802,55.7079455 C159.215559,56.612043 159.305024,57.4909909 159.341977,58.3447891 C159.37893,59.1985874 159.363371,60.027236 159.301135,60.8307349 C159.20778,62.0353385 159.011345,63.1825493 158.734522,64.2704327 C158.36564,65.7213738 157.853485,67.0672023 157.253809,68.304049 C156.954295,68.9231172 156.632091,69.5144563 156.295624,70.0780663 C154.721556,72.7142651 152.822042,74.7430032 151.2953,76.1281684 C152.023339,76.4647867 152.85316,76.9129663 153.495624,77.4398191 C155.459968,79.0513311 155.787358,81.8352034 155.787358,81.8352034 C155.787358,81.8352034 153.768558,78.7611428 151.713452,77.9782795 C150.918639,77.6758389 150.194489,77.5655674 149.608428,77.5410626 L149.60778,77.5410626 C150.033063,77.7590262 150.777958,78.2278414 151.328363,79.0693872 C152.200324,80.4036082 152.24765,82.1008869 152.24765,82.1008869 C152.24765,82.1008869 151.236305,80.0534477 150.350081,79.3292669 C149.736143,78.8282086 149.076175,78.4006646 148.724149,78.1820561 C148.610049,78.2594397 148.543274,78.3020006 148.543274,78.3020006 L148.542626,78.2961968 C148.508266,78.4754687 148.470016,78.6540956 148.431118,78.8333675 C148.4,78.976527 148.36953,79.1196865 148.33517,79.262846 C148.288493,79.4575946 148.237277,79.6516983 148.184765,79.8464468 L148.665802,82.6586931 L158.141329,87.2114239 C162.278768,89.1988908 165.13128,92.9848799 166,97.3241611 L136.2094,130" id="Fill-297" fill="#A66801"></path>
                <polyline id="Fill-298" fill="#2F302E" points="108.513261 123 121 88.4909159 110.805122 85 99 117.626912 108.513261 123"></polyline>
                <polyline id="Fill-299" fill="#FFFFFE" points="144 130.697893 138.903552 72 120.10044 79.9277336 112.129749 95.2235279 112 131 144 130.697893"></polyline>
                <path d="M116.059912,132 L138,132 L136.990777,116.1596 L130.745552,110.776411 C130.745552,110.776411 128.83749,110.397004 127.172535,112.00431 C125.508237,113.611616 122.828802,114.029277 121.267003,112.426988 C119.705204,110.824072 117.452193,109.654495 115.644001,110.092851 C113.83581,110.531834 116.40946,128.487506 116.40946,128.487506 L116.059912,132" id="Fill-300" fill="#CDCCC7"></path>
                <path d="M120.137396,80.4822211 L118,69.1674191 L134.208533,45 L139,72.5436309 L138.721841,77.945699 C138.418575,83.820941 133.620501,88.5190661 127.614649,88.8202943 L124.137333,88.9948256 C121.847974,89.109887 119.94513,87.2908826 120.008558,85.0491245 L120.137396,80.4822211" id="Fill-301" fill="#E5BD95"></path>
                <path d="M137,61.8681586 C135.860655,65.0986996 132.041,71.6866068 127.742414,75.2581104 C124.665069,77.8150112 121.698448,78.1368544 119.753897,77.9596813 L118,68.728836 L124.516345,59.0684415 L135.314897,52 L137,61.8681586" id="Fill-302" fill="#C49770"></path>
                <path d="M100.08589,113.122768 L110.592127,119.786218 C110.97493,120.029278 111.112006,120.555449 110.901022,120.976662 L109.119662,124.536947 C108.896044,124.982327 108.373007,125.13424 107.971253,124.869774 L97.3955308,117.90388 C97.0064109,117.647699 96.8832317,117.098742 97.1213781,116.6796 L98.9722243,113.42176 C99.2053172,113.010905 99.7005606,112.877636 100.08589,113.122768" id="Fill-303" fill="#FFFFFE"></path>
                <path d="M109.815842,85 L106.182301,106.449367 C105.855947,108.374511 105.968889,110.342726 106.512119,112.223493 L108.47024,119 L111,117.290211 L109.815842,85" id="Fill-304" fill="#3B3C3A"></path>
                <path d="M134.217672,119.967745 L134.367269,132 L153.641922,132 L153.006293,130.097624 L155.959097,90.5605849 C156.39842,84.6779916 153.267614,79.1205247 148.069593,76.554349 L138.843816,72 L133.859776,91.1108483 L133.925421,96.4128588 L132.166237,107.683905 C131.868937,109.586926 131.971193,111.532523 132.466693,113.392323 L134.217672,119.967745" id="Fill-305" fill="#3B3C3A"></path>
                <path d="M150.664205,132 L149.17,128.74102 L154,89 L139.730889,107.594977 C139.730889,107.594977 139.610813,116.813952 139.072078,115.661339 C138.533342,114.508725 137.60741,109.349318 137.60741,109.349318 L135.164799,120.98228 L134,132 L150.664205,132" id="Fill-306" fill="#2F302E"></path>
                <path d="M134.285604,120.791965 L134.439783,133 L137.184437,133 C137.86751,131.124811 138.503744,129.31311 138.837474,128.199124 C139.782067,125.046974 138.691101,118.481523 138.292967,116.467576 C138.05747,115.277666 138.696956,110.559913 139.259028,106.89855 L140,102.337227 L137.677551,94 L133.944067,97.1469137 L132.171329,108.328668 C131.864922,110.25949 131.97031,112.233511 132.480989,114.119827 L134.285604,120.791965" id="Fill-307" fill="#171816"></path>
                <path d="M117.57308,133 L117.914953,120.348211 L116.403683,114.663543 C115.902695,112.777814 115.798536,110.803753 116.099512,108.873531 L118.670907,92.3717664 L119,80.1779964 L118.426165,77 L109.741954,85.1527353 L108,133 L117.57308,133" id="Fill-308" fill="#3B3C3A"></path>
                <path d="M109.175824,118.367594 C109.090458,119.758985 108.486745,126.005719 108.486745,126.005719 L108.347427,132 L118,132 L117.555411,126.140661 L112.564537,111 C112.564537,111 111.426088,111.532667 109.634755,111.649531 C107.843422,111.766395 107,111.209193 107,111.209193 C107,111.209193 109.261874,116.975557 109.175824,118.367594" id="Fill-309" fill="#2F302E"></path>
                <path d="M91.0858962,108 L95.9141038,108 C99.2751136,108 102,110.909772 102,114.499662 C102,118.090228 99.2751136,121 95.9141038,121 L91.0858962,121 C87.7248864,121 85,118.090228 85,114.499662 C85,110.909772 87.7248864,108 91.0858962,108" id="Fill-310" fill="#E5BD95"></path>
                <path d="M112.248011,102.755036 L115.983939,94 L117.752668,98.2843236 L116.286167,108.28436 C116.002036,110.220444 116.100366,112.2005 116.573314,114.091955 L118,119.793885 L117.739999,130 C117.739999,130 114.586812,120.970631 112.968895,115.80424 C111.350979,110.638507 112.248011,102.755036 112.248011,102.755036" id="Fill-311" fill="#171816"></path>
                <polyline id="Fill-312" fill="#232422" points="141 73.6046767 138.164276 92.560656 133.026627 97 133 91.3718613 138.005785 72 141 73.6046767"></polyline>
                <polyline id="Fill-313" fill="#232422" points="116.906803 78.4011232 115 93.0728283 117.630947 99 118.66553 92.4392998 119 80.1919584 118.416788 77 116.906803 78.4011232"></polyline>
                <path d="M102,113.687723 C102,112.72529 101.78606,111.816033 101.414513,111 C100.943592,111.984755 99.9321245,113.336494 97.7781667,114.091473 C94.5488123,115.221971 87.4432199,115.542344 85.2917939,111.760231 C85.1038052,112.368152 85,113.015464 85,113.687723 C85,117.173754 87.7248864,120 91.0858962,120 L95.9141038,120 C99.2751136,120 102,117.173754 102,113.687723" id="Fill-314" fill="#D5AC84"></path>
                <path d="M102.975864,118 L62,118 L62,122 L106,122 L106,120.506623 C106,119.122466 104.646445,118 102.975864,118" id="Fill-315" fill="#80817E"></path>
                <path d="M87,122 L22.5754877,122 L5,73 L66.5916104,73 C68.2899145,73 69.8040179,74.0570247 70.3716434,75.6386899 L87,122" id="Fill-316" fill="#32355A"></path>
                <path d="M80,122 L16.0844526,122 L0.190134163,77.3313491 C-0.562232769,75.217945 1.01184068,73 3.26375721,73 L59.7528403,73 C61.4377275,73 62.9405172,74.0570247 63.5030103,75.6386899 L80,122" id="Fill-317" fill="#CDCCC7"></path>
                <path d="M57.6891702,79 L25.3101812,79 C24.5863385,79 24,78.3283028 24,77.5 C24,76.6716972 24.5863385,76 25.3101812,76 L57.6891702,76 C58.4130129,76 59,76.6716972 59,77.5 C59,78.3283028 58.4130129,79 57.6891702,79" id="Fill-318" fill="#FFFFFE"></path>
                <path d="M18.7000172,79 L6.29998284,79 C5.5817745,79 5,78.3283028 5,77.5 C5,76.6716972 5.5817745,76 6.29998284,76 L18.7000172,76 C19.4182255,76 20,76.6716972 20,77.5 C20,78.3283028 19.4182255,79 18.7000172,79" id="Fill-319" fill="#FFFFFE"></path>
                <path d="M77.3831859,111.83967 C77.3831859,111.83967 53.6589179,114.34636 34.9103751,108.035544 C16.1624837,101.724079 5,89 5,89 L16.7481314,122 L81,122 L77.3831859,111.83967" id="Fill-320" fill="#BCBCB7"></path>
                <path d="M160.255927,133 L7.74407266,133 C6.78079187,133 6,132.191286 6,131.193556 L6,123.806444 C6,122.808714 6.78079187,122 7.74407266,122 L160.255927,122 C161.219208,122 162,122.808714 162,123.806444 L162,131.193556 C162,132.191286 161.219208,133 160.255927,133" id="Fill-321" fill="#32355A"></path>
                <path d="M138.851706,67 C138.851706,67 140.171095,67.377565 141.027602,68.4276334 C141.94994,69.5597811 142,71 142,71 C142,71 140.930225,69.2626539 139.9928,68.6481532 C139.055375,68.0336525 138,67.5417237 138,67.5417237 L138.851706,67" id="Fill-322" fill="#79342F"></path>
                <path d="M139.521318,65 C139.521318,65 142.067267,65.7441673 143.598098,66.8695081 C145.656871,68.3839006 146,71 146,71 C146,71 143.884152,68.1112009 141.730253,67.3755176 C139.637506,66.6610443 138,67.0791839 138,67.0791839 L139.521318,65" id="Fill-323" fill="#79342F"></path>
                <path d="M146.424804,16.2872677 C151.099344,19.9372365 151.908192,26.6580572 148.232463,31.2989888 C147.874019,31.7514863 147.478657,32.1560018 147.066513,32.5351934 C147.541082,32.3392666 148.092844,32.0793638 148.655346,31.7428229 C150.179069,30.8304973 151,29.4570108 151,29.4570108 C151,29.4570108 150.196522,33.7074218 146.442257,35.548067 C143.867366,36.8102618 144.462088,35.1488829 145.090372,33.980653 C141.399204,36.0625413 136.655526,35.8599504 133.112032,33.0936512 C128.437492,29.4436825 127.627972,22.7228617 131.304373,18.0825965 C134.980774,13.4416649 141.750264,12.6379653 146.424804,16.2872677" id="Fill-324" fill="#313131"></path>
                <path d="M147.759899,25.9525777 C148.839491,23.9179643 149.330576,22.2555208 149.54,21 C151.174961,24.353321 150.829015,28.4370809 148.267552,31.5427098 C147.913653,31.9717478 147.523304,32.3552914 147.116386,32.7148241 C147.584938,32.529055 148.129704,32.2826267 148.685074,31.9635336 C150.189478,31.0985069 151,29.7962279 151,29.7962279 C151,29.7962279 150.206709,33.826279 146.500044,35.5714972 C143.957801,36.7682543 144.544982,35.1930085 145.1653,34.0853447 C144.273262,34.5687234 143.318264,34.9200417 142.333443,35.1399316 C141.847659,32.7957031 142.035876,30.8280676 142.035876,30.8280676 C142.035876,30.8280676 145.166626,30.8369137 147.759899,25.9525777" id="Fill-325" fill="#757575"></path>
                <path d="M131.214246,18.1591146 C134.539618,13.7206085 140.490999,12.7279367 144.934964,15.6971254 C145.048829,16.6049245 145.07406,18.1781261 144.489209,19.0472232 C142.321894,22.2628825 136.440385,22.8569918 136.440385,22.8569918 C136.440385,22.8569918 138.321743,23.6520799 139.768345,23.4741865 C141.214946,23.2969722 142.562563,22.9601971 142.562563,22.9601971 C142.562563,22.9601971 140.144875,25.394348 135.507469,25.4513825 C133.728978,25.4724309 131.203895,25.9864204 129.054695,26 C128.790089,23.2881454 129.481688,20.4703697 131.214246,18.1591146" id="Fill-326" fill="#454545"></path>
                <path d="M134.014738,24 C134.014738,24 146.033298,28.1091384 148.709876,44.5219545 C151.056169,58.9087505 138.40054,67 138.40054,67 L132,31.4689444 L134.014738,24" id="Fill-327" fill="#434343"></path>
                <path d="M115.684799,89.8800024 C128.864269,88.3264584 139.690263,74.5182017 138.965614,63.3224246 L134.155512,23.80045 L133.569265,23 L102.769728,26.0919603 L94.6765091,41.358391 C94.6765091,41.358391 88.25847,47.1358382 95.2993155,70.0844846 C98.6823161,81.1105689 104.307811,91.2211015 115.684799,89.8800024" id="Fill-328" fill="#E5BD95"></path>
                <path d="M136.522911,16.1957175 C136.522911,16.1957175 138.088345,15.745891 139.305774,16.2101386 C140.523788,16.6743861 140.024045,18.2307524 138.697645,19.281272 C137.371245,20.3317915 134.744223,20.2441557 134.11266,18.9296197 C133.480511,17.6156383 135.676921,16.35324 136.522911,16.1957175" id="Fill-329" fill="#636363"></path>
                <path d="M114.017255,59.2326277 C114.177392,60.3292287 115.418799,61.1148614 116.790232,60.9862038 C118.161665,60.8580936 119.14302,59.8644188 118.982882,58.7678178 C118.822061,57.6706693 117.580654,56.8855841 116.209221,57.0136942 C114.837788,57.1423518 113.856433,58.1354792 114.017255,59.2326277" id="Fill-330" fill="#79342F"></path>
                <path d="M96.0171178,61.2326277 C96.1772555,62.3292287 97.419349,63.1148614 98.7907846,62.9862038 C100.161536,62.8580936 101.143577,61.8649662 100.982755,60.7678178 C100.822617,59.6706693 99.5805235,58.8855841 98.2097722,59.0136942 C96.8383367,59.1423518 95.8569801,60.1354792 96.0171178,61.2326277" id="Fill-331" fill="#79342F"></path>
                <path d="M98.0068804,60.1162875 C98.0710911,60.6649318 98.5676534,61.0573302 99.1162978,60.9931196 C99.6642286,60.9289089 100.057341,60.4323466 99.9931299,59.8837022 C99.9289192,59.3357714 99.4323569,58.9426595 98.8837125,59.0068701 C98.3350682,59.0710808 97.9426698,59.5676431 98.0068804,60.1162875" id="Fill-332" fill="#FFFFFE"></path>
                <path d="M112,50 C112,50 112.035594,49.7990598 112.15556,49.4643927 C112.276844,49.131126 112.48184,48.6599316 112.833828,48.1565307 C113.011799,47.9072808 113.216136,47.6405274 113.471228,47.3947782 C113.725661,47.1504292 114.008437,46.8962783 114.344605,46.7016393 C114.510711,46.600119 114.681432,46.4992988 114.866653,46.4229835 C115.047261,46.3340657 115.23512,46.25565 115.434184,46.2087406 C115.628634,46.1443277 115.829675,46.1030194 116.033353,46.0764141 C116.142772,46.0603109 116.219893,46.0442076 116.356338,46.0288046 L116.636477,46.0120012 C116.999011,45.9846957 117.405049,46.0092006 117.805814,46.0337055 C118.19735,46.0743137 118.575044,46.145728 118.93626,46.2514492 C119.298135,46.3466682 119.639576,46.4831956 119.94674,46.6456281 C120.25852,46.794758 120.535364,46.9788949 120.771999,47.1707333 C121.25384,47.5446082 121.571551,47.9548904 121.756773,48.2559507 C121.942654,48.5605117 122,48.7572511 122,48.7572511 C122,48.7572511 121.459495,48.1551305 120.479336,47.6944382 C120.235449,47.578915 119.965856,47.4717936 119.67517,47.3814755 C119.386461,47.2869566 119.073364,47.2197431 118.74972,47.1602312 C118.426735,47.0951181 118.081999,47.0839159 117.739898,47.0482087 C117.403731,47.0377066 117.06229,47.0307052 116.676027,47.059411 L116.395228,47.0664124 L116.162547,47.0965184 C115.995122,47.1119215 115.830334,47.139227 115.670819,47.1882368 C115.347176,47.258951 115.034078,47.3702733 114.74471,47.5152023 C114.160042,47.793158 113.655791,48.1796354 113.247775,48.5556107 C112.843056,48.9357868 112.532595,49.3026603 112.322325,49.5680135 C112.110738,49.8333666 112,50 112,50" id="Fill-333" fill="#79342F"></path>
                <path d="M104,53 C104,53 103.554629,53.6690344 102.673814,54.3995434 C102.233737,54.7604068 101.689762,55.1412295 101.055787,55.4366266 C100.740785,55.5891154 100.402621,55.7152579 100.049236,55.8086672 C99.6971742,55.9004798 99.3305539,55.9867038 98.9566541,55.9898973 C98.5873867,56.0202354 98.2022368,55.9771234 97.8448812,55.9284228 C97.5192906,55.8773271 97.1573026,55.7751357 96.8224472,55.6729443 C96.1639865,55.4454087 95.5763351,55.0981175 95.1263318,54.7061176 C94.9059625,54.5017348 94.7100788,54.3077308 94.5598571,54.103348 C94.4069883,53.9037553 94.2891933,53.7145416 94.2058103,53.5492789 C94.0357356,53.2187535 94,53 94,53 C94,53 94.1336775,53.1492953 94.3798557,53.3496863 C94.6313282,53.5436903 94.9946397,53.7895884 95.453246,53.9987614 C95.9072199,54.2183133 96.4538416,54.4107206 97.0534048,54.5552256 C97.3478923,54.6318692 97.6423797,54.6925453 97.9911323,54.7476329 C98.1665012,54.7899465 98.2922374,54.7979302 98.4596651,54.8138977 C98.6158428,54.8354537 98.7733439,54.8442357 98.9328304,54.8346553 C99.5687909,54.8378488 100.212693,54.7125046 100.81358,54.5336696 C101.114685,54.4458489 101.399907,54.3292868 101.674542,54.2239019 C101.947853,54.11213 102.204619,53.9955679 102.438886,53.8766108 C102.912051,53.6482768 103.299848,53.422338 103.571835,53.2618655 C103.846469,53.1037882 104,53 104,53" id="Fill-334" fill="#79342F"></path>
                <path d="M117,59.6832045 C117,59.6832045 117.314667,59.5659507 117.786331,59.3900699 C118.008409,59.3034929 118.255312,59.2026 118.504227,59.0860279 C118.748446,58.9626387 119.00407,58.8419763 119.230845,58.6817748 C119.353625,58.6149673 119.458291,58.5249818 119.569665,58.4445402 C119.686407,58.370234 119.774299,58.2652509 119.881648,58.1841276 C119.988326,58.1009592 120.070851,57.9966578 120.168136,57.9107625 C120.264079,57.8235038 120.336539,57.722611 120.418393,57.6367157 C120.490853,57.5453668 120.582771,57.4710605 120.638458,57.3885738 C120.696829,57.3088139 120.758555,57.2406431 120.807533,57.1826979 C120.908172,57.0674891 120.976607,57 120.976607,57 C120.976607,57 120.990697,57.0886221 120.997406,57.2474602 C121.000761,57.4049348 121.012167,57.6394425 120.93501,57.9012186 C120.901463,58.0341517 120.876639,58.1875361 120.798811,58.325923 C120.727021,58.4663549 120.671334,58.6340552 120.561972,58.772442 C120.453952,58.9108288 120.356667,59.0730754 120.211746,59.1923744 C120.078231,59.3232624 119.932639,59.4466517 119.770944,59.5448177 C119.132218,59.9722489 118.365344,60.0526905 117.842018,59.9722489 C117.308628,59.9033963 117,59.6832045 117,59.6832045" id="Fill-335" fill="#79342F"></path>
                <path d="M117.006883,59.1162875 C117.070402,59.6649318 117.567853,60.0573302 118.115977,59.9931196 C118.664814,59.9289089 119.05735,59.4323466 118.993117,58.8837022 C118.928884,58.3357714 118.432147,57.9426595 117.884023,58.0068701 C117.335186,58.0710808 116.94265,58.5676431 117.006883,59.1162875" id="Fill-336" fill="#FFFFFE"></path>
                <path d="M100,60.425693 C100,60.425693 99.7205993,60.6694854 99.1588015,60.8327857 C98.6104869,61.0036141 97.7565543,61.0893178 96.9543071,60.8634769 C96.7535581,60.8148342 96.564794,60.7412912 96.3857678,60.659641 C96.1992509,60.5901515 96.0516854,60.4754938 95.8996255,60.3828412 C95.7453184,60.2901885 95.6426966,60.1627911 95.528839,60.0608731 C95.4097378,59.9618506 95.3438202,59.8396649 95.2734082,59.7371678 C95.1228464,59.5356483 95.0756554,59.3399195 95.0397004,59.2090476 C95.0067416,59.0764385 95,59 95,59 C95,59 95.0906367,59.0422728 95.2299625,59.1175531 C95.2973783,59.1557723 95.3820225,59.1997823 95.4651685,59.2542158 C95.5460674,59.3109655 95.6651685,59.3543965 95.7670412,59.4157789 C95.8779026,59.4702123 95.9820225,59.5391227 96.1086142,59.591819 C96.2359551,59.643357 96.3520599,59.7134256 96.4883895,59.7609101 C96.6262172,59.8066573 96.7483146,59.8755678 96.894382,59.913787 C97.035206,59.9583761 97.1715356,60.0122305 97.3220974,60.0423426 C97.6097378,60.1292045 97.917603,60.1784262 98.2142322,60.2317015 C98.5146067,60.2780278 98.8074906,60.3127726 99.071161,60.3405684 C99.6284644,60.3915273 100,60.425693 100,60.425693" id="Fill-337" fill="#79342F"></path>
                <path d="M132.371946,60.7304025 C130.818367,50.3814306 124.908571,42.5119271 124.908571,42.5119271 C124.908571,42.5119271 129.318178,39.6059327 136.268746,41.8515629 L138.965263,63.6442351 C139.611874,73.4667445 131.154525,85.3075778 120,89 C128.242471,82.4107278 133.913001,70.9925015 132.371946,60.7304025" id="Fill-338" fill="#D5AC84"></path>
                <path d="M133.100757,24 C133.100757,24 120.049028,34.0038458 120.000263,37.761846 C119.951499,41.5198462 126.689203,41.8560065 130.879132,46.4113349 C135.069061,50.967311 137,56 137,56 L136.18684,36.3388321 L133.100757,24" id="Fill-339" fill="#7D7D7D"></path>
                <path d="M118.621287,36.9963442 C118.621287,36.9963442 111.025969,35.6245627 104.60227,36.971001 C98.1792222,38.3174393 94.1795603,42 94.1795603,42 C94.1795603,42 87.3036344,34.7992844 97.9772191,26.1033205 C106.479596,19.1755315 115.515,17.5132781 122.478244,18.113067 C129.441487,18.7128558 133,23.8620725 133,23.8620725 C133,23.8620725 130.077471,25.2488 124.772608,29.8359177 C121.025124,33.0765972 118.621287,36.9963442 118.621287,36.9963442 Z" id="Fill-340" fill="#7D7D7D"></path>
                <path d="M132.314618,40.4190165 C132.623358,40.2940457 132.923036,40.1562573 133.212358,40.0050105 L133.233718,39.9941156 C133.523687,39.8409462 133.802653,39.6730366 134.065438,39.489746 C134.282915,39.3372174 134.486152,39.1846889 134.68227,39.0321603 C134.756704,38.9738406 134.827254,38.9155209 134.8991,38.8572011 C135.011074,38.7668376 135.119813,38.676474 135.224668,38.5861105 C135.309458,38.5124097 135.393601,38.4393498 135.47386,38.3662899 C135.550236,38.2970753 135.622081,38.2285015 135.693926,38.1599278 C135.781953,38.075973 135.871921,37.9920182 135.954122,37.9087043 C138.045397,35.7976579 138.258343,34 138.258343,34 C138.258343,34 138.692002,36.2904917 138.132128,38.4534491 C137.572902,40.6164064 136.943125,41.4963295 136.943125,41.4963295 C136.943125,41.4963295 141.009815,42.8011536 143.054488,40.7888021 C144.416308,39.448089 144.495273,36.755127 144.315337,34.6133186 C145.800782,37.2710324 147.037683,40.5395013 147.704353,44.5456187 C150.095306,58.9172687 137.19879,67 137.19879,67 L134.286151,51.1511303 C133.316566,49.6277674 132.046656,47.8922745 130.458944,46.2202284 C128.229157,43.8733395 125.294512,42.6582382 123,41.5078653 C123,41.5078653 128.358608,42.0199254 132.314618,40.4190165" id="Fill-341" fill="#434343"></path>
                <path d="M137.597916,64.8539524 L136,53.5497666 C136.525333,53.2934452 137.094498,53.1159392 137.69976,53.0412359 C140.795681,52.6560684 143.598963,55.0123065 143.961217,58.3040492 C144.323472,61.5957919 142.107403,64.5763851 139.011481,64.9615526 C138.509998,65.0239195 138.018182,65.0074711 137.541837,64.9334532 L137.597916,64.8539524" id="Fill-342" fill="#E5BD95"></path>
                <path d="M132,47.69328 C133.989573,50.3439071 135.335479,53.4088136 135.934089,56.6519936 L136.36792,59 L137,46 L132,47.69328" id="Fill-343" fill="#898989"></path>
                <path d="M127.037763,35.5375332 C127.037763,35.5375332 127.425999,33.0408068 130.294043,30.9774569 C133.162087,28.9147707 135.141025,28.5829357 136.526596,29.4423883 C138.09024,30.4120101 135.584005,35.8892783 131.88852,37.373908 C128.63161,38.6820014 126.701752,37.8789608 127.037763,35.5375332" id="Fill-344" fill="#434343"></path>
                <path d="M104.572623,24.7748111 C104.572623,24.7748111 106.258345,22.2832866 110.379901,21.4105604 C114.501457,20.5371746 116.789706,21.1038199 117.83702,22.6685263 C119.018379,24.4337685 113.548246,29.129207 108.834317,28.9972756 C104.680265,28.8818356 103.021623,27.1238497 104.572623,24.7748111" id="Fill-345" fill="#434343"></path>
                <path d="M92.7420075,34.3501461 C94.0885653,30.4863238 98.8956532,26.7414378 98.8956532,26.7414378 C98.8956532,26.7414378 96.1315288,31.1086499 99.4826143,31.6936879 C102.833048,32.278083 116.467354,31.0276447 120.273807,26.4592051 C124.080911,21.8907656 120.821029,20 120.821029,20 C120.821029,20 124.024886,20.0353594 127.280207,21.1977206 C129.571375,22.0161309 131.221511,23.6265926 132,24.5105786 C130.78243,25.2190532 128.260647,26.8423729 124.611195,29.9655757 C120.864676,33.1717124 118.461458,37.0496786 118.461458,37.0496786 C118.461458,37.0496786 110.868097,35.692519 104.446051,37.0246055 C98.0246576,38.356692 94.0260256,42 94.0260256,42 C94.0260256,42 92.4944545,40.4107539 92,37.8275862 C92.0964154,36.7745178 92.312047,35.5825833 92.7420075,34.3501461" id="Fill-346" fill="#605F5F"></path>
                <path d="M119,89.1598769 C117.641777,84.6839497 115.306065,77.0564133 115.150857,77.0015678 C114.931667,76.9239815 104,79.7518686 104,79.7518686 C104,79.7518686 104.426979,83.0519619 106.243222,84.292674 C108.058831,85.533386 111.619731,85.3354072 111.619731,85.3354072 L113.174339,89.9905855 C113.952276,90.0173394 114.756821,89.9885789 115.597474,89.8849076 C116.752977,89.7424431 117.888208,89.4949695 119,89.1598769" id="Fill-347" fill="#D5AC84"></path>
                <path d="M132.985465,123 C132.800091,123 132.614078,122.993421 132.426786,122.980263 C129.325926,122.761836 126.715988,120.767703 125.614611,117.776833 L113.041138,83.6160477 C113.007899,83.5265716 112.924161,83.4673595 112.830835,83.4673595 L108.599193,83.4673595 C106.05893,83.4673595 104,81.3475657 104,78.7336797 C104,76.1191359 106.05893,74 108.599193,74 L112.830196,74 C116.722411,74 120.263694,76.5165149 121.642493,80.2626682 L133.182345,111.614168 L137.923446,102.65998 L146,107.189049 L139.86412,118.78015 C138.466783,121.419694 135.866433,123 132.985465,123" id="Fill-348" fill="#ECCDAE"></path>
                <path d="M152.05492,83.550436 C149.427448,82.2619517 146.235867,83.3127607 144.926399,85.8968337 L133,109.429272 L135.46264,108.435944 L142.500535,112.696015 L142.561609,114 L154.440725,90.5612114 C155.750193,87.9771384 154.681735,84.8382744 152.05492,83.550436" id="Fill-349" fill="#232422"></path>
                <path d="M153.958665,87.5919702 C153.643868,89.2160449 151.616131,90.2673252 149.429679,89.9404274 C147.243885,89.6135295 145.726539,88.0316912 146.041336,86.4076165 C146.356132,84.7841204 148.383211,83.7322616 150.569663,84.059738 C152.756116,84.3866358 154.273461,85.9684742 153.958665,87.5919702" id="Fill-350" fill="#565653"></path>
                <path d="M135.288318,104.138878 L145.619992,111.07476 C145.996235,111.326852 146.111855,111.841708 145.881893,112.237854 L143.931689,115.586418 C143.687035,116.005905 143.152374,116.127283 142.757606,115.853182 L132.368442,108.623192 C131.985811,108.356428 131.884883,107.820897 132.142952,107.428086 L134.150007,104.373631 C134.402965,103.988823 134.908881,103.884784 135.288318,104.138878" id="Fill-351" fill="#FFFFFE"></path>
                <path d="M133.474077,122 C135.130917,122 136.696108,121.49874 138,120.590735 C130.427545,120.513167 127.77621,115.041674 127.77621,115.041674 L114.27839,79.4424213 C114.27839,79.4424213 109.796666,79.231879 107.45733,78.9392056 C106.078688,78.7664697 104.891145,77.7815488 104.145599,77 C104.05395,77.3663306 104,77.7476534 104,78.1426647 C104,80.7324005 106.093638,82.8326091 108.676722,82.8326091 L112.979697,82.8326091 C113.074597,82.8326091 113.159746,82.8912741 113.193546,82.9799235 L125.978971,116.825091 C127.098914,119.788328 129.752849,121.764036 132.90598,121.980445 C133.096429,121.993482 133.285578,122 133.474077,122" id="Fill-352" fill="#E5BD95"></path>
                <path d="M97,111.000284 C97,112.104613 94.9851517,113 92.5003228,113 C90.0148483,113 88,112.104613 88,111.000284 C88,109.895387 90.0148483,109 92.5003228,109 C94.9851517,109 97,109.895387 97,111.000284" id="Fill-353" fill="#ECCDAE"></path>
                <path d="M116,77 C116,78.1043398 113.985653,79 111.5,79 C109.014993,79 107,78.1043398 107,77 C107,75.8956602 109.014993,75 111.5,75 C113.985653,75 116,75.8956602 116,77" id="Fill-354" fill="#F4DDC6"></path>
                <path d="M200,17 C200,25.2842348 193.284741,32 185.000326,32 C176.715911,32 170,25.2842348 170,17 C170,8.7157652 176.715911,2 185.000326,2 C193.284741,2 200,8.7157652 200,17" id="Fill-355" fill="#F5A623"></path>
                <path d="M162,6.49965548 C162,10.0902104 159.089676,13 155.5,13 C151.910324,13 149,10.0902104 149,6.49965548 C149,2.90978958 151.910324,0 155.5,0 C159.089676,0 162,2.90978958 162,6.49965548" id="Fill-356" fill="#F5A623"></path>
            </g>
        </g>
    </g>
</svg>