<?xml version="1.0" encoding="UTF-8" standalone="no"?>
<svg width="130px" height="227px" viewBox="0 0 130 227" version="1.1" xmlns="http://www.w3.org/2000/svg" xmlns:xlink="http://www.w3.org/1999/xlink">
    <!-- Generator: Sketch 49.1 (51147) - http://www.bohemiancoding.com/sketch -->
    <title>Group 17</title>
    <desc>Created with Sketch.</desc>
    <defs>
        <linearGradient x1="50%" y1="0%" x2="50%" y2="100%" id="linearGradient-1">
            <stop stop-color="#FAF180" offset="0%"></stop>
            <stop stop-color="#F3DE49" offset="100%"></stop>
        </linearGradient>
    </defs>
    <g id="Page-1" stroke="none" stroke-width="1" fill="none" fill-rule="evenodd">
        <g id="home1" transform="translate(-460.000000, -2842.000000)">
            <g id="Group-17" transform="translate(460.000000, 2842.000000)">
                <path d="M109,220.499714 C109,224.089851 89.7482696,227 66.0002865,227 C42.2517304,227 23,224.089851 23,220.499714 C23,216.910149 42.2517304,214 66.0002865,214 C89.7482696,214 109,216.910149 109,220.499714" id="Fill-4" fill="#DCD185"></path>
                <path d="M109,220.499714 C109,224.089851 89.7482696,227 66.0002865,227 C42.2517304,227 23,224.089851 23,220.499714 C23,216.910149 42.2517304,214 66.0002865,214 C89.7482696,214 109,216.910149 109,220.499714" id="Fill-5" fill="#000000" opacity="0.197294776"></path>
                <path d="M32,217 C37.722693,215.234177 50.792272,214 66,214 C52.1580576,214 39.8459779,215.175181 32,217" id="Fill-6" fill="#E8E7E3"></path>
                <path d="M100,217 C92.1538901,215.175181 79.8421752,214 66,214 C81.2079837,214 94.2772107,215.234177 100,217" id="Fill-7" fill="#E8E7E3"></path>
                <path d="M66.5,222 C45.7891552,222 29,220.209263 29,217.999729 C29,217.431206 30.1133806,216.889808 32.1204717,216.399946 C40.0540311,214.940123 52.5035456,214 66.5,214 C80.4964544,214 92.9453908,214.940123 100.87895,216.399946 C102.886041,216.889808 104,217.431206 104,217.999729 C104,220.209263 87.2102667,222 66.5,222" id="Fill-8" fill="#000000" opacity="0.197294776"></path>
                <path d="M110.113905,64.2759358 C133.462745,93.1159058 128.920005,135.349713 99.9665923,158.608105 C86.188658,169.675472 69.3662995,174.447145 53,173.305133 C70.8841929,175.88054 89.7524828,171.327404 104.927386,159.137526 C133.880799,135.879708 138.423538,93.6453269 115.074699,64.8053569 C102.837115,49.6890369 85.365794,41.257877 67.3399464,40 C83.5772595,42.3385155 99.0032252,50.5517122 110.113905,64.2759358" id="Fill-9" fill="#F3DE49"></path>
                <path d="M66.4758193,33 C33.8148029,33 7.20148348,58.8622178 6,91.2173121 C8.76548352,60.3669454 34.6928985,36.1854669 66.2749966,36.1854669 C84.1988514,36.1854669 100.300341,43.9765736 111.382991,56.3531881 C100.741691,46.8318747 86.7134504,41.0165858 71.3254853,40.9441104 C37.8669325,40.7870803 10.5107419,67.9987212 10.5113173,101.444398 C10.5113173,101.67908 10.5124681,101.913763 10.5153452,102.14787 C10.7086874,119.103089 19.2732852,134.974054 33.4862363,144.229624 C42.975539,150.409016 54.3061957,154 66.4763947,154 C99.6806105,154 126.639759,127.271528 126.996522,94.1646455 C127.355586,60.7856922 99.8693493,32.9994248 66.4758193,33" id="Fill-10" fill="url(#linearGradient-1)"></path>
                <path d="M67.2698268,154 C67.247949,154 67.2260711,154 67.2035855,154 C67.2260711,154 67.247949,154 67.2698268,154 M67.3488301,154 C67.3500456,154 67.3524765,154 67.3536919,154 C67.3518687,154 67.3506533,154 67.3488301,154 M67.1811,154 C67.1665147,154 67.1519295,154 67.137952,154 C67.1519295,154 67.1671225,154 67.1811,154 M67.1112124,154 C67.0923731,154 67.0735339,154 67.0553023,154 C67.0741416,154 67.0923731,154 67.1112124,154 M67.0066849,154 C67.004254,154 67.0024309,154 67,154 C67.0018232,154 67.004254,154 67.0066849,154 M73,41.0057491 L72.9987846,41.0057491 C72.9993923,41.0057491 72.9993923,41.0057491 73,41.0057491 M72.9538134,41.0051742 C72.952598,41.0051742 72.9495594,41.0051742 72.9489517,41.0051742 C72.9507748,41.0051742 72.9519903,41.0051742 72.9538134,41.0051742 M72.9076269,41.0045993 C72.9039806,41.0045993 72.900942,41.0045993 72.8972957,41.0045993 C72.9003342,41.0045993 72.9045883,41.0045993 72.9076269,41.0045993 M72.8608326,41.0045993 C72.857794,41.0040244 72.85354,41.0040244 72.8505014,41.0040244 C72.85354,41.0040244 72.8571863,41.0040244 72.8608326,41.0045993 M72.814646,41.0040244 C72.8091765,41.0040244 72.8037071,41.0034495 72.7988453,41.0034495 C72.8037071,41.0034495 72.8097843,41.0040244 72.814646,41.0040244 M72.7678517,41.0034495 C72.7617745,41.0034495 72.7556974,41.0034495 72.7496202,41.0028746 C72.7556974,41.0034495 72.7617745,41.0034495 72.7678517,41.0034495 M72.7210574,41.0028746 C72.7137648,41.0028746 72.7058645,41.0028746 72.6991796,41.0028746 C72.7064722,41.0028746 72.7137648,41.0028746 72.7210574,41.0028746 M72.6742631,41.0022997 C72.6663628,41.0022997 72.6578548,41.0022997 72.6499544,41.0022997 C72.6578548,41.0022997 72.6663628,41.0022997 72.6742631,41.0022997 M72.6268611,41.0022997 C72.6183531,41.0017247 72.6092373,41.0017247 72.6001215,41.0017247 C72.6092373,41.0017247 72.6183531,41.0017247 72.6268611,41.0022997 M72.5800668,41.0017247 C72.5691279,41.0017247 72.558189,41.0017247 72.5472501,41.0017247 C72.558189,41.0017247 72.5691279,41.0017247 72.5800668,41.0017247 M72.5332726,41.0011498 C72.5199028,41.0011498 72.5089638,41.0011498 72.4962018,41.0011498 C72.5083561,41.0011498 72.5211182,41.0011498 72.5332726,41.0011498 M72.4858706,41.0011498 C72.4536615,41.0011498 72.4226679,41.0005749 72.3910665,41.0005749 C72.4226679,41.0005749 72.4536615,41.0011498 72.4858706,41.0011498 M72.3151018,41.0005749 L72.3144941,41.0005749 L72.3151018,41.0005749 M72.2397448,41 L72.2385293,41 C72.239137,41 72.239137,41 72.2397448,41 M71.9996961,41 C72.0015193,41 72.0033424,41 72.0051656,41 L71.9996961,41" id="Fill-11" fill="#CECDC8"></path>
                <path d="M66.9395361,154 C66.9646591,154 66.9892111,154 67.0137631,154 C66.9892111,154 66.9640881,154 66.9395361,154 M91.6805538,148.644097 L91.6788409,148.644097 C92.2606668,148.379062 92.8373538,148.104828 93.4089021,147.821395 C92.8379248,148.104828 92.2618087,148.379637 91.6805538,148.644097 M108.107,112.786111 C108.060751,112.786111 108.015644,112.786111 107.970536,112.785537 C107.238544,107.904513 105.821378,103.248282 103.822386,98.9209009 L103.979976,98.7518761 C104.110159,98.6121719 104.28602,98.5408825 104.461881,98.5408825 C104.616616,98.5408825 104.77078,98.5960743 104.894682,98.7070328 L107.138052,100.721533 C107.418972,100.97392 107.432676,101.415455 107.168313,101.689689 L106.153687,102.743507 C106.36609,103.078107 106.694973,103.353491 106.957623,103.353491 C107.229408,103.353491 107.430963,103.05971 107.362446,102.233558 L107.94941,80.3114968 C108.007079,78.1515434 109.764547,76.4400232 111.897147,76.4400232 C111.93369,76.4400232 111.969661,76.4405981 112.006204,76.4417479 C114.091413,76.4980896 115.751815,78.1728152 115.843172,80.2390575 C115.847168,80.3344933 115.852307,80.4293542 115.849452,80.5259398 C115.849452,80.5259398 116.460398,91.6206379 115.220806,100.77615 C115.093478,101.714985 114.946737,102.633698 114.778299,103.517916 C114.736047,103.738684 114.692652,103.957726 114.647545,104.174469 C113.747685,108.504149 112.277989,111.885221 109.907291,112.558445 C109.311191,112.728045 108.702529,112.786111 108.107,112.786111 M94.744989,85.4265102 C94.1620212,84.8021531 93.561924,84.1910191 92.9486944,83.5965576 L93.7965957,83.9886493 L94.744989,85.4265102 M78.7513436,73.8741802 C72.8468673,71.1646087 66.3382969,69.5600226 59.4842853,69.3202833 C59.3244117,69.1570076 59.1673929,68.9914322 59.0132291,68.8224074 C58.9321503,68.7332957 58.8533554,68.6418843 58.7739896,68.5510478 C58.6734976,68.4360649 58.5730056,68.3210821 58.4747975,68.2032246 C58.3960026,68.1089386 58.3189207,68.0135029 58.2418387,67.9180671 C58.1476275,67.8002096 58.0545582,67.6806274 57.9626308,67.5604703 C57.8929716,67.4690589 57.8227414,67.3782224 57.7547951,67.2850863 C57.6080539,67.085591 57.4647386,66.8837961 57.3259911,66.6785516 C57.2763161,66.6043877 57.2294959,66.5290739 57.1809629,66.4549099 C57.0816128,66.3037074 56.9845467,66.15193 56.8897644,65.997853 C56.8326667,65.9047168 56.7772819,65.8110058 56.7218971,65.7172947 C56.6351086,65.5701167 56.5506039,65.4217887 56.4678122,65.272311 C56.4192791,65.1843491 56.3696041,65.0969621 56.322213,65.0084253 C56.2005948,64.7801843 56.0829735,64.5502185 55.970491,64.3168033 C55.9430841,64.2593118 55.9173901,64.2000956 55.8905542,64.1420293 C55.8020527,63.9528825 55.7158351,63.7625858 55.6336144,63.5699895 C55.5953589,63.4803028 55.5582454,63.3900413 55.5217028,63.3003546 C55.4503307,63.1267305 55.3823844,62.9519565 55.316151,62.7760327 C55.2847472,62.6915203 55.2522015,62.6070079 55.2213688,62.5224954 C55.1311543,62.2689582 55.0443658,62.0142711 54.964429,61.7561345 L54.9313123,61.6428764 C54.862224,61.4157852 54.7977036,61.1863944 54.73718,60.9552788 C54.7143409,60.8684667 54.6932147,60.7810797 54.6720886,60.6936927 C54.6241265,60.4993717 54.5790193,60.3039008 54.5373379,60.10728 C54.5196376,60.0239175 54.5013664,59.9405549 54.484808,59.8566174 C54.4305652,59.5829581 54.3803192,59.308149 54.3380669,59.0310403 L54.3312151,58.979298 C54.3078051,58.8200467 54.2872499,58.6596456 54.2672657,58.4992445 C54.1245213,58.6314748 53.9766382,58.7740536 53.8344649,58.9229564 C53.2349387,59.5490382 52.6593936,61.188694 52.6593936,61.188694 C52.6593936,61.188694 52.5446271,59.899161 53.0802038,58.8119979 C53.3948123,58.1726931 53.8681525,57.7604795 54.1730544,57.5437367 L54.1713415,57.5126914 C53.7471053,57.5868553 53.2372226,57.7346083 52.6959361,58.0203408 C51.2279535,58.7936006 49.9883617,61.2990776 49.9883617,61.2990776 C49.9883617,61.2990776 49.9883617,59.1621208 51.315884,57.7691032 C51.7943629,57.2672029 52.4509869,56.8181948 53.000838,56.487619 C50.7123609,55.9724957 49,53.9177516 49,51.4576929 C49,49.1729831 50.4771183,47.2383961 52.5206461,46.5605721 C52.3253718,45.855727 52.1300976,45.0910909 51.943959,44.2902351 C58.0454225,42.1693759 64.5848256,41.0091986 71.3834524,41 L71.3885912,41 C71.4142852,41 71.4399792,41 71.4656732,41 C71.5130643,41 71.5604554,41 71.6078465,41 L71.6089885,41 C71.6329695,41 71.6558086,41 71.6792187,41.0005749 L71.6797897,41.0005749 C71.7037707,41.0005749 71.7271808,41.0005749 71.7511618,41.0005749 C71.7808527,41.0005749 71.8099725,41.0011498 71.8402343,41.0011498 C71.8430892,41.0011498 71.846515,41.0011498 71.8499409,41.0011498 C71.8619314,41.0011498 71.872209,41.0011498 71.8847705,41.0011498 C71.8893383,41.0011498 71.8933352,41.0017247 71.897903,41.0017247 C71.9081806,41.0017247 71.9184582,41.0017247 71.9287358,41.0017247 C71.9350165,41.0017247 71.9412973,41.0017247 71.947578,41.0017247 C71.9561427,41.0017247 71.9647073,41.0017247 71.972701,41.0022997 C71.9801237,41.0022997 71.9869755,41.0022997 71.9943982,41.0022997 C72.0018209,41.0022997 72.0098146,41.0022997 72.0172373,41.0022997 C72.02466,41.0022997 72.0326536,41.0028746 72.0406473,41.0028746 C72.0469281,41.0028746 72.0543508,41.0028746 72.0612025,41.0028746 C72.0703381,41.0028746 72.0789028,41.0028746 72.0880384,41.0028746 C72.0937482,41.0034495 72.099458,41.0034495 72.1051678,41.0034495 C72.1148744,41.0034495 72.12401,41.0034495 72.1342876,41.0034495 C72.1388554,41.0034495 72.1439942,41.0040244 72.149133,41.0040244 C72.1605526,41.0040244 72.1714011,41.0040244 72.1828207,41.0040244 C72.1856756,41.0040244 72.1896724,41.0040244 72.1925273,41.0045993 C72.2039468,41.0045993 72.2153664,41.0045993 72.2267859,41.0045993 C72.2302118,41.0045993 72.2330667,41.0045993 72.2364925,41.0045993 C72.249625,41.0051742 72.2621865,41.0051742 72.275319,41.0051742 C72.27589,41.0051742 72.2787449,41.0051742 72.2798868,41.0051742 C72.2935903,41.0057491 72.3084357,41.0057491 72.3221391,41.0057491 L72.3232811,41.0057491 C79.6346455,41.1098087 86.6285466,42.531572 93.085158,45.0427981 C92.9663947,45.5498726 92.8470604,46.0425742 92.7288681,46.5082549 C94.8603264,47.1326119 96.4196655,49.1103174 96.4196655,51.4576929 C96.4196655,53.9177516 94.7073045,55.9724957 92.4188275,56.487619 C92.9686786,56.8181948 93.6253025,57.2672029 94.1037815,57.7691032 C95.4313037,59.1621208 95.4313037,61.2990776 95.4313037,61.2990776 C95.4313037,61.2990776 94.191712,58.7936006 92.7237294,58.0203408 C92.1813009,57.7346083 91.6714182,57.5862804 91.2466111,57.5121164 L91.2448981,57.5425869 C91.5498,57.7593296 92.0242821,58.1715433 92.3394616,58.8119979 C92.8744674,59.899161 92.7602719,61.188694 92.7602719,61.188694 C92.7602719,61.188694 92.1847268,59.5490382 91.5852006,58.9229564 C91.4430272,58.7746285 91.2962861,58.6326246 91.1546837,58.5015441 C91.1409803,58.6125026 91.122709,58.7217363 91.1067216,58.8321199 C91.0930182,58.9304303 91.0798857,59.0287406 91.0644693,59.1259012 C91.0290687,59.3495429 90.9891003,59.5714598 90.946277,59.792227 C90.9342865,59.8531679 90.9245799,59.9146837 90.9125893,59.9750497 C90.8554916,60.2533083 90.7915421,60.5292672 90.7224539,60.8029265 C90.7030407,60.8793901 90.6807725,60.9547039 90.6607883,61.0311675 C90.6076874,61.229513 90.5528736,61.4267086 90.494063,61.6227544 C90.4643721,61.7210648 90.4329684,61.8188002 90.4015646,61.9165357 C90.3456089,62.0913096 90.2873692,62.2649338 90.2262746,62.4374081 C90.192016,62.5357185 90.1571863,62.6334539 90.1212148,62.7311894 C90.0538395,62.9122874 89.9824673,63.0916607 89.9099532,63.2704591 C89.8768365,63.3520969 89.8448618,63.4343097 89.8106031,63.5153726 C89.7032594,63.7683349 89.5913478,64.0184227 89.4737265,64.265061 C89.4480325,64.3191029 89.4200546,64.3714201 89.3943607,64.4248872 C89.2984365,64.6197832 89.2007994,64.8141042 89.0985944,65.0055507 C89.0500613,65.0969621 88.9992444,65.1866488 88.9495693,65.2769103 C88.8644937,65.4298375 88.7782761,65.5816149 88.6892037,65.7322425 C88.6332479,65.8271034 88.5761502,65.9213894 88.5184815,66.0156753 C88.4276961,66.1628534 88.3340558,66.3088817 88.2392736,66.4537601 C88.1821758,66.5411471 88.1256491,66.6296839 88.0668384,66.716496 C87.9480751,66.89127 87.825315,67.0637443 87.700842,67.2344938 L87.5900724,67.3891458 C87.4319117,67.6018641 87.2686121,67.8099832 87.1013158,68.0152276 C87.0345114,68.0974404 86.9654232,68.1773535 86.8974769,68.2584164 C86.7895622,68.3866223 86.6805055,68.5148282 86.568594,68.6401596 C86.4909411,68.7281215 86.4115752,68.8149335 86.3316384,68.9011707 C86.2237237,69.0184532 86.114667,69.1334361 86.0038974,69.2472692 C85.9222477,69.3323565 85.8400269,69.4168689 85.7566642,69.4996566 C85.636188,69.6186639 85.5134279,69.7353715 85.3900968,69.8515042 C85.3141568,69.9227936 85.2393588,69.9958077 85.1622769,70.0665222 C84.9704285,70.2401463 84.7757252,70.4108959 84.5770251,70.5764712 C84.4942334,70.645461 84.4091578,70.7115761 84.3257951,70.779416 C84.1973252,70.8829006 84.0688553,70.9858103 83.9375305,71.0858454 C83.8393224,71.1611592 83.7394014,71.2341733 83.6394804,71.3077624 C83.5184332,71.3962992 83.396244,71.4842611 83.2729129,71.5699233 C83.1689951,71.6423625 83.0645062,71.7142268 82.9588754,71.7849413 C82.8326894,71.8694537 82.7042195,71.9510916 82.5757496,72.0321545 C82.4724028,72.0976947 82.3696268,72.1638099 82.264567,72.2276254 C82.0955577,72.3293852 81.9242645,72.4276956 81.7512584,72.5242812 C81.6147948,72.6013198 81.4766183,72.6760586 81.3372999,72.7496477 C81.181994,72.8318604 81.0261172,72.9140732 80.8679565,72.9916866 C80.754332,73.0474533 80.6395656,73.1003455 80.5247992,73.1538125 C80.3900485,73.2170531 80.2547269,73.2791438 80.1182633,73.3389349 C79.9977871,73.3918271 79.8767399,73.4429944 79.7545508,73.4935869 C79.6186582,73.5499285 79.4810526,73.6039705 79.3428761,73.6568626 C79.2218289,73.7034307 79.1007817,73.7505736 78.9785926,73.7948421 C78.9032236,73.821863 78.8272836,73.8483091 78.7513436,73.8741802" id="Fill-12" fill="#C2B23F"></path>
                <path d="M93.9994242,43 C85.9903993,38.8093406 76.9708899,36.4140771 67.4210921,36.3311294 C76.9697384,36.4140771 85.9927024,38.8051331 94,42.9951914 C94,42.9969947 93.9994242,42.9981968 93.9994242,43 M51.0005758,38.5346517 C51.0005758,38.5340506 51,38.5334495 51,38.5322474 C55.9499344,37.1293502 61.1514823,36.3653904 66.5188533,36.3299273 C61.1514823,36.3653904 55.9499344,37.1317545 51.0005758,38.5346517 M67.418789,36.3311294 C67.40094,36.3305283 67.3836667,36.3305283 67.3658177,36.3305283 C67.383091,36.3305283 67.4015158,36.3305283 67.418789,36.3311294 M67.3577569,36.3305283 C67.3433625,36.3305283 67.3278166,36.3305283 67.3128465,36.3299273 C67.3272408,36.3305283 67.3439383,36.3305283 67.3577569,36.3305283 M67.2967248,36.3299273 C67.283482,36.3299273 67.2713907,36.3299273 67.2581479,36.3299273 C67.2713907,36.3299273 67.283482,36.3299273 67.2967248,36.3299273 M66.5217321,36.3299273 C66.5637637,36.3299273 66.6029164,36.3293262 66.6455237,36.3293262 C66.6040679,36.3293262 66.5631879,36.3299273 66.5217321,36.3299273 M67.2397231,36.3299273 C67.2276318,36.3293262 67.2161163,36.3293262 67.2034493,36.3293262 C67.2155406,36.3293262 67.2276318,36.3293262 67.2397231,36.3299273 M67.1832972,36.3293262 C67.1717817,36.3293262 67.1602662,36.3293262 67.1481749,36.3293262 C67.1602662,36.3293262 67.1717817,36.3293262 67.1832972,36.3293262 M66.6541603,36.3293262 C66.6714335,36.3293262 66.6898583,36.3293262 66.7071316,36.3293262 C66.6892826,36.3293262 66.6720093,36.3293262 66.6541603,36.3293262 M67.1280228,36.3293262 C67.1165073,36.3293262 67.1049918,36.3293262 67.0934763,36.3293262 C67.1044161,36.3293262 67.1170831,36.3293262 67.1280228,36.3293262 M66.716344,36.3293262 C66.7359203,36.3287251 66.7560724,36.3287251 66.7756488,36.3287251 C66.7560724,36.3287251 66.7359203,36.3287251 66.716344,36.3293262 M67.0727485,36.3287251 C67.0606572,36.3287251 67.0491417,36.3287251 67.0370504,36.3287251 C67.0479901,36.3287251 67.0618087,36.3287251 67.0727485,36.3287251 M66.7854369,36.3287251 C66.8009828,36.3287251 66.8176803,36.3287251 66.8326504,36.3287251 C66.8171045,36.3287251 66.8015586,36.3287251 66.7854369,36.3287251 M67.0174741,36.3287251 C67.0042313,36.3287251 66.99214,36.3287251 66.979473,36.3287251 C66.9927158,36.3287251 67.0042313,36.3287251 67.0174741,36.3287251 M66.8499237,36.3287251 C66.8689242,36.3287251 66.8879248,36.3287251 66.9075011,36.3287251 C66.9259259,36.3287251 66.9437749,36.3287251 66.9621997,36.3287251 C66.9437749,36.3287251 66.9259259,36.3287251 66.9075011,36.3287251 C66.8879248,36.3287251 66.8689242,36.3287251 66.8499237,36.3287251 M65.7904984,33.0144257 C65.7922257,33.0144257 65.7928015,33.0144257 65.7945288,33.0144257 C65.7922257,33.0144257 65.7928015,33.0144257 65.7904984,33.0144257 M65.8572882,33.0132235 C65.857864,33.0132235 65.857864,33.0132235 65.8584398,33.0132235 C65.8561367,33.0132235 65.8595913,33.0132235 65.8572882,33.0132235 M65.9235023,33.0120214 C65.9235023,33.0114203 65.9246539,33.0114203 65.9246539,33.0114203 C65.9229265,33.0120214 65.9252296,33.0114203 65.9235023,33.0120214 M65.9833829,33.0108193 C65.9868375,33.0102182 65.9902922,33.0102182 65.9937468,33.0102182 C65.9920195,33.0102182 65.985686,33.0102182 65.9833829,33.0108193 M66.1169626,33.008415 C66.120993,33.0078139 66.1238719,33.0078139 66.1273265,33.0078139 C66.1232961,33.0078139 66.120993,33.0078139 66.1169626,33.008415 M66.1785705,33.0072128 C66.1831767,33.0072128 66.1866313,33.0072128 66.1906617,33.0072128 C66.1866313,33.0072128 66.1826009,33.0072128 66.1785705,33.0072128 M66.2511181,33.0060107 C66.2528454,33.0060107 66.2557243,33.0060107 66.2574516,33.0060107 C66.2539969,33.0060107 66.2551485,33.0060107 66.2511181,33.0060107 M66.3104229,33.0054096 C66.3161806,33.0054096 66.3219384,33.0048086 66.3271203,33.0048086 C66.3213626,33.0048086 66.3161806,33.0054096 66.3104229,33.0054096 M66.3720307,33.0042075 C66.3772127,33.0042075 66.3823947,33.0042075 66.3875767,33.0042075 C66.3835462,33.0042075 66.3760612,33.0042075 66.3720307,33.0042075 M66.4451541,33.0036064 C66.4497603,33.0036064 66.4555181,33.0036064 66.4601243,33.0036064 C66.4543665,33.0036064 66.4509119,33.0036064 66.4451541,33.0036064 M66.5044589,33.0030053 C66.5113682,33.0030053 66.5177017,33.0030053 66.5240352,33.0030053 C66.5182775,33.0030053 66.5107924,33.0030053 66.5044589,33.0030053 M67.6847969,33.0030053 L67.6813422,33.0024043 C67.6824938,33.0024043 67.6836453,33.0030053 67.6847969,33.0030053 M67.6300983,33.0024043 C67.628371,33.0024043 67.623189,33.0024043 67.6208859,33.0024043 C67.6243405,33.0024043 67.6272194,33.0024043 67.6300983,33.0024043 M66.5804612,33.0024043 C66.5804612,33.0024043 66.5810369,33.0024043 66.5816127,33.0024043 L66.5804612,33.0024043 M67.5742481,33.0018032 C67.5725208,33.0018032 67.5667631,33.0018032 67.5650358,33.0018032 C67.5679146,33.0018032 67.5713693,33.0018032 67.5742481,33.0018032 M66.6403417,33.0018032 C66.6460995,33.0018032 66.6518572,33.0018032 66.6581907,33.0018032 C66.6518572,33.0018032 66.6460995,33.0018032 66.6403417,33.0018032 M67.5201253,33.0012021 C67.5160949,33.0012021 67.5120645,33.0012021 67.5074583,33.0012021 C67.5120645,33.0012021 67.5160949,33.0012021 67.5201253,33.0012021 M66.7007981,33.0012021 C66.7071316,33.0012021 66.7128893,33.0012021 66.7192228,33.0012021 C66.7134651,33.0012021 66.7071316,33.0012021 66.7007981,33.0012021 M66.7762245,33.0006011 C66.7802549,33.0006011 66.7842854,33.0006011 66.7883158,33.0006011 C66.7842854,33.0006011 66.7802549,33.0006011 66.7762245,33.0006011 M67.3980611,33.0006011 C67.395758,33.0006011 67.3917276,33.0006011 67.3894245,33.0006011 C67.3923034,33.0006011 67.3951822,33.0006011 67.3980611,33.0006011 M66.8361051,33.0006011 C66.8418628,33.0006011 66.8476206,33.0006011 66.8533783,33.0006011 C66.8476206,33.0006011 66.8418628,33.0006011 66.8361051,33.0006011 M67.3439383,33.0006011 C67.3399079,33.0006011 67.331847,33 67.3278166,33 C67.3335744,33 67.3381806,33 67.3439383,33.0006011 M66.9023192,33 C66.9063496,33 66.9098042,33 66.9132589,33 C66.9115316,33 66.9046223,33 66.9023192,33 M67.2903913,33 C67.2846335,33 67.2771484,33 67.2713907,33 C67.2777242,33 67.2840577,33 67.2903913,33 M66.9731394,33 C66.9771699,33 66.9806245,33 66.9846549,33 C66.9812003,33 66.9771699,33 66.9731394,33 M67.2345411,33 C67.2287834,33 67.2230256,33 67.2172679,33 C67.2230256,33 67.2287834,33 67.2345411,33 M67.0341716,33 C67.0387778,33 67.0439597,33 67.0485659,33 C67.0445355,33 67.0376262,33 67.0341716,33 M67.178691,33 C67.1746606,33 67.1665997,33 67.1625693,33 C67.1677513,33 67.173509,33 67.178691,33" id="Fill-13" fill="#CECDC8"></path>
                <path d="M94.4915701,43 C86.4199551,38.8079259 77.3245155,36.4157195 67.6991713,36.332732 C67.6985909,36.332732 67.6974301,36.332732 67.6968497,36.332732 C67.6794377,36.3321306 67.6608649,36.3321306 67.6434529,36.3321306 C67.6411313,36.3321306 67.6376489,36.3321306 67.6353273,36.3321306 C67.6213977,36.3321306 67.6045662,36.3321306 67.5900562,36.3315293 C67.5848326,36.3315293 67.5790286,36.3315293 67.573805,36.3315293 C67.5604558,36.3315293 67.5482674,36.3315293 67.5349182,36.3315293 C67.5291142,36.3315293 67.5227298,36.3315293 67.5163454,36.3315293 C67.5041571,36.3309279 67.4919687,36.3309279 67.4797803,36.3309279 C67.4733959,36.3309279 67.4664311,36.3309279 67.4594663,36.3309279 C67.4478583,36.3309279 67.4362503,36.3309279 67.4240619,36.3309279 C67.4176775,36.3309279 67.4107128,36.3309279 67.403748,36.3309279 C67.3927204,36.3309279 67.3799516,36.3309279 67.368924,36.3309279 C67.3619592,36.3309279 67.354414,36.3303265 67.3480296,36.3303265 C67.337002,36.3303265 67.3230724,36.3303265 67.3120448,36.3303265 C67.3056605,36.3303265 67.2986957,36.3303265 67.2923113,36.3303265 C67.2789621,36.3303265 67.2673541,36.3303265 67.2540049,36.3303265 C67.2482009,36.3303265 67.2418165,36.3303265 67.2365929,36.3303265 C67.2180201,36.3303265 67.2000278,36.3303265 67.181455,36.3303265 C67.1617214,36.3303265 67.1425682,36.3303265 67.123415,36.3303265 C67.117611,36.3303265 67.111807,36.3303265 67.106003,36.3303265 C67.0909127,36.3303265 67.0740811,36.3303265 67.0584103,36.3303265 C67.0555083,36.3303265 67.0520259,36.3303265 67.0485435,36.3303265 C67.0288099,36.3303265 67.0084959,36.3303265 66.9887624,36.3309279 C66.9858604,36.3309279 66.9829584,36.3309279 66.979476,36.3309279 C66.962064,36.3309279 66.9434912,36.3309279 66.9260792,36.3309279 C66.9231772,36.3309279 66.9202752,36.3309279 66.9173732,36.3309279 C66.8744237,36.3309279 66.8349565,36.3315293 66.7925874,36.3315293 C66.7914266,36.3315293 66.7908462,36.3315293 66.7896854,36.3315293 C61.3792018,36.3670094 56.1358733,37.1313368 51.1461793,38.5349089 C51.1264457,38.3136088 51.0980062,38.0947141 51.0823354,37.8722112 C51.020813,37.0164772 50.9941147,36.1577365 51.0010795,35.304408 C55.8067868,33.9200794 60.8510383,33.1298936 66.0554801,33.0144326 C66.0578017,33.0144326 66.0572213,33.0144326 66.0595429,33.0144326 C66.0804372,33.0138313 66.101912,33.0132299 66.1228064,33.0132299 C66.125128,33.0132299 66.1216456,33.0132299 66.1239672,33.0132299 C66.1460224,33.0126285 66.1674972,33.0120272 66.1895523,33.0120272 C66.1912935,33.0114258 66.1889719,33.0120272 66.1907131,33.0114258 C66.2104467,33.0114258 66.2307607,33.0108245 66.2499139,33.0108245 C66.2522355,33.0102231 66.2586199,33.0102231 66.2603611,33.0102231 C66.3021498,33.0096217 66.3433582,33.0090204 66.3845665,33.008419 C66.3886293,33.0078177 66.3909509,33.0078177 66.3950137,33.0078177 C66.4118453,33.0078177 66.4298377,33.0072163 66.4466693,33.0072163 C66.4507321,33.0072163 66.4547949,33.0072163 66.4588577,33.0072163 C66.4791717,33.0066149 66.4994856,33.0066149 66.5197996,33.0060136 C66.5238624,33.0060136 66.5227016,33.0060136 66.526184,33.0060136 C66.5441764,33.0054122 66.5615884,33.0054122 66.5795808,33.0054122 C66.5853848,33.0054122 66.5906083,33.0048109 66.5964123,33.0048109 C66.6115027,33.0048109 66.6265931,33.0048109 66.6416835,33.0042095 C66.6457463,33.0042095 66.6532915,33.0042095 66.6573543,33.0042095 C66.6770879,33.0042095 66.6956606,33.0036082 66.7153942,33.0036082 C66.7211982,33.0036082 66.7246806,33.0036082 66.7304846,33.0036082 C66.745575,33.0030068 66.7606654,33.0030068 66.7751754,33.0030068 C66.7815598,33.0030068 66.789105,33.0030068 66.7949089,33.0030068 C66.8140621,33.0024054 66.8326349,33.0024054 66.8517881,33.0024054 L66.8529489,33.0024054 C66.8726825,33.0018041 66.8924161,33.0018041 66.9121496,33.0018041 C66.9179536,33.0018041 66.9237576,33.0018041 66.930142,33.0018041 C66.9440716,33.0012027 66.959162,33.0012027 66.9730916,33.0012027 C66.979476,33.0012027 66.9858604,33.0012027 66.9916644,33.0012027 C67.0108175,33.0012027 67.0299707,33.0006014 67.0491239,33.0006014 C67.0531867,33.0006014 67.0572495,33.0006014 67.0613123,33.0006014 C67.0769831,33.0006014 67.0932343,33.0006014 67.1094854,33.0006014 C67.1152894,33.0006014 67.1210934,33.0006014 67.1268974,33.0006014 C67.143729,33.0006014 67.1599802,33 67.1762314,33 C67.178553,33 67.1855178,33 67.187259,33 C67.2069925,33 67.2278869,33 67.2476205,33 C67.2516833,33 67.2557461,33 67.2592285,33 C67.2760601,33 67.2923113,33 67.3091428,33 C67.3126252,33 67.31959,33 67.3236528,33 C67.3439668,33 67.3642808,33 67.3840144,33 C67.4025872,33 67.4199991,33 67.4385719,33 C67.4426347,33 67.4507603,33 67.4548231,33 C67.4675919,33 67.4809411,33 67.4937099,33 C67.4995139,33 67.5053179,33 67.5111219,33 C67.5233102,33 67.536079,33 67.5482674,33 C67.5540714,33 67.5616166,33 67.5674206,33 C67.5801894,33 67.5923778,33 67.6051466,33 C67.6092094,33 67.617335,33.0006014 67.6213977,33.0006014 C67.6364881,33.0006014 67.6521589,33.0006014 67.6672493,33.0006014 C67.6695709,33.0006014 67.6736337,33.0006014 67.6759553,33.0006014 C67.7125205,33.0006014 67.749666,33.0012027 67.7862312,33.0012027 C67.7908744,33.0012027 67.7949372,33.0012027 67.799,33.0012027 C67.8140904,33.0012027 67.8291807,33.0018041 67.8442711,33.0018041 C67.8460123,33.0018041 67.8518163,33.0018041 67.8535575,33.0018041 C67.8692283,33.0018041 67.8848991,33.0018041 67.9005699,33.0024054 C67.9028915,33.0024054 67.9081151,33.0024054 67.9098563,33.0024054 C67.9278486,33.0024054 67.9440998,33.0024054 67.9615118,33.0024054 L67.9649942,33.0030068 C77.6599864,33.0992242 86.8488703,35.6032834 95,39.9541163 C94.8543197,40.9896566 94.6807803,42.0113657 94.4915701,43" id="Fill-14" fill="#C2B23F"></path>
                <path d="M66.3331222,154 C66.3336907,154 66.3342592,154 66.3353963,154 C66.3393759,154 66.3382389,154 66.3422185,154 C66.3388074,154 66.3365333,154 66.3331222,154 M66.4138525,154 C66.4195377,154 66.4206748,154 66.42636,154 C66.4223803,154 66.4178321,154 66.4138525,154 M66.4996995,154 C66.5019736,154 66.5059533,154 66.5082273,154 C66.5053847,154 66.5025421,154 66.4996995,154 M66.0022416,154 C54.0740542,153.949563 42.9696571,150.337198 33.660088,144.152525 C33.0978185,143.779171 32.5446453,143.394803 32,143 C32.5446453,143.394803 33.0978185,143.779171 33.660088,144.152525 C42.9696571,150.337198 54.0740542,153.949563 66.0022416,154 M66.5804298,153.99942 C66.5821354,153.99942 66.5844095,153.99942 66.5866836,153.99942 C66.5838409,153.99942 66.5827039,153.99942 66.5804298,153.99942 M66.6617286,153.998841 C66.6657083,153.998841 66.6679824,153.998841 66.6719621,153.998841 C66.6685509,153.998841 66.6651398,153.998841 66.6617286,153.998841 M66.7458701,153.998261 C66.7481442,153.998261 66.7532609,153.998261 66.755535,153.998261 C66.7526924,153.998261 66.7487127,153.998261 66.7458701,153.998261 M66.9107418,153.996522 C66.9124474,153.996522 66.9147215,153.996522 66.9169956,153.996522 C66.914153,153.996522 66.9130159,153.996522 66.9107418,153.996522 M66.9937462,153.995942 C66.9960203,153.995942 66.9982944,153.995942 67,153.995362 C66.9982944,153.995362 66.9954518,153.995942 66.9937462,153.995942" id="Fill-15" fill="#FBE8D5"></path>
                <path d="M66.9639553,154 C66.9570426,154 66.9501299,154 66.9426412,154 C66.9501299,154 66.9570426,154 66.9639553,154 M67.1085456,154 C68.7716227,153.997693 70.4179941,153.925006 72.0470839,153.791172 L72.8483794,145.742633 L73.6341214,153.639454 C79.8993193,152.958743 85.8776408,151.32273 91.421039,148.87794 L91.4291038,148.627577 L91.4291038,148.625847 L91.9861511,148.625847 C84.5913051,151.979789 76.4038043,153.890394 67.7819565,153.995385 C67.7802283,153.995962 67.7779241,153.995962 67.7756198,153.995962 C67.7496973,153.995962 67.7237747,153.996539 67.6978521,153.996539 C67.6955479,153.996539 67.6932437,153.996539 67.6915155,153.996539 C67.6390943,153.997116 67.5866731,153.997693 67.5342519,153.998269 C67.5319477,153.998269 67.5267631,153.998269 67.5244589,153.998269 C67.4996885,153.998269 67.474918,153.998846 67.4495715,153.998846 C67.4455391,153.998846 67.4432349,153.998846 67.4392025,153.998846 C67.4138559,153.998846 67.3885094,153.999423 67.3631629,153.999423 C67.3608587,153.999423 67.3585544,153.999423 67.3568263,153.999423 C67.3320558,153.999423 67.3078614,153.999423 67.283667,154 C67.2813628,154 67.2773304,154 67.2750262,154 C67.2508318,154 67.2254852,154 67.2007148,154 C67.1949542,154 67.1938021,154 67.1880415,154 C67.1632711,154 67.1396527,154 67.1154583,154 C67.1114259,154 67.112578,154 67.1085456,154 M66.9017411,154 C66.8931002,154 66.8844594,154 66.8763946,154 C66.8844594,154 66.8931002,154 66.9017411,154 M66.8233973,154 C66.8078438,154 66.7928663,154 66.7773128,154 C66.7922902,154 66.8084198,154 66.8233973,154 M66.7709761,154 C54.6847204,153.949812 43.4331715,150.355313 34.0002351,144.201227 C33.4305146,143.829721 32.8700109,143.447253 32.3181482,143.054403 C19.1120372,133.651942 11.2062285,118.351526 11.0046085,102.046774 C11.0040324,102.030045 11.0040324,102.013892 11.0040324,101.997163 C11.0011521,101.762376 11,101.527011 11,101.291647 C11,100.507099 11.0195859,99.7277429 11.0495409,98.9506943 C19.1610021,81.2747139 36.9940043,69 57.6923149,69 C58.2994792,69 58.9031871,69.0109606 59.5051669,69.031728 C59.5068951,69.0334587 59.5086232,69.0351893 59.5097753,69.036343 C59.6019445,69.1297965 59.6964179,69.2203657 59.7903152,69.3115117 C59.8859407,69.4043883 59.9821422,69.4972649 60.0794959,69.5878341 C60.1803059,69.6818645 60.281692,69.7747411 60.3842301,69.8658871 C60.4810077,69.9524181 60.5795135,70.0372185 60.6785954,70.121442 C60.8249139,70.2466236 60.9723845,70.3694976 61.1227354,70.4906411 C61.2586849,70.5996702 61.3952105,70.7092761 61.5351924,70.814844 C61.6498278,70.9019519 61.7667674,70.9855985 61.883707,71.0703989 C61.9804846,71.1402006 62.0772622,71.2094254 62.1751919,71.2774965 C62.29674,71.3622969 62.4188641,71.4453667 62.5421403,71.5267058 C62.638918,71.5901619 62.7362716,71.6518874 62.8342013,71.7141897 C63.0617439,71.8584081 63.2927429,71.9974346 63.5271981,72.132423 C63.6199433,72.1860722 63.7121125,72.2408752 63.8060098,72.2927938 C63.939079,72.3666336 64.0750285,72.4364353 64.2104019,72.5068139 C64.3100598,72.5587325 64.4097177,72.6106511 64.5105277,72.6608391 C64.6476293,72.7289102 64.785307,72.7958275 64.9241368,72.8604373 C65.0260989,72.9083178 65.1286371,72.9538908 65.2311753,72.9994638 C65.6643703,73.1927165 66.105054,73.3715472 66.5543786,73.5319181 L66.5543786,76.892783 C66.5543786,76.892783 64.4264234,77.2960175 63.9863157,78.0090332 L63.9857396,78.0107638 C62.8923831,78.2893937 61.823797,78.6637846 60.7949589,79.1368208 L50.7600428,83.750078 L41.8173311,107.44631 L41.0920751,107.153835 C41.031013,107.12903 40.9687989,107.117492 40.9083129,107.117492 C40.6663688,107.117492 40.4457389,107.304399 40.3800684,107.595143 L39.7285477,110.497394 C39.7089618,110.583348 39.7055055,110.669879 39.7147224,110.753526 C39.7435252,111.005043 39.892724,111.228293 40.1104737,111.311362 L40.3276472,111.393855 L39.6680617,113.140628 L39.6473237,113.197739 C39.3518064,113.996708 39.1951188,114.821061 39.1686202,115.639644 C39.1617075,115.844434 39.1634357,116.048647 39.1726526,116.252861 C39.1824455,116.45592 39.1997273,116.65898 39.2250738,116.860885 C39.2763429,117.263543 39.358143,117.661586 39.4704741,118.050975 C39.6841913,118.788796 40.0096637,119.493159 40.4342178,120.142142 L37.6697194,122.487709 C37.0377846,123.024202 36.9594409,123.971428 37.494598,124.604258 L37.6887293,124.833854 L37.6881532,124.835007 L39.3109063,126.752535 L39.3114823,126.751958 L49.4074605,138.684009 C49.6753271,139.000713 50.0457319,139.17839 50.4282339,139.210118 C50.4679818,139.213002 50.5077297,139.214733 50.5474777,139.214733 C50.8608528,139.214733 51.1742279,139.113203 51.4420945,138.913605 L49.6004397,146.026455 C49.2599899,147.342303 50.2519604,148.625847 51.6091511,148.625847 L54.267655,148.625847 L54.3966918,152.670883 C58.3904962,153.519464 62.5277389,153.982117 66.7709761,154 M93.7316044,147.800341 C94.2569685,147.541325 94.7777242,147.274809 95.2938715,147.001371 C95.329587,146.843884 95.3526293,146.682937 95.349749,146.51622 C95.3468687,146.355273 95.3249785,146.191441 95.2823503,146.026455 L90.7873761,128.664294 L93.153243,96.8076093 L98.5209438,104.835381 L97.6078932,105.80972 C97.3590365,106.075659 97.364221,106.492738 97.6205664,106.747716 L99.6505919,108.773119 C99.7790527,108.901185 99.9461093,108.965218 100.114318,108.965218 C100.287711,108.965218 100.461104,108.897147 100.592445,108.761005 L100.953057,108.388921 C101.04177,108.485259 101.151797,108.604672 101.280258,108.741968 C101.383372,108.852728 101.496855,108.973294 101.614371,109.097322 C101.673129,109.159624 101.733039,109.222503 101.794101,109.28596 C102.097107,109.602663 102.413938,109.925712 102.666251,110.163961 L102.80969,110.295488 L102.933542,110.402787 C104.06319,111.334437 104.84778,111.883621 105.614512,112.20667 C105.976852,112.359541 106.336312,112.463379 106.72515,112.529719 C106.915249,112.562024 107.112837,112.586253 107.321369,112.603559 C107.65433,112.631826 108.015518,112.643363 108.422791,112.645094 C108.802988,115.168338 109,117.752155 109,120.380967 C109,127.623037 107.501099,134.513214 104.801695,140.761907 C101.392589,143.487635 97.6833566,145.853393 93.7316044,147.800341 M49.0739234,112.810657 L49.5059663,111.244445 C49.5906467,110.936395 49.4639141,110.612192 49.2277307,110.458743 L52.1708068,102.744791 L52.6904104,109.742267 L49.0739234,112.810657 M104.132317,98.8462802 L95.0795782,85.1928386 C98.8089724,89.1651894 101.913345,93.7299893 104.237735,98.733213 L104.132317,98.8462802 M93.2673023,83.3566503 L84.0878311,79.1368208 C83.059569,78.6637846 81.9904069,78.2893937 80.8970504,78.0107638 L80.8970504,78.0090332 C80.4621272,77.3046706 78.3842889,76.9031667 78.3335959,76.8933598 L78.3335959,73.8007411 C78.4574482,73.7632443 78.5795723,73.7211326 78.7022725,73.6807514 C78.7823444,73.6542152 78.8629924,73.6276791 78.9436404,73.6011429 C84.268137,76.030934 89.1047131,79.3444953 93.2673023,83.3566503" id="Fill-16" fill="#F0CD4B"></path>
                <path d="M67,153 C67.004,153 67.008,153 67.012,153 C67.01,153 67.009,153 67.008,153 C67.006,153 67.002,153 67,153" id="Fill-17" fill="#D0C0B0"></path>
                <path d="M66.7685569,154 C66.7479013,154 66.7272457,154 66.7060163,154 C66.6991311,154 66.6922459,154 66.6847869,154 C66.6715903,154 66.6572461,154 66.6440495,154 C66.635443,154 66.6268365,154 66.6188038,154 C66.601017,154 66.583804,154 66.5660172,154 C66.5510993,154 66.5350338,154 66.5201159,154 C66.5178208,154 66.5155258,154 66.5138045,154 C62.2874395,153.98211 58.1666477,153.519285 54.1887237,152.670387 L54.0602,148.62384 L51.412267,148.62384 C50.0604729,148.62384 49.0724467,147.339817 49.4115428,146.023477 L51.2458747,138.907971 C50.9790732,139.107644 50.6669442,139.209212 50.3548151,139.209212 C50.3152252,139.209212 50.2756353,139.20748 50.2360454,139.204595 C49.8550644,139.172855 49.4861325,138.995112 49.219331,138.67829 L39.1634972,126.741783 L39.1629234,126.74236 L37.5466228,124.824117 L37.5471966,124.822963 L37.3538373,124.593281 C36.8208081,123.960215 36.8988403,123.012635 37.5282623,122.475942 L40.2817683,120.129499 C39.8589023,119.480274 39.5347242,118.775648 39.3218568,118.037552 C39.2099723,117.648017 39.1284974,117.249825 39.0774322,116.847017 C39.0521865,116.645036 39.0349735,116.441901 39.0252194,116.238765 C39.0160392,116.034476 39.0143179,115.830187 39.0212031,115.62532 C39.0475963,114.806431 39.2036608,113.981771 39.4980031,113.182503 L39.5186587,113.125371 L40.1756215,111.377946 L39.9593115,111.295422 C39.7424277,111.212321 39.5938222,110.988988 39.5651338,110.737377 C39.5559536,110.653699 39.5593962,110.567136 39.5789042,110.48115 L40.2278343,107.577815 C40.2932437,107.286963 40.5129963,107.099986 40.7539783,107.099986 C40.8142238,107.099986 40.8761905,107.111528 40.9370098,107.136342 L41.659382,107.428926 L50.566535,83.723846 L60.5615495,79.1088661 C61.5862967,78.6356532 62.6506338,78.2611225 63.7396429,77.9823886 L63.7402166,77.9806573 C64.1785743,77.2673755 66.2980682,76.8639903 66.2980682,76.8639903 L66.2980682,73.5018704 C65.8505303,73.3414397 65.4115988,73.1625422 64.9801263,72.9692174 C64.8779958,72.9236274 64.7758654,72.8780374 64.6743087,72.830139 C64.5360309,72.765505 64.3989007,72.6985627 64.2623443,72.6304662 C64.1619351,72.5802595 64.0626735,72.5283215 63.9634118,72.4763835 C63.8285767,72.4059786 63.6931678,72.3361509 63.5606277,72.2622835 C63.4671037,72.2103455 63.3753011,72.1555221 63.2829246,72.1018528 C63.0494016,71.966814 62.8193212,71.8277356 62.5926834,71.6834633 C62.4951431,71.6211377 62.3981765,71.5593892 62.3017837,71.4959095 C62.1789977,71.4145399 62.0573591,71.3314391 61.9362944,71.2466071 C61.838754,71.1785106 61.7423613,71.1092599 61.6459685,71.0394321 C61.5294938,70.9546001 61.4130192,70.8709222 61.2988397,70.7837818 C61.1594144,70.6781745 61.0234317,70.5685276 60.8880228,70.4594578 C60.7382697,70.3382691 60.5913854,70.2153492 60.4456487,70.0901209 C60.3469608,70.0058659 60.2488467,69.9210339 60.1524539,69.8344705 C60.0503235,69.7432905 59.9493406,69.6503792 59.8489314,69.5563137 C59.7519648,69.4657107 59.6561458,69.3727994 59.5609006,69.2798881 C59.4673766,69.1887081 59.3732789,69.0981051 59.2814762,69.0046167 C59.2803287,69.0034625 59.2786074,69.0017313 59.2768861,69 C66.1643806,69.2406461 72.7047463,70.8513012 78.6380669,73.5711211 C78.5577396,73.5976672 78.4774123,73.6242133 78.3976587,73.6507594 C78.2754464,73.6911556 78.1538079,73.7332831 78.0304481,73.7707939 L78.0304481,76.8645674 C78.0809396,76.8743779 80.1505158,77.2760318 80.5837096,77.9806573 L80.5837096,77.9823886 C81.6727186,78.2611225 82.7376294,78.6356532 83.7618029,79.1088661 L92.904774,83.3302714 C93.5209993,83.9269813 94.124028,84.5404268 94.7098438,85.1671453 L103.726586,98.8256852 L103.831585,98.7125758 C105.840342,103.056324 107.264431,107.730167 108,112.629652 C107.594347,112.62792 107.234595,112.616378 106.902958,112.588101 C106.695255,112.570788 106.498453,112.546551 106.30911,112.514234 C105.921817,112.447869 105.563787,112.343993 105.202888,112.191064 C104.439204,111.867894 103.657734,111.318506 102.532578,110.386507 L102.409218,110.279168 L102.26635,110.147592 C102.01504,109.909254 101.699469,109.586085 101.397667,109.269263 C101.336848,109.205783 101.277177,109.14288 101.218652,109.080555 C101.101604,108.956481 100.988572,108.835869 100.885868,108.725068 C100.757918,108.587721 100.648328,108.468264 100.559968,108.37189 L100.20079,108.744112 C100.069972,108.880305 99.8972678,108.948401 99.724564,108.948401 C99.5570242,108.948401 99.3906319,108.884345 99.2626819,108.756231 L97.2407283,106.730072 C96.9854022,106.474998 96.9802383,106.057763 97.2281055,105.791725 L98.1375256,104.817022 L92.7911682,96.7862531 L90.4347087,128.654833 L94.9118096,146.023477 C94.9542683,146.188525 94.9760715,146.352418 94.9789403,146.513426 C94.9818091,146.680204 94.9588585,146.841212 94.9232849,146.998758 C94.40919,147.272298 93.890505,147.538913 93.3672299,147.798026 C92.7928895,148.082531 92.2133852,148.357802 91.628717,148.62384 L91.0738847,148.62384 L91.0738847,148.625571 L91.0658519,148.876028 C85.5444958,151.32173 79.5899458,152.958355 73.34966,153.639319 L72.5670423,145.73955 L71.768933,153.791094 C70.146321,153.924978 68.5064959,153.997692 66.8500317,154 C66.8477366,154 66.8454416,154 66.8431465,154 C66.8184745,154 66.7938026,154 66.7685569,154 M51.9716895,102.725652 L49.0403158,110.442485 C49.2755601,110.59599 49.4017888,110.920314 49.3174451,111.22848 L48.8871201,112.795276 L52.489227,109.72574 L51.9716895,102.725652" id="Fill-18" fill="#C8AC43"></path>
                <path d="M48.4686804,51 C48.4686804,51 47.74813,51.4663866 47.3475684,52.5192077 C46.916159,53.6536615 47.0082421,55 47.0082421,55 C47.0082421,55 47.4728014,53.2887155 47.9562378,52.6344538 C48.4392138,51.9807923 49,51.4303721 49,51.4303721 L48.4686804,51" id="Fill-19" fill="#79342F"></path>
                <path d="M47.8017103,50 C47.8017103,50 46.1662213,50.7561992 45.2421165,51.7186832 C44,53.0135742 44,55 44,55 C44,55 45.1598076,52.6710133 46.5344735,51.9516888 C47.8695885,51.2532065 49,51.4381146 49,51.4381146 L47.8017103,50" id="Fill-20" fill="#79342F"></path>
                <path d="M85.5309814,51 C85.5309814,51 86.2521583,51.4663866 86.6523516,52.5192077 C87.0838603,53.6536615 86.991756,55 86.991756,55 C86.991756,55 86.5270897,53.2887155 86.0440025,52.6344538 C85.5604548,51.9807923 85,51.4303721 85,51.4303721 L85.5309814,51" id="Fill-21" fill="#79342F"></path>
                <path d="M85.198696,50 C85.198696,50 86.8340103,50.7561992 87.7574818,51.7186832 C89,53.0135742 89,55 89,55 C89,55 87.839782,52.6710133 86.4657973,51.9516888 C85.1302907,51.2532065 84,51.4381146 84,51.4381146 L85.198696,50" id="Fill-22" fill="#79342F"></path>
                <polyline id="Fill-23" fill="#363E99" points="66.5 132 48 132 48 137.452648 50.0640801 203 60.2907105 203 66.5 139.958463 72.7092895 203 82.9353516 203 85 137.452648 85 132 66.5 132"></polyline>
                <path d="M78.8367432,132 L48,132 L48,85.4952578 C48,77.920801 54.0490277,73 61.5108592,73 L71.4891408,73 C78.9509723,73 85,77.920801 85,85.4952578 L78.8367432,132" id="Fill-24" fill="#FFFFFE"></path>
                <path d="M66,86 C62.6860329,86 60,83.4330501 60,80.2660049 L60,66 L72,66 L72,80.2660049 C72,83.4330501 69.3133803,86 66,86" id="Fill-25" fill="#E5BD95"></path>
                <path d="M60,70.6605024 C61.9524648,70.8972754 64.19777,71.0299397 65.2083333,70.9942452 C68.967723,70.8609861 70.0223005,70.4606136 72,69.68307 L72,66 L60,66 L60,70.6605024" id="Fill-26" fill="#C49770"></path>
                <path d="M66.3880127,0 C61.0794028,0 56.7760254,4.25336903 56.7760254,9.49971101 C56.7760254,10.011225 56.8286554,10.5094454 56.9070155,10.9989961 C56.6830458,10.6036565 56.4403631,10.1210416 56.2327671,9.57947252 C55.670796,8.11082043 55.8579248,6.70343443 55.8579248,6.70343443 C55.8579248,6.70343443 54.0591493,10.1112159 55.670796,13.4444377 C56.7754406,15.7303562 57.2812731,14.2455206 57.4900387,13.0866669 C58.9227435,16.5539805 62.3641589,19 66.3880127,19 C71.6966226,19 76,14.746631 76,9.49971101 C76,4.25336903 71.6966226,0 66.3880127,0" id="Fill-27" fill="#79342F"></path>
                <path d="M67.2639146,0 C67.0465304,0 66.8338849,0.0184452436 66.620647,0.0321304242 C65.5651196,0.252878339 64.2471912,0.708654357 63.5346213,1.6582869 C62.2249854,3.40284993 63.9901211,5.91913816 63.9901211,5.91913816 C63.9901211,5.91913816 63.2212801,5.80489665 62.7657804,5.0896972 C62.3102806,4.37509277 62.1965537,2.87388795 62.1965537,2.87388795 C62.1965537,2.87388795 61.4934611,4.49409434 62.7468259,7.05381814 C64.0001906,9.61294693 67.6815054,11.057031 69.3512763,11.4765115 C70.5146073,11.7686604 74.344004,12.2631119 76.7820235,11.8287562 C76.9224051,11.1677025 77,10.4828484 77,9.77954913 C77,4.37866282 72.6410627,0 67.2639146,0" id="Fill-28" fill="#903C36"></path>
                <path d="M58.4239853,9.72098861 C57.9061344,7.84301989 58.1630026,6.14867735 58.4992236,5 C57.4206125,6.53678316 56.7852019,8.39795327 56.7852019,10.4074146 C56.7852019,10.9200618 56.8381038,11.419386 56.9168688,11.9100212 C56.6917418,11.5138058 56.4478053,11.0301216 56.2391367,10.4873528 C55.6742619,9.015447 55.8623575,7.60494304 55.8623575,7.60494304 C55.8623575,7.60494304 54.054288,11.0202742 55.6742619,14.3608805 C56.7846141,16.6518633 57.2930601,15.1637382 57.5029044,14.002317 C57.9684411,15.1249276 58.6467611,16.1386368 59.4855502,17 C61.4000113,16.8134775 63,16.25391 63,16.25391 C63,16.25391 59.3656392,13.1357405 58.4239853,9.72098861" id="Fill-29" fill="#602A27"></path>
                <path d="M53,45 C53,47.7613687 50.7618013,50 48.0002787,50 C45.2387561,50 43,47.7613687 43,45 C43,42.2386313 45.2387561,40 48.0002787,40 C50.7618013,40 53,42.2386313 53,45" id="Fill-30" fill="#E5BD95"></path>
                <path d="M90,45 C90,47.7613687 87.7613687,50 85,50 C82.2386313,50 80,47.7613687 80,45 C80,42.2386313 82.2386313,40 85,40 C87.7613687,40 90,42.2386313 90,45" id="Fill-31" fill="#D5AC84"></path>
                <path d="M66.5,69 C56.2824624,69 48,60.5737572 48,50.1788471 L48,21.7248116 L56.1574356,12.5926238 L57.4685129,12 L85,21.7248116 L85,50.1788471 C85,60.5737572 76.7169693,69 66.5,69" id="Fill-32" fill="#E5BD95"></path>
                <path d="M58,25.4165618 C58,26.6993123 59.1329127,27.686569 60.4118783,27.5186101 C64.4652771,26.9879738 72.6660069,26.3155689 77.4525342,28.6869208 C86.3709281,33.1062326 85.7471961,45 85.7471961,45 C85.7471961,45 89.9678399,32.7686067 88.7936887,25.0339571 C87.6189648,17.2993075 81.5265523,10.3936347 73.4999406,9.35456691 C61.161044,7.75753399 58,12.0732237 58,12.0732237 L58,25.4165618" id="Fill-33" fill="#A9463E"></path>
                <path d="M59,43.0002672 C59,44.1048764 58.1044617,45 57,45 C55.8955383,45 55,44.1048764 55,43.0002672 C55,41.8951236 55.8955383,41 57,41 C58.1044617,41 59,41.8951236 59,43.0002672" id="Fill-34" fill="#79342F"></path>
                <path d="M78,43.0002672 C78,44.1048764 77.1048764,45 76.0002672,45 C74.8951236,45 74,44.1048764 74,43.0002672 C74,41.8951236 74.8951236,41 76.0002672,41 C77.1048764,41 78,41.8951236 78,43.0002672" id="Fill-35" fill="#79342F"></path>
                <path d="M77,44 C77,44.5522284 76.5522284,45 76,45 C75.4477716,45 75,44.5522284 75,44 C75,43.4477716 75.4477716,43 76,43 C76.5522284,43 77,43.4477716 77,44" id="Fill-36" fill="#FFFFFE"></path>
                <path d="M66,64 C62.6860329,64 60,61.2789695 60,57.9224176 L60,52.7264801 C60,52.325192 60.3210094,52 60.7165493,52 L71.2828638,52 C71.6789906,52 72,52.325192 72,52.7264801 L72,57.9224176 C72,61.2789695 69.3133803,64 66,64" id="Fill-37" fill="#D13E3E"></path>
                <path d="M69.7350141,56 L61.2644199,56 C60.5659892,56 60,55.3214205 60,54.4840534 L60,53.985976 C60,53.4410767 60.367893,53 60.8218163,53 L70.1776177,53 C70.631541,53 71,53.4410767 71,53.985976 L71,54.4840534 C71,55.3214205 70.4334448,56 69.7350141,56" id="Fill-38" fill="#FFFFFE"></path>
                <path d="M65.9946572,57 C63.7647489,57 61.8497835,58.2983893 61,60.1575212 C61.9870086,61.8533989 63.8575446,63 66.00703,63 C68.1469546,63 70.0101794,61.8626809 71,60.1793612 C70.1552781,58.3082173 68.2335639,57 65.9946572,57" id="Fill-39" fill="#E15E5C"></path>
                <path d="M61,40 C61,40 60.8855664,39.866426 60.6716504,39.6570397 C60.4588844,39.4476534 60.147211,39.1612515 59.7510063,38.8724428 C59.3525014,38.5872443 58.8677401,38.3026474 58.3214491,38.1209386 C58.0494537,38.0258724 57.7607821,37.9687124 57.466935,37.933213 C57.320299,37.9163658 57.1713629,37.9073406 57.0212766,37.9061372 L56.8113859,37.912154 L56.5618171,37.9362214 C56.2162162,37.9530686 55.9131685,37.9963899 55.6158712,38.0421179 C55.3156987,38.11071 55.0103508,38.1576414 54.7303048,38.2496992 C54.4485336,38.3375451 54.1765382,38.4302046 53.9298447,38.543923 C53.6808511,38.654633 53.4514089,38.7779783 53.2461185,38.9049338 C52.4209316,39.4145608 52,40 52,40 C52,40 52.0316274,39.8219013 52.1673376,39.5354994 C52.3018976,39.2515042 52.5439908,38.8580024 52.9350201,38.478941 C53.1265095,38.2858002 53.3548016,38.0938628 53.6170213,37.9296029 C53.8734905,37.7545126 54.1633122,37.5980746 54.4755607,37.4753309 C54.786084,37.3441637 55.1144336,37.2400722 55.4577343,37.1624549 C55.8113859,37.0968712 56.1696377,37.0312876 56.493962,37.0162455 L56.7446809,37.0006017 L57.0356527,37 C57.2190914,37.0066185 57.4013801,37.0240674 57.5813686,37.0505415 C57.9413456,37.1070999 58.2829212,37.2268351 58.5974698,37.366426 C59.2254169,37.6552347 59.7228292,38.0740072 60.079931,38.4777377 C60.4410581,38.8802647 60.6693502,39.2701564 60.8096607,39.5481348 C60.9488212,39.8285199 61,40 61,40" id="Fill-40" fill="#79342F"></path>
                <path d="M71,40 C71,40 71.0511788,39.8285199 71.1903393,39.5481348 C71.3306498,39.2701564 71.5589419,38.8802647 71.920069,38.4777377 C72.2771708,38.0740072 72.7740081,37.6552347 73.4025302,37.366426 C73.7165037,37.2268351 74.0586544,37.1070999 74.4186314,37.0505415 C74.5986199,37.0240674 74.7809086,37.0066185 74.9643473,37 L75.2553191,37.0006017 L75.506038,37.0162455 C75.8303623,37.0312876 76.1886141,37.0968712 76.5422657,37.1624549 C76.8855664,37.2400722 77.213916,37.3441637 77.5244393,37.4753309 C77.8366878,37.5980746 78.1265095,37.7545126 78.3829787,37.9296029 C78.6451984,38.0938628 78.8734905,38.2858002 79.0649799,38.478941 C79.4560092,38.8580024 79.6981024,39.2515042 79.8326624,39.5354994 C79.9683726,39.8219013 80,40 80,40 C80,40 79.5790684,39.4145608 78.7538815,38.9049338 C78.5485911,38.7779783 78.3191489,38.654633 78.0701553,38.543923 C77.8234618,38.4302046 77.5514664,38.3375451 77.2696952,38.2496992 C76.9896492,38.1576414 76.6843013,38.11071 76.3841288,38.0421179 C76.0868315,37.9963899 75.7837838,37.9530686 75.4381829,37.9362214 L75.1886141,37.912154 L74.9787234,37.9061372 C74.8286371,37.9073406 74.679701,37.9163658 74.533065,37.933213 C74.2392179,37.9687124 73.9505463,38.0258724 73.6785509,38.1209386 C73.1322599,38.3026474 72.6474986,38.5872443 72.2489937,38.8724428 C71.852789,39.1612515 71.5411156,39.4476534 71.3283496,39.6570397 C71.1144336,39.866426 71,40 71,40" id="Fill-41" fill="#79342F"></path>
                <path d="M60,67 C59.9706923,66.9515784 50.2225988,60.787229 50.8954792,42.7812448 C51.2064995,34.4402039 55.8090016,28.7629184 55.8090016,28.7629184 C54.6767682,27.1473473 51.2387978,28.0764716 48,31.7525225 L48,49.8718701 C48,57.5925454 52.9547924,64.2092092 60,67" id="Fill-42" fill="#D5AC84"></path>
                <path d="M56,27.5150412 L56,13.0770784 C56,13.0770784 48.719155,11.3471657 44.7646645,24.2781338 C42.096357,33.0035354 47.2681781,46 47.2681781,46 C47.2681781,46 46.544665,32.2307912 54.6364994,29.4230585 C55.444667,29.1421128 56,28.384881 56,27.5150412" id="Fill-43" fill="#A9463E"></path>
                <path d="M47.3798676,25.9070334 C45.1649164,22.5533591 47.5637173,17.3369145 47.72247,17 C46.6613946,18.5699756 45.6499294,20.6275605 44.7907968,23.336628 C42.0313003,32.0385332 47.3798676,45 47.3798676,45 C47.3798676,45 46.6316285,31.2678699 55,28.467698 C55,28.467698 49.6695259,29.3735854 47.3798676,25.9070334" id="Fill-44" fill="#903C36"></path>
                <path d="M88,36.9173542 C87.9977166,36.8965118 87.5513101,32.8588797 85.2890225,29.8245766 C83.0210264,26.7821682 75.4121363,23.9626574 69.9251042,22.9240122 C64.438072,21.884788 60.2131943,18.0451585 60.4872034,14.1684759 C60.6601716,11.7241279 62.8020094,10.0040527 62.8071471,10 C59.1611135,10.9083804 58,12.5178752 58,12.5178752 L58,26.0862643 C58,27.3906499 59.1291458,28.3945578 60.403859,28.2237661 C64.4437806,27.6841801 72.6172435,27.0004342 77.3878561,29.4117817 C86.276597,33.9056303 85.6549388,46 85.6549388,46 C85.6549388,46 87.0409682,41.8981039 88,36.9173542" id="Fill-45" fill="#903C36"></path>
                <path d="M82.1323275,15.8221178 C82.1323275,15.8221178 78.6726664,12.0073873 74.8229228,11.177948 C70.9731792,10.3485087 70.0804009,12.5601551 71.9216835,14.88224 C73.7629662,17.2043248 83.483685,24.0382833 84.7549363,21.4061653 C85.7963175,19.2503134 83.2509125,16.9132733 82.1323275,15.8221178" id="Fill-46" fill="#C44E44"></path>
                <path d="M54.3184775,15.0058711 C54.3184775,15.0058711 52.4602839,15.1450443 50.7606496,17.1210729 C49.0604055,19.0965265 48.6896205,20.5221886 49.2311617,21.5838152 C49.842225,22.7817395 54.0257526,21.2675126 55.3539921,18.6542779 C56.5248919,16.3510198 56.0595812,14.8954527 54.3184775,15.0058711" id="Fill-47" fill="#C44E44"></path>
                <path d="M62,132 L61.6358098,141.676012 C61.5874048,142.972518 60.4763943,144 59.1227825,144 L48,144 L48,142.40685 L62,132" id="Fill-48" fill="#171816"></path>
                <path d="M71,132 L71.3624744,141.676012 C71.4106514,142.972518 72.5164277,144 73.864236,144 L84.934617,144 L85,142.40685 L71,132" id="Fill-49" fill="#171816"></path>
                <path d="M71.5578604,3.78552868 C71.5578604,3.78552868 70.1988563,2.24176012 68.6304818,2.01618663 C67.0626511,1.79002571 66.6091059,3.97350659 67.3410865,6.0817963 C68.0730671,8.18949858 70.882437,9.77086273 72.3703262,8.60363741 C73.8576717,7.43699953 72.3463982,4.51688023 71.5578604,3.78552868" id="Fill-50" fill="#A9463E"></path>
                <path d="M60.0276055,72 L63,123.283956 L60.6361454,140.588718 C60.4477055,141.97038 59.2675069,143 57.8723602,143 L45.0768876,143 C43.7191983,143 42.7268634,141.718016 43.0674383,140.403767 L47.56464,123.062705 L44.2274674,78.2024962 L54.26607,73.5954215 C56.0888082,72.7588191 58.0342917,72.2200979 60.0276055,72" id="Fill-51" fill="#32355A"></path>
                <path d="M57.2586422,72.125998 L56,85.1116163 L61,93 L59.7849938,71 C59.7849938,71 57.6916015,71.4071274 57.2586422,72.125998" id="Fill-52" fill="#32355A"></path>
                <polyline id="Fill-53" fill="#32355A" points="57.9314565 87 56 107.325137 64 123 62.1554468 93.0716204 57.9314565 87"></polyline>
                <path d="M71.9729409,72 L69,123.283956 L71.3638309,140.588718 C71.5528451,141.97038 72.7330318,143 74.1275883,143 L86.9229322,143 C88.2811841,143 89.273509,141.718016 88.9323613,140.403767 L84.435781,123.062705 L87.7723438,78.2024962 L77.7338422,73.5954215 C75.9111223,72.7588191 73.9662346,72.2200979 71.9729409,72" id="Fill-54" fill="#1C2484"></path>
                <path d="M74.7419245,72.125998 L76,85.1116163 L71,93 L72.2155729,71 C72.2155729,71 74.3089652,71.4071274 74.7419245,72.125998" id="Fill-55" fill="#32355A"></path>
                <polyline id="Fill-56" fill="#32355A" points="75.0691554 87 77 107.325137 69 123 70.8445532 93.0716204 75.0691554 87"></polyline>
                <polygon id="Fill-57" fill="#32355A" points="57 144 48 144.551987 49.913939 203 55.1710725 203"></polygon>
                <path d="M67,140 C67,140 73.9996499,141.435958 76.0001501,152.924197 C78.00005,164.41301 79,203 79,203 L73.5578953,203 L67,140" id="Fill-58" fill="#32355A"></path>
                <polyline id="Fill-59" fill="#171816" points="62 134 71 134 70.7362161 132 62.2643754 132 62 134"></polyline>
                <path d="M55.4670142,107.624262 L56.3809765,97 C54.1145113,99.4172148 50.4154418,99.8202753 47.6775887,97.949087 L47.3796578,97.7452601 L50.1492056,123.352809 L43.8304182,137.48232 L43.0674383,140.412834 C42.7268634,141.722493 43.7191983,143 45.0768876,143 L57.8723602,143 C59.2669307,143 60.4477055,141.973976 60.6361454,140.597139 L63,123.352809 L55.4670142,107.624262" id="Fill-60" fill="#32355A"></path>
                <path d="M76.5329101,107.624262 L75.6189569,97 C77.8859756,99.4172148 81.5850079,99.8202753 84.3222572,97.949087 L84.6201852,97.7452601 L81.8506651,123.352809 L88.1699653,137.48232 L88.9323613,140.412834 C89.273509,141.722493 88.2811841,143 86.9229322,143 L74.1275883,143 C72.7330318,143 71.5528451,141.973976 71.3638309,140.597139 L69,123.352809 L76.5329101,107.624262" id="Fill-61" fill="#1C2484"></path>
                <path d="M62,95.5285414 C62,95.5285414 63.7542857,92.9875483 66.3542857,93.000046 C68.9994286,93.0125436 71,95.5285414 71,95.5285414 L69.392,123.263029 L70.5925714,132 L62.4074286,132 L63.6074286,123.263029 L62,95.5285414" id="Fill-62" fill="#CDCCC7"></path>
                <path d="M85,49.7983213 L85,45 C85,45 84.8170769,52.9790665 81.4434764,59.2083429 C78.031932,65.5060664 72.4417338,67.8478952 72,68 C79.5281638,65.6037645 85,58.3618212 85,49.7983213" id="Fill-63" fill="#D5AC84"></path>
                <path d="M43.2876214,132.467889 L31.3560497,118.359341 C30.8200521,117.725216 30.8979419,116.775475 31.5308691,116.238463 L52.5951704,98.3569606 C53.2280976,97.819371 54.176046,97.8979862 54.7126205,98.5321108 L66.6441922,112.640659 C67.1801898,113.274784 67.101723,114.223947 66.4687958,114.761537 L45.4044945,132.643039 C44.7715673,133.180629 43.8241959,133.102014 43.2876214,132.467889" id="Fill-64" fill="#D13E3E"></path>
                <path d="M64.1990366,110 L41,129.595787 L43.4470711,132.474177 C43.9800398,133.100808 44.9210447,133.178495 45.5497184,132.647258 L66.4724631,114.974205 C67.1011369,114.44354 67.1790764,113.505021 66.6461077,112.87839 L64.1990366,110" id="Fill-65" fill="#A32D2E"></path>
                <polyline id="Fill-66" fill="#D9615E" points="57 100.943395 33.6270959 121 32 119.056605 55.3734815 99 57 100.943395"></polyline>
                <polyline id="Fill-67" fill="#FFFFFE" points="51 118.238025 48.3632605 116 44 122.860203 46.5209828 125 51 118.238025"></polyline>
                <path d="M57,43.642076 C57,43.642076 56.7354644,43.8325986 56.2451507,43.9305959 C55.7652954,44.0370498 55.041206,44.0445115 54.3989382,43.7838487 C54.2371408,43.7251498 54.0888778,43.6460556 53.9498428,43.5604945 C53.802195,43.4848824 53.69392,43.3729566 53.5782626,43.2799338 C53.4607595,43.186911 53.391242,43.0675235 53.3088053,42.9690288 C53.2214471,42.8730213 53.1820743,42.761593 53.1365496,42.6660829 C53.0362721,42.4780476 53.0215074,42.3029459 53.007973,42.1855481 C52.9968994,42.0671555 53.0005906,42 53.0005906,42 C53.0005906,42 53.0713385,42.0437754 53.1783831,42.1208799 C53.2300599,42.1596808 53.2946558,42.2044511 53.3580213,42.2591704 C53.4183108,42.3148846 53.5124362,42.3626396 53.5893361,42.4238257 C53.675464,42.4805348 53.7535943,42.5491826 53.8532566,42.6048968 C53.9529188,42.6601136 54.0408923,42.7302537 54.1491673,42.7824858 C54.2586728,42.8337229 54.3515678,42.9033657 54.4690709,42.9486334 C54.5810371,42.9983782 54.6880817,43.0565797 54.8105064,43.0948832 C55.0393604,43.1938753 55.2903617,43.2610308 55.5321349,43.331171 C55.7769842,43.3953418 56.017527,43.4490662 56.2346923,43.4938365 C56.6936308,43.5823822 57,43.642076 57,43.642076" id="Fill-68" fill="#79342F"></path>
                <path d="M57,44 C57,44.5522284 56.5520724,45 56.0003483,45 C55.4472309,45 55,44.5522284 55,44 C55,43.4477716 55.4472309,43 56.0003483,43 C56.5520724,43 57,43.4477716 57,44" id="Fill-69" fill="#FFFFFE"></path>
                <path d="M76,43.642076 C76,43.642076 76.3063692,43.5823822 76.7659229,43.4938365 C76.982473,43.4490662 77.223631,43.3953418 77.4678651,43.331171 C77.7096383,43.2610308 77.9612548,43.1938753 78.1901088,43.0948832 C78.3119183,43.0565797 78.4189629,42.9983782 78.5315443,42.9486334 C78.6484322,42.9033657 78.7419424,42.8337229 78.8508327,42.7824858 C78.9591077,42.7302537 79.0470812,42.6601136 79.1473586,42.6048968 C79.2464057,42.5491826 79.324536,42.4805348 79.4106639,42.4238257 C79.4881789,42.3626396 79.5816892,42.3148846 79.6425939,42.2591704 C79.7053442,42.2044511 79.7699401,42.1596808 79.8222321,42.1208799 C79.9286615,42.0437754 79.9994094,42 79.9994094,42 C79.9994094,42 80.0031006,42.0671555 79.992027,42.1855481 C79.9784926,42.3029459 79.9643431,42.4780476 79.8640656,42.6660829 C79.8179257,42.761593 79.7785529,42.8730213 79.6911947,42.9690288 C79.6093732,43.0675235 79.5392405,43.186911 79.4223526,43.2799338 C79.3066952,43.3729566 79.1984202,43.4848824 79.0507724,43.5604945 C78.9117374,43.6460556 78.7628592,43.7251498 78.601677,43.7838487 C77.9594092,44.0445115 77.2347046,44.0370498 76.7548493,43.9305959 C76.2645356,43.8325986 76,43.642076 76,43.642076" id="Fill-70" fill="#79342F"></path>
                <path d="M60,203 L60,217.732258 C60,217.879897 59.8992381,218 59.7748833,218 L58.9211108,218 C58.8021627,218 58.7033669,217.889271 58.6964856,217.746905 L58,203 L60,203" id="Fill-71" fill="#111110"></path>
                <path d="M60,203 L56.2811653,217.212592 C56.159818,217.677186 55.7488402,218 55.2789058,218 L41.8253901,218 C41.3697656,218 41,217.622115 41,217.155763 L41,215.099949 C41,213.498184 42.268422,212.199898 43.8333434,212.199898 L44.9701151,212.199898 C45.564831,212.199898 46.1005905,211.834316 46.3295475,211.272468 L49.6997951,203 L60,203" id="Fill-72" fill="#171816"></path>
                <path d="M56,203 L53.1946587,209.018015 C52.6331037,210.222887 51.3743201,211 49.9847301,211 L49.1244497,211 C48.3250096,211 47.7810983,210.230381 48.0859076,209.529365 L50.9259279,203 L56,203" id="Fill-73" fill="#E5BD95"></path>
                <path d="M57.6709345,203 L54.7357052,213.383354 C54.5153341,214.161973 53.8462071,214.718549 53.0568777,214.779479 L46.4131168,215.294458 C46.2253721,215.309104 46.0393445,215.332539 45.8538893,215.355974 C44.6467133,215.447369 43.1012532,215.529977 42.3754594,215.423935 C41.8975116,215.354216 41.4201362,215.193102 41.0062963,214.973987 L41,215.099949 L41,217.155763 C41,217.622115 41.3697656,218 41.8253901,218 L55.2789058,218 C55.7488402,218 56.159818,217.677186 56.2811653,217.212592 L60,203 L57.6709345,203" id="Fill-74" fill="#141513"></path>
                <path d="M49,212.999641 C49,213.552207 47.656797,214 45.9996999,214 C44.343203,214 43,213.552207 43,212.999641 C43,212.447793 44.343203,212 45.9996999,212 C47.656797,212 49,212.447793 49,212.999641" id="Fill-75" fill="#282826"></path>
                <path d="M73,203 L73,217.732258 C73,217.879897 73.1002703,218 73.2246252,218 L74.0783976,218 C74.1978373,218 74.2966331,217.889271 74.3030229,217.746905 L75,203 L73,203" id="Fill-76" fill="#111110"></path>
                <path d="M73,203 L76.7183744,217.212592 C76.8402977,217.677186 77.2512879,218 77.7212364,218 L91.1751574,218 C91.6307956,218 92,217.622115 92,217.155763 L92,215.099949 C92,213.498184 90.7315398,212.199898 89.1665713,212.199898 L88.0303377,212.199898 C87.4356039,212.199898 86.8992559,211.834316 86.6702919,211.272468 L83.2999428,203 L73,203" id="Fill-77" fill="#171816"></path>
                <path d="M78,203 L80.8051295,209.018015 C81.3666421,210.222887 82.6253307,211 84.0154241,211 L84.8750312,211 C85.6750193,211 86.2188896,210.230381 85.9141032,209.529365 L83.0742974,203 L78,203" id="Fill-78" fill="#E5BD95"></path>
                <path d="M75.3291357,203 L78.2644533,213.383354 C78.4842587,214.161973 79.1534058,214.718549 79.942759,214.779479 L86.5872925,215.294458 C86.7744705,215.309104 86.9605037,215.332539 87.1465369,215.355974 C88.3537493,215.447369 89.8992559,215.529977 90.6244991,215.423935 C91.1024614,215.354216 91.5804236,215.193102 91.9942759,214.973987 L92,215.099949 L92,217.155763 C92,217.622115 91.6307956,218 91.1751574,218 L77.7212364,218 C77.2512879,218 76.8402977,217.677186 76.7183744,217.212592 L73,203 L75.3291357,203" id="Fill-79" fill="#141513"></path>
                <path d="M85,212.999641 C85,213.552207 86.3433373,214 88,214 C89.6572629,214 91,213.552207 91,212.999641 C91,212.447793 89.6572629,212 88,212 C86.3433373,212 85,212.447793 85,212.999641" id="Fill-80" fill="#282826"></path>
                <path d="M56.4186357,120.949983 L42.5375923,110.596515 C41.683079,109.959038 41.360237,108.849272 41.7441572,107.868931 L34.2402617,105 L33.5084864,106.889157 L33.4875453,106.945355 C32.2939024,110.090734 33.3432844,113.628363 36.0743533,115.665111 L51.5294696,127.19249 C53.2960844,128.510019 55.8223959,128.180779 57.1725154,126.456809 C58.5226349,124.732839 58.1852504,122.267512 56.4186357,120.949983" id="Fill-81" fill="#E5BD95"></path>
                <polyline id="Fill-82" fill="#1C2484" points="41.5004845 108 52 81.0857143 44.4640481 78 34 105.121595 41.5004845 108"></polyline>
                <path d="M33.4893619,106.947375 C32.2912716,110.096019 33.3445634,113.63732 36.085808,115.676182 L51.5091766,127.149042 C53.0809403,128.317922 55.3200612,128.297465 56.7773874,126.995616 C57.4389061,126.404642 57.8335986,125.673879 58,124.912999 C58,124.912999 57.4593413,125.623305 56.1403911,125.951182 C54.6515362,126.32111 52.7446343,125.419874 51.5424569,124.489089 L51.5226055,124.473746 L36.8465836,112.977587 C36.1009885,112.393432 35.6461579,111.527427 35.5965294,110.59721 C35.5299688,109.352186 36.1955745,108.178193 37.3130915,107.569034 L38.6629865,106.834294 L34.2448827,105 L33.510381,106.891118 L33.4893619,106.947375" id="Fill-83" fill="#D5AC84"></path>
                <path d="M41.5091022,107.968533 L33.4078075,105.040869 C33.1122553,104.934701 32.9404363,104.587295 33.0190157,104.257119 L33.6822487,101.460636 C33.7655193,101.109894 34.0956698,100.916458 34.4070551,101.034854 L42.6010031,104.162625 C42.9030058,104.278242 43.069547,104.64288 42.9722025,104.976946 L42.2163162,107.572768 C42.1207309,107.900164 41.807,108.075812 41.5091022,107.968533" id="Fill-84" fill="#FFFFFE"></path>
                <polyline id="Fill-85" fill="#32355A" points="46.1934689 87 40 103.567301 43.7597043 105 47 97.26214 46.1934689 87"></polyline>
                <path d="M55.8392987,124.466319 C55.353371,125.217428 53.9118602,125.169931 52.6201678,124.36028 C51.3279143,123.550629 50.6747736,122.28479 51.1607013,121.533681 C51.646629,120.782572 53.0881398,120.830069 54.3798322,121.63972 C55.6720857,122.449923 56.3252264,123.71521 55.8392987,124.466319" id="Fill-86" fill="#ECCDAE"></path>
                <polyline id="Fill-87" fill="#32355A" points="100 96.3657499 87.5874901 78 81 82.5954069 94.2251959 102 100 96.3657499"></polyline>
                <path d="M105.913588,71.0014596 C103.681251,70.9428078 101.82282,72.6590848 101.762644,74.8348959 L101.162057,96.548021 C101.308699,98.2631591 100.241313,97.6612664 99.8452062,96.9192926 L94,102.577199 C94,102.577199 95.6054599,104.294614 96.2171472,104.786037 C98.6376059,106.728949 99.4958375,107 101.923891,107 C102.533242,107 103.156029,106.942487 103.765379,106.774504 C111.529192,104.639692 109.84603,75.0472951 109.84603,75.0472951 C109.906205,72.871484 108.145341,71.0606808 105.913588,71.0014596" id="Fill-88" fill="#E5BD95"></path>
                <path d="M101.157383,104.135554 C97.4498693,103.239031 98.5955414,97.9187628 98.5955414,97.9187628 L94,102.472497 C94,102.472497 95.6054599,104.230569 96.2171472,104.733625 C98.6376059,106.722532 99.4958375,107 101.923891,107 C102.533242,107 103.156029,106.941126 103.765379,106.769166 C111.529192,104.583816 109.84603,74.2908747 109.84603,74.2908747 C109.848951,74.192945 109.843693,74.0967639 109.839019,74 C108.920612,79.5266198 107.811746,89.9887833 107.336184,93.1540133 C106.661984,97.6366318 104.864897,105.032078 101.157383,104.135554" id="Fill-89" fill="#D5AC84"></path>
                <path d="M91.1765309,100.729812 L97.7167394,93.219433 C97.9548174,92.946187 98.3482843,92.92526 98.605786,93.1727958 L100.786225,95.2678812 C101.059266,95.5303648 101.072585,95.9889637 100.815638,96.2747658 L94.0517808,103.788732 C93.8026036,104.065566 93.3958176,104.070947 93.1444205,103.801288 L91.188185,101.702018 C90.9417826,101.437142 90.936788,101.00545 91.1765309,100.729812" id="Fill-90" fill="#FFFFFE"></path>
                <path d="M103.61617,79.9988737 C102.790151,80.0438189 102.068731,78.7379801 102.004638,77.0816906 C101.940034,75.4254011 102.557881,74.0460709 103.3839,74.0011258 C104.209406,73.9561806 104.93134,75.2626268 104.995432,76.9189163 C105.059524,78.5752058 104.441676,79.9539286 103.61617,79.9988737" id="Fill-91" fill="#ECCDAE"></path>
                <polyline id="Fill-92" fill="#32355A" points="84 124 74 124 74 126.626708 79.0002956 128 84 126.567081 84 124"></polyline>
                <path d="M77.1990073,75.2915509 C77.1990073,75.2915509 77.5366743,74.6485199 78.951527,75.2724021 C80.4394943,75.9284049 84.7811664,78.3844005 85.4525935,78.9959285 C86.2099723,79.6852874 86.1842984,80.9003134 85.3577119,80.9979108 C84.5305673,81.0955082 78.1455912,77.744458 77.4875591,77.059423 C76.596788,76.1328653 77.1990073,75.2915509 77.1990073,75.2915509" id="Fill-93" fill="#565653"></path>
                <path d="M55.8012272,75.2915509 C55.8012272,75.2915509 55.4630007,74.6485199 54.0487008,75.2724021 C52.5601697,75.9284049 48.2190393,78.3844005 47.5476096,78.9959285 C46.790228,79.6852874 46.8153438,80.9003134 47.6424916,80.9979108 C48.4696394,81.0955082 54.8540816,77.744458 55.5126743,77.059423 C56.4028907,76.1328653 55.8012272,75.2915509 55.8012272,75.2915509" id="Fill-94" fill="#565653"></path>
                <polyline id="Fill-95" fill="#2F302E" points="87 91.1878751 87 86 95 96.6872922 92.6545551 99 87 91.1878751"></polyline>
                <path d="M34,158 C34,167.388764 26.3887643,175 17,175 C7.61123565,175 0,167.388764 0,158 C0,148.611236 7.61123565,141 17,141 C26.3887643,141 34,148.611236 34,158" id="Fill-96" fill="url(#linearGradient-1)"></path>
                <path d="M119,39.5 C119,41.9854685 116.984882,44 114.5,44 C112.014531,44 110,41.9854685 110,39.5 C110,37.0145315 112.014531,35 114.5,35 C116.984882,35 119,37.0145315 119,39.5" id="Fill-97" fill="#F3DE49"></path>
                <path d="M42,202.5 C42,204.985469 39.9854685,207 37.5,207 C35.0145315,207 33,204.985469 33,202.5 C33,200.015118 35.0145315,198 37.5,198 C39.9854685,198 42,200.015118 42,202.5" id="Fill-98" fill="#F3DE49"></path>
            </g>
        </g>
    </g>
</svg>