<?xml version="1.0" encoding="UTF-8" standalone="no"?>
<svg width="168px" height="194px" viewBox="0 0 168 194" version="1.1" xmlns="http://www.w3.org/2000/svg" xmlns:xlink="http://www.w3.org/1999/xlink">
    <!-- Generator: Sketch 49.1 (51147) - http://www.bohemiancoding.com/sketch -->
    <title>Group 16</title>
    <desc>Created with Sketch.</desc>
    <defs>
        <linearGradient x1="50%" y1="0%" x2="50%" y2="100%" id="linearGradient-1">
            <stop stop-color="#ADE6F3" offset="0%"></stop>
            <stop stop-color="#75C9E4" offset="100%"></stop>
        </linearGradient>
        <linearGradient x1="50%" y1="0%" x2="50%" y2="100%" id="linearGradient-2">
            <stop stop-color="#7CD5E4" offset="0%"></stop>
            <stop stop-color="#46ABC5" offset="100%"></stop>
        </linearGradient>
        <polygon id="path-3" points="0.598666667 0.846 0.598666667 0.846 1.554 0.4955"></polygon>
    </defs>
    <g id="Page-1" stroke="none" stroke-width="1" fill="none" fill-rule="evenodd">
        <g id="home1" transform="translate(-656.000000, -2527.000000)">
            <g id="Group-16" transform="translate(656.000000, 2527.000000)">
                <path d="M151.714757,108.638461 L149.283258,111.763299 C147.851792,113.602898 145.211025,113.925241 143.38447,112.483553 L142.557948,111.831192 C140.731979,110.389504 140.411335,107.729879 141.842801,105.890871 L148.385222,97.4833868 L144.77842,85.3984765 L133.78216,99.5284346 C132.35128,101.368033 129.710513,101.690376 127.883958,100.248688 L127.057436,99.5963273 C125.23088,98.1546395 124.910823,95.4950146 126.342289,93.6554162 L141.448298,74.2428114 L137.841497,62.1579011 L118.281647,87.2935699 C116.850767,89.132578 114.21,89.4555113 112.383445,88.0138235 L111.556923,87.3614626 C109.730368,85.9197748 109.41031,83.2601499 110.841776,81.4205515 L134.511961,51.0028264 L130.904573,38.9179161 L102.781135,75.0587052 C101.349669,76.8977133 98.7089015,77.2200563 96.8829326,75.7789588 L96.0558244,75.1260076 C94.2298555,73.6849101 93.909798,71.0246948 95.3406776,69.1856868 L127.575038,27.7628414 L123.972339,15.6926904 C122.710867,11.4662189 118.286337,9.06989984 114.089832,10.3403799 L18.6523274,39.2349458 C14.4558229,40.5054258 12.0764945,44.961552 13.3379665,49.1886139 L42.0276606,145.307633 C43.2891326,149.534105 47.7136634,151.930424 51.9101679,150.659353 L147.347673,121.764788 C151.544177,120.494307 153.923505,116.038181 152.662034,111.81171 L151.714757,108.638461" id="Fill-99" fill="url(#linearGradient-1)"></path>
                <path d="M49.0030031,151 C45.5788349,151 42.4147599,148.751553 41.3785062,145.269223 L16,60 L41.3785062,145.269223 C42.4147599,148.751553 45.5788349,151 49.0030031,151 C49.7626871,151 50.5347285,150.88945 51.29912,150.657057 C50.5347285,150.88945 49.7626871,151 49.0030031,151 M51.29912,150.657057 L103,134.959532 L51.29912,150.657057" id="Fill-100" fill="#C4E5EA"></path>
                <path d="M48.9821526,151 C45.5601477,151 42.3980717,148.764977 41.3624726,145.303438 L16,60.5433062 C23.3673961,57.6117216 31.3969639,56 39.8023113,56 C45.2325903,56 50.5082057,56.6729292 55.5480033,57.9396195 L55.2463211,63.7531608 L45.2831647,70.5379889 C45.2055388,70.5858443 45.1308534,70.6378353 45.0579322,70.6910079 C43.9929294,71.4720548 43.4013266,72.8161408 43.6500821,74.2074914 L47.0473879,99.6198747 L46.0688321,99.9034621 C45.7112828,100.006853 45.498988,100.376108 45.5901395,100.735318 L46.3152352,103.581827 C46.3928611,103.887274 46.6669037,104.088739 46.9679978,104.088739 C47.0273933,104.088739 47.0873769,104.081059 47.1473605,104.065107 L47.6242888,103.93572 L47.8277626,105.456458 C47.9965399,106.403521 48.2664661,107.313955 48.6169584,108.18126 L49.0227298,112.44984 L45.7089305,127.861633 C45.5330963,128.680492 46.0911789,129.475718 46.9180115,129.584426 L48.4852298,129.791209 C48.7275164,133.074324 49.5802243,137.258419 52.0142642,140.86116 L52.0577817,140.961007 L48.6751778,140.961007 C45.3160968,140.961007 42.5133342,143.344913 41.8464579,146.519319 C43.1896198,149.277207 45.9870897,150.999409 48.9868572,150.999409 C49.744297,150.999409 50.5140864,150.889519 51.2768189,150.659104 C50.5129103,150.89011 49.7413567,151 48.9821526,151 M102,103.115089 L94.1603802,103.115089 L92.0450766,89.3989129 C92.333233,87.595179 92.8830826,85.3247076 92.8830826,85.3247076 C92.8830826,85.3247076 92.4614333,85.7010516 91.4993435,85.8587971 L90.7401395,80.9361928 C95.8158096,87.445114 99.6823988,94.9530899 102,103.115089" id="Fill-101" fill="#63C4DF"></path>
                <path d="M117,188.999703 C117,191.761106 99.5389465,194 78.0002973,194 C56.4610535,194 39,191.761106 39,188.999703 C39,186.238301 56.4610535,184 78.0002973,184 C99.5389465,184 117,186.238301 117,188.999703" id="Fill-102" fill="#B3B3B3"></path>
                <path d="M79,184 C79.002,184 79.004,184 79.006,184 C79.004,184 79.002,184 79,184 M79.553,184 C79.551,184 79.55,184 79.547,184 C79.549,184 79.552,184 79.553,184 M79.088,184 C79.098,184 79.107,184 79.116,184 C79.108,184 79.097,184 79.088,184 M79.465,184 C79.456,184 79.446,184 79.437,184 C79.446,184 79.455,184 79.465,184 M79.179,184 C79.212,184 79.244,184 79.277,184 C79.243,184 79.213,184 79.179,184 M79.374,184 C79.341,184 79.31,184 79.277,184 C79.309,184 79.341,184 79.374,184" id="Fill-103" fill="#E8E7E3"></path>
                <path d="M78,192 C59.7744337,192 45,190.209391 45,187.99969 C45,185.797439 59.6871075,184.010555 77.8387376,184 C77.8399019,184 77.8410663,184 77.8422306,184 C77.8579493,184 77.8748324,184 77.889969,184 C77.8952085,184 77.9016124,184 77.9062698,184 C77.9184955,184 77.9307212,184 77.9429469,184 C77.9627408,184 77.9802061,184 78,184 C78.0192118,184 78.0372592,184 78.056471,184 C78.0686966,184 78.0809223,184 78.093148,184 C78.0983876,184 78.1042093,184 78.1094489,184 C78.1251676,184 78.1420507,184 78.1571872,184 C78.1589337,184 78.1595159,184 78.1606803,184 C96.3128925,184.010555 111,185.797439 111,187.99969 C111,190.209391 96.2249841,192 78,192" id="Fill-104" fill="#8C8C8C"></path>
                <path d="M168,188.999703 C168,191.761106 157.255173,194 144,194 C130.74542,194 120,191.761106 120,188.999703 C120,186.238301 130.74542,184 144,184 C157.255173,184 168,186.238301 168,188.999703" id="Fill-105" fill="#8C8C8C"></path>
                <path d="M144,184 C144.001,184 144.003,184 144.004,184 C144.003,184 144.002,184 144,184 M144.342,184 C144.341,184 144.34,184 144.338,184 C144.34,184 144.341,184 144.342,184 M144.055,184 C144.061,184 144.066,184 144.072,184 C144.067,184 144.06,184 144.055,184 M144.287,184 C144.282,184 144.276,184 144.27,184 C144.276,184 144.281,184 144.287,184 M144.111,184 C144.131,184 144.151,184 144.171,184 C144.151,184 144.132,184 144.111,184 M144.231,184 C144.211,184 144.192,184 144.171,184 C144.191,184 144.211,184 144.231,184" id="Fill-106" fill="#E8E7E3"></path>
                <path d="M143.499707,192 C132.178073,192 123,190.209391 123,187.99969 C123,185.797439 132.123605,184.010555 143.399557,184 C143.400729,184 143.401314,184 143.4019,184 C143.411271,184 143.421813,184 143.431769,184 C143.434698,184 143.438797,184 143.441726,184 C143.449339,184 143.456953,184 143.464567,184 C143.476866,184 143.487994,184 143.499707,184 C143.512006,184 143.523134,184 143.534848,184 C143.542461,184 143.550075,184 143.557689,184 C143.561203,184 143.564717,184 143.567645,184 C143.577602,184 143.588144,184 143.597514,184 C143.598686,184 143.599271,184 143.599857,184 C154.875809,184.010555 164,185.797439 164,187.99969 C164,190.209391 154.821927,192 143.499707,192" id="Fill-107" fill="#B7B9BA"></path>
                <path d="M103.690054,135 L119,130.428596 L103.690054,135 M46,31.2415943 L63.5556808,26 L46,31.2415943" id="Fill-108" fill="#CECDC8"></path>
                <path d="M103.363707,134 C104.358872,129.483709 104.88814,124.792696 104.88814,119.976378 C104.88814,113.809349 104.028519,107.845868 102.420765,102.195945 L112.757336,102.195945 L119,107.400534 L115.601418,115.20477 L115.647773,115.234772 C117.406328,115.891302 118.545839,117.604987 118.474253,119.485157 C118.469558,119.613404 118.452542,119.738121 118.437286,119.862838 C118.416749,120.028736 118.386824,120.190515 118.348683,120.349353 L118.346923,120.359354 C118.308783,120.514074 118.263015,120.664676 118.209618,120.812336 L118.202577,120.832338 C118.149768,120.975292 118.089917,121.114128 118.023612,121.248846 L118.007769,121.281202 C117.942637,121.410625 117.871051,121.535343 117.793597,121.65653 L117.764845,121.701828 C117.689152,121.817133 117.609351,121.927731 117.523682,122.0348 L117.477327,122.091864 C117.394006,122.191873 117.30775,122.287764 117.216801,122.380125 L117.147562,122.447778 C117.059546,122.532492 116.96977,122.613675 116.8753,122.690741 L116.778482,122.76663 C116.688706,122.83546 116.59717,122.902525 116.502113,122.964884 L116.37537,123.042538 C116.285007,123.097249 116.194058,123.150783 116.099587,123.199023 C116.047951,123.225496 115.994555,123.249027 115.941746,123.273735 C115.852556,123.314915 115.763954,123.355507 115.672417,123.390805 C115.609633,123.414336 115.545088,123.434338 115.48113,123.455516 C115.394874,123.483754 115.309793,123.513169 115.221777,123.536112 C115.14843,123.555525 115.07391,123.569056 114.99939,123.584352 C114.917242,123.601412 114.835681,123.619649 114.751773,123.632003 C114.669038,123.644357 114.583956,123.649652 114.499461,123.656711 C114.422594,123.663182 114.345727,123.672595 114.267686,123.675536 C114.248909,123.676125 114.230133,123.676125 114.210769,123.676125 C114.135076,123.676125 114.059382,123.672007 113.983102,123.669653 C113.912689,123.666712 113.842863,123.668477 113.772451,123.662594 C113.662138,123.653181 113.551824,123.633768 113.441511,123.615531 C113.384008,123.606118 113.327678,123.602 113.270174,123.590234 C113.165729,123.568468 113.061283,123.5367 112.956838,123.507286 C114.597452,124.926826 116.432874,126.854647 118.540558,129.425468 L103.363707,134 M85.5915644,61.1598787 L80.7401357,57.6466196 L80.5682116,60.2421486 L64.9219433,55.5646665 L65.0674627,60.1933207 C62.1682235,58.9879175 59.1662993,57.9890035 56.0716652,57.213051 L56.4829922,49.3088062 C55.1874002,48.6340393 45.499212,43.2064893 46.0202653,32.0466558 C46.0402156,31.6260295 46.0683806,31.2136392 46.1041737,30.8106616 C46.1217769,30.6171147 46.1458345,30.4323921 46.1669583,30.2435515 L46.1751731,30.1706037 L89.8749981,17 C90.4776127,18.304824 90.6248924,19.5249344 90.5515459,20.5750294 C90.5427444,20.694452 90.5304221,20.8103448 90.5169264,20.9244728 L90.5116454,20.9768305 C90.4975629,21.0850756 90.4811333,21.1903792 90.4635302,21.293918 L90.4523815,21.3598063 C90.4341916,21.4592271 90.4142413,21.5562947 90.3925308,21.6515974 L90.3772747,21.7227803 C90.3555642,21.8157299 90.3320933,21.9057381 90.3080357,21.9945696 L90.2886722,22.0651643 C90.2646145,22.1516427 90.2387966,22.2351797 90.2123919,22.3169518 L90.1906813,22.3851932 C90.1636898,22.4657888 90.1366983,22.5434428 90.1085333,22.6193321 L90.0856492,22.6816907 C90.0574841,22.7564033 90.0293191,22.8281745 90.0005673,22.8981808 L89.9770964,22.9546565 C89.9483446,23.022898 89.9195928,23.088198 89.8914277,23.1505566 L89.8667833,23.2040909 C89.8386183,23.2646846 89.81104,23.3235134 89.7834617,23.3788126 L89.7594041,23.4258756 C89.7318258,23.4799982 89.7054211,23.5317676 89.6796031,23.5800072 L89.6573058,23.6205991 L89.5833726,23.7535524 L89.5628356,23.7882614 L89.4988774,23.8970948 L89.479514,23.9276858 L89.4267045,24.0106344 L89.4114484,24.0347543 L89.3721347,24.0935831 L89.3603993,24.1100552 L89.3246062,24.160648 C89.3246062,24.160648 94.9904741,28.1539506 91.4927278,47.0674269 C90.4817201,52.537922 88.7888836,57.8213413 85.5915644,61.1598787" id="Fill-109" fill="#5AAFC1"></path>
                <polyline id="Fill-110" fill="#9FB8BB" points="52 150 52 150 104 135 52 150"></polyline>
                <path d="M50.1829962,151 C47.1653333,151 44.3511747,149.278904 43,146.522789 C43.6708547,143.350422 46.4903375,140.968047 49.8694574,140.968047 L53.2722407,140.968047 L53.2284636,140.868265 C50.7799031,137.267838 49.9221083,133.086431 49.6783762,129.805426 L48.1018086,129.598776 C47.2700434,129.490137 46.7086315,128.695422 46.8855147,127.87709 L50.2190828,112.475199 L49.8108908,108.20936 C49.4583075,107.342613 49.1867711,106.432764 49.0169869,105.486309 L48.8122993,103.966549 L48.3325258,104.095852 C48.2721843,104.111794 48.2118429,104.11947 48.1520931,104.11947 C47.8492028,104.11947 47.5735253,103.918134 47.4954364,103.612883 L46.766015,100.768203 C46.6743197,100.409223 46.887881,100.040206 47.2475632,99.9368814 L48.2319567,99.6534762 L44.8143839,74.25742 C44.5641445,72.8669634 45.1592766,71.5237409 46.2306327,70.7431958 C46.303989,70.6900573 46.37912,70.6380997 46.4572089,70.5902751 L56.4798017,63.8098062 L56.7832836,58 C59.9032903,58.7787738 62.929827,59.7813196 65.8528368,60.9911055 L67.576117,115.452725 C67.576117,115.452725 71.6834751,128.412607 71.9485041,129.206142 C72.2135332,129.999676 89.0411009,131.057132 89.0411009,131.057132 L92.5976956,122.719706 L98.8513156,122.719706 L95.6277818,103.157663 L95.6260071,103.146445 L103.512395,103.146445 C105.133331,108.81691 106,114.802073 106,120.991525 C106,125.825354 105.466392,130.533423 104.463068,135.066134 L52.486619,150.659914 C51.7193363,150.89018 50.9449546,151 50.1829962,151" id="Fill-111" fill="#52A3B7"></path>
                <path d="M66.1155903,149.542845 C33.5579493,143.814351 11.8143933,112.808411 17.5497299,80.2890304 C20.2791691,64.8147263 28.7421877,51.7887214 40.369833,43 C26.8848805,51.7126691 16.9241846,65.7864407 13.9177015,82.8303474 C8.18236486,115.349143 29.9259209,146.355083 62.4835619,152.083577 C79.548414,155.086473 96.193893,150.545565 109,140.865277 C96.7567666,148.776472 81.6089649,152.269027 66.1155903,149.542845" id="Fill-112" fill="#46ABC5"></path>
                <path d="M45,137.499703 C45,146.060003 38.2844479,153 30.0002872,153 C21.7161264,153 15,146.060003 15,137.499703 C15,128.939404 21.7161264,122 30.0002872,122 C38.2844479,122 45,128.939404 45,137.499703" id="Fill-113" fill="url(#linearGradient-2)"></path>
                <path d="M30,34.4997032 C30,43.0605962 23.2838736,50 14.9997128,50 C6.71555207,50 0,43.0605962 0,34.4997032 C0,25.9394038 6.71555207,19 14.9997128,19 C23.2838736,19 30,25.9394038 30,34.4997032" id="Fill-114" fill="url(#linearGradient-1)"></path>
                <path d="M65.4687627,42 C65.4687627,42 64.7479862,42.5824617 64.3473593,43.8985528 C63.9159489,45.3170941 64.0082997,47 64.0082997,47 C64.0082997,47 64.4726926,44.8600086 64.9559955,44.0432727 C65.4392983,43.2258203 66,42.5380427 66,42.5380427 L65.4687627,42" id="Fill-116" fill="#79342F"></path>
                <path d="M64.5613963,41 C64.5613963,41 62.599163,41.9076248 61.4906604,43.0626722 C60,44.6164132 60,47 60,47 C60,47 61.3920588,44.2054711 63.0413392,43.3425538 C64.6434623,42.5035215 66,42.7258344 66,42.7258344 L64.5613963,41" id="Fill-117" fill="#79342F"></path>
                <path d="M53,146 L53,185.523718 C53,186.338872 53.6535287,187 54.460622,187 L58.7926675,187 C59.5991746,187 60.2532895,186.338872 60.2532895,185.523718 L60.2532895,153.264705 L94.7467105,153.264705 L94.7467105,185.523718 C94.7467105,186.338872 95.4002392,187 96.2073325,187 L100.539378,187 C101.345885,187 102,186.338872 102,185.523718 L102,146 L53,146" id="Fill-118" fill="#96412D"></path>
                <polyline id="Fill-119" fill="#6A2F23" points="53 150 102 148.110083 53 148 53 150"></polyline>
                <path d="M101.705207,148 L53.295374,148 C52.0279183,148 51,146.957459 51,145.671974 L51,141 C51,137.134108 54.0901502,134 57.9018199,134 L97.0981801,134 C100.90985,134 104,137.134108 104,141 L104,145.671974 C104,146.957459 102.972663,148 101.705207,148" id="Fill-120" fill="#D13E3E"></path>
                <path d="M104,145.559615 C103.534868,143.545299 103.187183,140.64703 101.722599,138.498592 C99.6324144,135.434387 95.3741347,135.355162 95.3741347,135.355162 L67.4406573,135.302761 C67.4406573,135.302761 60.7020635,134.621549 57.8205733,135.302761 C54.9396645,135.983973 53.3907764,137.871029 52.4977237,139.756214 C51.4883882,141.887184 51,145.537157 51,145.537157 C51,146.897086 52.0279408,148 53.2954244,148 L101.70632,148 C102.966826,148 103.988953,146.909562 104,145.559615" id="Fill-121" fill="#A32D2E"></path>
                <path d="M61,132.613374 C61,132.613374 62.3155927,135.986325 66.4647698,139.053196 C70.6133444,142.11946 80.9344826,141.131854 84.8812607,139.053196 C88.2009638,137.304958 95,132 95,132 L61,132.613374" id="Fill-122" fill="#732224"></path>
                <path d="M65,57 L80.7568873,61.6497811 L88.5735798,73.2365139 L94,117.771136 L88.3088475,131 C88.3088475,131 71.5001223,129.952615 71.23539,129.166638 C70.9706578,128.38066 66.8678988,115.5442 66.8678988,115.5442 L65,57" id="Fill-123" fill="#FFFFFE"></path>
                <path d="M74.4784596,86.9886172 C74.4784596,86.9886172 75.9714769,86.496835 77.4644943,87.6771124 C78.9575116,88.8568043 81.146678,88.9551607 82.2415573,87.4803995 C83.3364367,86.0050527 85.0285231,84.8247754 86.5209479,85.0214883 C88.0139653,85.2182012 87.7153618,100.363338 87.7153618,100.363338 L91,115.50906 C91,115.50906 88.4121033,120.131227 88.0139653,120.32794 C87.6158273,120.524653 71.6920863,122 71.6920863,122 L70,92.0369961 L74.4784596,86.9886172" id="Fill-124" fill="#CDCCC7"></path>
                <path d="M80.3905202,61.5122204 L81,52.1228294 L66.1635524,34 L65,56.8172297 L65.7179857,61.1792256 C66.4988818,65.9232208 70.6630835,69.2933173 75.3559628,68.9798062 L78.0738042,68.797958 C79.8624197,68.6786939 81.1719934,67.0243473 80.9145805,65.2094075 L80.3905202,61.5122204" id="Fill-125" fill="#E5BD95"></path>
                <path d="M65,45.2663557 C66.2381201,47.8081518 69.905297,54.8348136 73.7379148,57.3619206 C76.4823248,59.171026 78.9185487,59.1580996 80.4779947,58.8314148 L81,51.0996778 L74.7753556,43.7874605 L65.3320766,39 L65,45.2663557" id="Fill-126" fill="#C49770"></path>
                <path d="M55.5047014,2.34731649 C52.1769718,5.48826526 52.1633602,10.5934999 55.4745192,13.7501675 C55.7970539,14.0578064 56.1444445,14.3267098 56.5024876,14.5742806 C56.1124869,14.4693016 55.6556121,14.3227801 55.1839421,14.1195588 C53.9050476,13.5682788 53.1345152,12.6105561 53.1345152,12.6105561 C53.1345152,12.6105561 54.1571573,15.7251197 57.2706528,16.7771551 C59.4058917,17.4990962 58.7856782,16.3061531 58.1855861,15.4854084 C61.2718585,16.7243849 64.9724263,16.1596317 67.4952986,13.7787981 C70.8230282,10.6378494 70.8366398,5.53317605 67.5254808,2.37594712 C64.2143218,-0.780720421 58.8324309,-0.793632275 55.5047014,2.34731649" id="Fill-127" fill="#79342F"></path>
                <path d="M55.1508107,9.93068853 C54.1742069,8.34807384 53.6642939,7.018654 53.3973008,6 C52.4994819,8.92319625 53.1215539,12.2676006 55.2815717,14.5992256 C55.5797504,14.9211532 55.9009081,15.2025461 56.2319138,15.4616155 C55.8713638,15.3517607 55.4489895,15.1984339 55.0129372,14.9857737 C53.8306175,14.4088889 53.1182712,13.4066838 53.1182712,13.4066838 C53.1182712,13.4066838 54.0636893,16.6659066 56.9420717,17.7668049 C58.9160697,18.5222772 58.3426911,17.2739267 57.7879145,16.4150616 C58.4865828,16.7322895 59.2191725,16.9349628 59.9616102,17.026019 C60.1071433,15.0427572 59.7920039,13.4337069 59.7920039,13.4337069 C59.7920039,13.4337069 57.4941127,13.7297862 55.1508107,9.93068853" id="Fill-128" fill="#602A27"></path>
                <path d="M67.5059751,2.32216628 C64.3654175,-0.573785285 59.3815542,-0.76256818 56.0005655,1.7640494 C55.990398,2.4264359 56.113604,3.55968206 56.6740121,4.1320674 C58.7505719,6.25258225 63.6399374,6.16038595 63.6399374,6.16038595 C63.6399374,6.16038595 62.1662497,6.89795633 60.9611034,6.89795633 C59.7553589,6.89795633 58.6166003,6.77502793 58.6166003,6.77502793 C58.6166003,6.77502793 60.8271318,8.31163289 64.6447244,7.9428477 C66.1088426,7.80126053 68.2320533,7.94778679 70,7.7677845 C69.9688994,5.79544227 69.1417444,3.83133186 67.5059751,2.32216628" id="Fill-129" fill="#903C36"></path>
                <path d="M93.5832599,98.5029079 C95.7134773,103.383603 100.592344,106.535994 106.01285,106.534272 L122.293714,116.781838 C125.037673,117.670959 127.886561,115.736016 127.996765,112.907933 C128.068866,111.073439 126.929897,109.401386 125.173084,108.760806 L106.443114,96.8170791 C103.866219,96.8176531 101.547248,95.3195213 100.534897,93 L93,96.9858342 L93.5832599,98.5029079" id="Fill-130" fill="#E5BD95"></path>
                <path d="M92.1562754,97 L100,92.8982014 L89.6006881,65.8419251 C88.7994737,64.0278952 85.1149856,63.5913702 83.2404001,64.3669551 C81.3664248,65.14254 80.4968661,67.2412858 81.2980806,69.0559064 L92.1562754,97" id="Fill-131" fill="#2F302E"></path>
                <path d="M90.3624046,93.0702686 L99.3784908,88.0873243 C99.7073177,87.9060396 100.117603,88.0157646 100.306873,88.3353981 L101.904888,91.0397605 C102.104939,91.3784767 101.978559,91.8185692 101.627571,92.0052209 L92.3796887,96.917798 C92.0394817,97.0990827 91.6196134,96.9702752 91.4435203,96.6321553 L90.0767025,93.9969674 C89.9048021,93.6648109 90.0311819,93.2527459 90.3624046,93.0702686" id="Fill-132" fill="#FFFFFE"></path>
                <path d="M137,158.417179 L145.48201,172.852207 C145.567575,172.99705 145.750347,173.043328 145.891209,172.955581 L146.856873,172.350365 C146.991915,172.265623 147.039063,172.087123 146.965139,171.942881 L139.261947,157 L137,158.417179" id="Fill-133" fill="#111110"></path>
                <path d="M137,157.832123 L148.909447,168.685419 C149.298514,169.039999 149.889755,169.10152 150.350523,168.835864 L163.544126,161.217975 C163.991377,160.95959 164.133604,160.405348 163.862667,159.980299 L162.667256,158.106168 C161.736316,156.6459 159.737499,156.180023 158.202389,157.066475 L157.088082,157.709641 C156.505069,158.046325 155.766312,158.016684 155.215624,157.634139 L147.101049,152 L137,157.832123" id="Fill-134" fill="#171816"></path>
                <path d="M141,154.90878 L147.326743,159.301741 C148.592818,160.181056 150.26135,160.234019 151.581893,159.437159 L152.398911,158.944238 C153.15904,158.485622 153.207456,157.40649 152.491506,156.882874 L145.82101,152 L141,154.90878" id="Fill-135" fill="#E5BD95"></path>
                <path d="M139.283859,157 L148.1989,165.126135 C148.867131,165.735188 149.846852,165.86911 150.656722,165.462104 L157.472447,162.034291 C157.664042,161.937635 157.860339,161.849712 158.056048,161.762372 C159.293187,161.13818 160.856508,160.304954 161.50652,159.776255 C161.934964,159.428641 162.309926,158.993686 162.587914,158.541846 L162.667256,158.6583 L163.862667,160.609481 C164.133604,161.052005 163.991377,161.629032 163.544126,161.89804 L158.024899,165.215222 L150.350523,169.829116 C149.889755,170.105693 149.298514,170.041644 148.909447,169.672486 L137,158.372988 L139.283859,157" id="Fill-136" fill="#141513"></path>
                <path d="M154.042487,160.862709 C154.318778,161.208443 155.867493,160.878703 157.500458,160.126084 C159.134043,159.373466 160.23425,158.483495 159.95734,158.137291 C159.681049,157.791557 158.132953,158.121297 156.499988,158.873916 C154.866403,159.626534 153.766196,160.516505 154.042487,160.862709" id="Fill-137" fill="#282826"></path>
                <path d="M124,171.914309 L129.462498,186.812671 C129.517331,186.962409 129.67909,187.037846 129.82385,186.981127 L130.819075,186.5909 C130.957803,186.53645 131.031828,186.378772 130.986865,186.231869 L126.330417,171 L124,171.914309" id="Fill-138" fill="#111110"></path>
                <path d="M124,172.406547 L133.242759,186.479189 C133.544894,186.939067 134.091106,187.119556 134.574185,186.918669 L148.413803,181.162775 C148.882789,180.96745 149.11841,180.392603 148.940849,179.878949 L148.157325,177.613554 C147.546854,175.848216 145.747004,174.959983 144.137117,175.629403 L142.968033,176.115242 C142.356433,176.369905 141.665354,176.196215 141.215533,175.675143 L134.595605,168 L124,172.406547" id="Fill-139" fill="#171816"></path>
                <path d="M131,169.84825 L135.804084,174.926463 C136.765759,175.942888 138.212029,176.271814 139.492474,175.765559 L140.285105,175.452297 C141.021924,175.16085 141.239267,174.183023 140.699935,173.583908 L135.675288,168 L131,169.84825" id="Fill-140" fill="#E5BD95"></path>
                <path d="M126.395665,171 L133.37297,180.80232 C133.896071,181.53681 134.796841,181.851422 135.632223,181.591526 L142.663078,179.402923 C142.861496,179.341072 143.061604,179.28933 143.261713,179.237589 C144.538462,178.837931 146.159622,178.288996 146.865921,177.878039 C147.330962,177.607437 147.761054,177.239895 148.102648,176.837263 L148.157325,176.968698 L148.940849,179.14838 C149.11841,179.642599 148.882789,180.195697 148.413803,180.383631 L134.574185,185.921746 C134.091106,186.115033 133.544894,185.941372 133.242759,185.498894 L124,171.958703 L126.395665,171" id="Fill-141" fill="#141513"></path>
                <path d="M141.01688,176.805536 C141.191131,177.132657 142.66798,177.03745 144.315651,176.592338 C145.962752,176.147227 147.157371,175.521467 146.98312,175.194346 C146.808869,174.867226 145.33202,174.962839 143.684349,175.407544 C142.037248,175.852656 140.842629,176.478416 141.01688,176.805536" id="Fill-142" fill="#282826"></path>
                <path d="M58,121.961867 L92.2352065,118 L96,126.062523 C96,126.062523 74.8991108,135 74.6018902,135 C74.3046697,135 67.1725561,129.560023 66.5781151,128.977107 C65.983674,128.39419 58,121.961867 58,121.961867" id="Fill-143" fill="#232422"></path>
                <path d="M122.51683,172 C117.03805,157.338359 109.853387,140.028756 106.929932,135.356121 C102.791822,134.853166 90.4609216,136.196132 78.5366558,138.508792 L76,125.407422 C76.3103728,125.34667 83.6951449,123.919586 91.7309997,122.911339 C107.310313,120.956765 116.229447,122.388522 119.219411,124.914982 C120.335469,125.858388 125.457204,127.398797 126.667191,131.718604 C127.397034,134.322756 128.736537,137.860967 129.607565,143.363098 C129.818758,144.697302 126.705696,146.100436 127.357945,147.686994 C131.273776,157.212182 134.965579,167.232148 135,167.323276 L122.51683,172" id="Fill-144" fill="#232422"></path>
                <path d="M66.5412154,7 C66.5412154,7 56.6835079,11.5738537 56.0210817,25.4129837 C55.4403913,37.5434833 67.0487095,43 67.0487095,43 L69,12.9816982 L66.5412154,7" id="Fill-145" fill="#A9463E"></path>
                <path d="M86.2626199,58 C75.4883277,58 65.4635823,48.0215166 65,39.0394093 L65.1782098,7.12121761 L65.5760735,6.42870085 L90.7048397,6 L98.6621145,17.3959051 C98.6621145,17.3959051 104.378446,21.3931872 100.849773,40.3261007 C99.1541157,49.4218608 95.563869,58 86.2626199,58" id="Fill-146" fill="#E5BD95"></path>
                <path d="M62.2696835,1.04937803 C62.2696835,1.04937803 60.6949376,0.835295291 59.56765,1.29865906 C58.4403624,1.76202283 59.11251,2.922602 60.5278609,3.62078174 C61.9425716,4.31944366 64.48457,4.02676748 64.9403501,2.95635378 C65.3967703,1.88642225 63.1108282,1.0985592 62.2696835,1.04937803" id="Fill-147" fill="#A9463E"></path>
                <path d="M83,32.5002293 C83,33.328543 82.328543,34 81.4997707,34 C80.671457,34 80,33.328543 80,32.5002293 C80,31.6719156 80.671457,31 81.4997707,31 C82.328543,31 83,31.6719156 83,32.5002293" id="Fill-148" fill="#79342F"></path>
                <path d="M98,32.5002293 C98,33.328543 97.3280844,34 96.4997707,34 C95.671457,34 95,33.328543 95,32.5002293 C95,31.6719156 95.671457,31 96.4997707,31 C97.3280844,31 98,31.6719156 98,32.5002293" id="Fill-149" fill="#79342F"></path>
                <path d="M96,33.5 C96,33.7760956 95.7760956,34 95.5,34 C95.2239044,34 95,33.7760956 95,33.5 C95,33.2239044 95.2239044,33 95.5,33 C95.7760956,33 96,33.2239044 96,33.5" id="Fill-150" fill="#FFFFFE"></path>
                <path d="M84,28 C84,28 83.8976384,27.9109275 83.7075382,27.7713499 C83.5186079,27.6317723 83.2413541,27.4407713 82.8892301,27.248393 C82.5347664,27.0583104 82.1030928,26.8696051 81.6176062,26.7497704 C81.3766177,26.6864096 81.1198362,26.644169 80.8583754,26.6262626 C80.7285223,26.6092746 80.5963296,26.6056015 80.4623821,26.6088154 L80.2763764,26.6078972 L80.0541054,26.6239669 C79.7470205,26.6354454 79.4779557,26.6639118 79.2135702,26.694674 C78.9468451,26.7401286 78.6754405,26.771809 78.4262631,26.8333333 C78.1765007,26.8911846 77.9349273,26.953168 77.714996,27.0293848 C77.4938949,27.1028466 77.2903414,27.1850321 77.1078453,27.2699725 C76.3743511,27.6097337 76,28 76,28 C76,28 76.0286613,27.8810836 76.1485706,27.6900826 C76.2684799,27.5009183 76.4837318,27.2387511 76.8311764,26.9857668 C77.1727718,26.7295684 77.6471448,26.4862259 78.1998976,26.3168044 C78.4759816,26.2291093 78.7678584,26.1597796 79.0731886,26.1078972 C79.3872925,26.0642792 79.7060759,26.0206612 79.9938583,26.0105601 L80.2167142,26 L80.4752504,26.0045914 C80.639029,26.0050505 80.8004679,26.0142332 80.9601521,26.0381084 C81.1210061,26.0509642 81.2760108,26.0831038 81.4263362,26.1216713 C81.5790012,26.1528926 81.7228924,26.1992654 81.8626892,26.2465565 C82.1452073,26.335629 82.3902903,26.4637282 82.6125612,26.587236 C82.8348322,26.7121212 83.0190831,26.8530762 83.1816919,26.9853076 C83.5028149,27.2534435 83.7051985,27.5137741 83.8303722,27.6988062 C83.953791,27.8856749 84,28 84,28" id="Fill-151" fill="#79342F"></path>
                <path d="M93,28 C93,28 93.0456274,27.8856749 93.1690553,27.6988062 C93.2942381,27.5137741 93.4966364,27.2534435 93.8183679,26.9853076 C93.9804036,26.8530762 94.164668,26.7121212 94.3875402,26.587236 C94.6092425,26.4637282 94.8549283,26.335629 95.1374671,26.2465565 C95.2766891,26.1992654 95.4205908,26.1528926 95.573267,26.1216713 C95.7236034,26.0831038 95.8786195,26.0509642 96.0394852,26.0381084 C96.199181,26.0142332 96.3612167,26.0050505 96.5244223,26.0045914 L96.7829775,26 L97.0058497,26.0105601 C97.2942381,26.0206612 97.6130447,26.0642792 97.9265867,26.1078972 C98.2319392,26.1597796 98.5238374,26.2291093 98.7999415,26.3168044 C99.3527347,26.4862259 99.8271424,26.7295684 100.168763,26.9857668 C100.516818,27.2387511 100.7315,27.5009183 100.851419,27.6900826 C100.971922,27.8810836 101,28 101,28 C101,28 100.625622,27.6097337 99.8920737,27.2699725 C99.7101492,27.1850321 99.5059959,27.1028466 99.2848786,27.0293848 C99.0655162,26.953168 98.8239251,26.8911846 98.5735595,26.8333333 C98.3243638,26.771809 98.0529395,26.7401286 97.7861948,26.694674 C97.522375,26.6639118 97.2527055,26.6354454 96.9455981,26.6239669 L96.7238959,26.6078972 L96.5372916,26.6088154 C96.4039193,26.6056015 96.2711319,26.6092746 96.1412694,26.6262626 C95.8797894,26.644169 95.6229892,26.6864096 95.382568,26.7497704 C94.896461,26.8696051 94.4647558,27.0583104 94.1102662,27.248393 C93.7581164,27.4407713 93.4814273,27.6317723 93.2918982,27.7713499 C93.1017841,27.9109275 93,28 93,28" id="Fill-152" fill="#79342F"></path>
                <path d="M82,32.642354 C82,32.642354 81.8019645,32.8331268 81.4338826,32.9316453 C81.2516899,32.9868839 81.0293621,33.0108017 80.7880228,32.995426 C80.6692015,32.9772029 80.5408745,32.9726472 80.4183566,32.9293674 C80.2947824,32.8889349 80.1685678,32.847933 80.0492184,32.7841523 C79.9277567,32.7254968 79.8163287,32.6463403 79.712294,32.5609197 C79.600338,32.4868885 79.5232362,32.369008 79.4350444,32.2784621 C79.3452683,32.1879163 79.2929869,32.0677579 79.2317279,31.9692395 C79.1662442,31.8729989 79.1361428,31.7613826 79.1018166,31.6662809 C79.0268272,31.4783555 79.0157372,31.3029585 79.0057034,31.1856475 C78.997782,31.0671976 79.0004225,31 79.0004225,31 C79.0004225,31 79.05376,31.0438493 79.1335023,31.1207278 C79.1725813,31.1594518 79.221166,31.20444 79.2681665,31.2591093 C79.3135826,31.3149174 79.3838192,31.3621835 79.4419096,31.4236863 C79.5063371,31.4806334 79.5649556,31.5489699 79.6399451,31.6053476 C79.7144064,31.6605862 79.7809463,31.7300617 79.8601605,31.7847309 C80.0170046,31.8963472 80.1796578,32.0091024 80.3576257,32.095662 C80.5271441,32.2004446 80.7188424,32.2596696 80.8989227,32.3337008 C81.0832277,32.3934953 81.263308,32.4504424 81.4259611,32.4942916 C81.7702788,32.5831291 82,32.642354 82,32.642354" id="Fill-153" fill="#79342F"></path>
                <path d="M81,33.5 C81,33.7760956 80.7760064,34 80.4998007,34 C80.2235951,34 80,33.7760956 80,33.5 C80,33.2239044 80.2235951,33 80.4998007,33 C80.7760064,33 81,33.2239044 81,33.5" id="Fill-154" fill="#FFFFFE"></path>
                <path d="M97,32.642354 C97,32.642354 97.229709,32.5831291 97.5740083,32.4942916 C97.7366528,32.4504424 97.9172516,32.3934953 98.1015468,32.3337008 C98.2810895,32.2596696 98.4733057,32.2004446 98.642287,32.095662 C98.8202454,32.0091024 98.9828899,31.8963472 99.1397257,31.7847309 C99.2189357,31.7300617 99.2854721,31.6605862 99.3604575,31.6053476 C99.4349149,31.5489699 99.4935303,31.4806334 99.5579544,31.4236863 C99.6160417,31.3621835 99.6862746,31.3149174 99.7316883,31.2591093 C99.7792143,31.20444 99.8277964,31.1594518 99.8663453,31.1207278 C99.9466114,31.0438493 99.999418,31 99.999418,31 C99.999418,31 100.002586,31.0671976 99.9941374,31.1856475 C99.9841041,31.3029585 99.9730147,31.4783555 99.8980293,31.6662809 C99.8637049,31.7613826 99.8341332,31.8729989 99.768653,31.9692395 C99.7068692,32.0677579 99.6545906,32.1879163 99.5648193,32.2784621 C99.4766322,32.369008 99.4000625,32.4868885 99.2875843,32.5609197 C99.1835552,32.6463403 99.0721332,32.7254968 98.9506779,32.7841523 C98.8313348,32.847933 98.7051269,32.8889349 98.5820874,32.9293674 C98.4590479,32.9726472 98.3307277,32.9772029 98.2119128,32.995426 C97.9711144,33.0108017 97.7482703,32.9868839 97.5660874,32.9316453 C97.198553,32.8331268 97,32.642354 97,32.642354" id="Fill-155" fill="#79342F"></path>
                <path d="M89,64 L93.5982155,80.7882289 C94.0106498,82.2953826 94.1067896,83.8751138 93.8809463,85.4232387 L93.0657486,91 L91.0633091,89.8586603 L89,64" id="Fill-156" fill="#3B3C3A"></path>
                <path d="M69.8378789,35.7893972 C70.0949504,27.4679395 73.9504489,20.7063922 73.9504489,20.7063922 C73.9504489,20.7063922 70.2711132,18.8132519 65.095828,21.2253948 L65,38.6967406 C65.3970836,46.5195147 73.0271721,55.103957 82,57 C75.0160332,52.5472596 69.5831027,44.0417707 69.8378789,35.7893972" id="Fill-157" fill="#D5AC84"></path>
                <path d="M65.4321407,7 C65.4321407,7 77.5700203,14.0209086 77.9792034,17.1409759 C78.3883864,20.2616489 72.6604325,21.211419 69.5233624,25.4169377 C66.3869012,29.6224565 65.2275492,34 65.2275492,34 L64,17.5686147 L65.4321407,7" id="Fill-158" fill="#A9463E"></path>
                <path d="M73.1417642,11.115811 C76.4435993,13.360986 78.7348958,16.2763189 78.7348958,16.2763189 C78.7348958,16.2763189 84.6814813,14.4671854 89.9463636,14.9459532 C95.211246,15.4241357 98.7563371,18 98.7563371,18 C98.7563371,18 103.580428,11.5893111 94.2264984,5.62168732 C86.774656,0.86795638 79.390808,0.38040924 73.8768079,1.51119084 C68.3628079,2.64255773 66,7.0995463 66,7.0995463 C66,7.0995463 68.4677304,7.93709726 73.1417642,11.115811" id="Fill-159" fill="#A9463E"></path>
                <path d="M124.411617,113.50145 C121.646956,113.732889 120.710341,113 120.710341,113 C120.710341,113 119.570114,113.326034 119,114.445573 L121.607907,115.825479 C124.103689,116.50556 126.683704,115.120143 127,113.021123 C126.334496,113.222714 125.469842,113.412824 124.411617,113.50145" id="Fill-160" fill="#D5AC84"></path>
                <path d="M68.2505258,20.7063569 C67.9847237,20.632968 67.725492,20.5483341 67.473428,20.4512714 L67.4549115,20.4441692 C67.2016529,20.3459228 66.9567566,20.2352477 66.7238065,20.1091846 C66.5302787,20.0044279 66.348697,19.8984875 66.1730885,19.7919553 C66.10619,19.7511179 66.042278,19.7102806 65.9777688,19.6694432 C65.877421,19.6055239 65.7794625,19.5416046 65.6844905,19.4776852 C65.6074378,19.425011 65.5315797,19.3729285 65.4587081,19.3202543 C65.3894204,19.2711311 65.3237165,19.221416 65.2580126,19.1722929 C65.177376,19.1113327 65.0955448,19.0509645 65.020284,18.9905962 C63.0993414,17.4559404 62.7499162,16 62.7499162,16 C62.7499162,16 62.6161192,17.9217229 63.2851042,19.6451776 C63.9540892,21.3686322 64.5561757,22.0309075 64.5561757,22.0309075 C64.5561757,22.0309075 61.3456451,23.4892153 59.4724871,22.0309075 C58.2247107,21.0596887 57.8991778,18.8562473 57.8388497,17.0795265 C56.8777811,19.4037045 56.179528,22.205502 56.0206441,25.5588996 C55.4520069,37.5887549 66.8193758,43 66.8193758,43 L67.6729289,29.707146 C68.3210081,28.3636563 69.1948698,26.8177554 70.3357281,25.2937527 C71.9383055,23.1536388 74.2283844,21.8770276 76,20.7140509 C76,20.7140509 71.6521949,21.6438404 68.2505258,20.7063569" id="Fill-161" fill="#903C36"></path>
                <path d="M75.9914653,124.322195 L73.0248888,96.0668235 L73.8725682,90.4761151 C74.1123524,88.8952487 74.009932,87.2815099 73.5731392,85.7430789 L70.9843132,76.6302361 L70.5252288,72.2552109 L64.4378428,57 L54,64.0191661 L58.0618722,106.263262 L54.66754,121.85437 C54.4867981,122.682756 55.0585449,123.487234 55.9056217,123.597208 L74.2683929,125.986736 C75.2498212,126.11464 76.0944882,125.299403 75.9914653,124.322195" id="Fill-162" fill="#3B3C3A"></path>
                <path d="M69.2273502,87 C69.2273502,87 68.9601311,91.3164093 68.6261073,92.3126406 C68.2920834,93.3088719 66.2217319,93.2424565 66.2217319,93.2424565 L61.5459941,94.9354567 L61.5459941,104.000568 L56.0715815,120.7503 C55.7918365,121.605992 56.3620629,122.503786 57.2591556,122.620606 L75.4109672,124.987841 C76.3116387,125.105254 77.0864548,124.355709 76.9922123,123.457321 L75.6704321,110.844915 L72.3671746,96.2969728 L69.2273502,87" id="Fill-163" fill="#2F302E"></path>
                <path d="M74.3494584,105.703064 C74.3743879,105.659571 74.4343374,105.550539 74.5215907,105.387288 L73.3778009,94.3655175 L74.2129396,88.7923705 C74.4491764,87.2164699 74.3482713,85.6078002 73.9179403,84.0742017 L71.4243953,75.1913657 L68.0980858,73 L67,79.9703064 L68.0322006,83.5921966 C68.8335065,86.5021014 69.7968541,90.2604306 69.7185042,91.2464856 C69.5855468,92.9147357 69.319632,98.3329737 70.3832913,100.794834 C71.4469506,103.256695 75,110 75,110 L74.3494584,105.703064" id="Fill-164" fill="#171816"></path>
                <path d="M93.8452474,102.52455 L87.9178558,63.6823968 L80.1696353,58 L80,60.5934349 L81.3883459,70.3041202 L84.9790553,83.241316 C85.3988012,84.7549367 85.4972244,86.3414464 85.2667984,87.8962141 L84.5726254,92.5822664 L88.7776113,122 L97,122 L93.8452474,102.52455" id="Fill-165" fill="#3B3C3A"></path>
                <path d="M89.3723614,86.3333617 C89.3723614,86.3333617 90.2885837,86.6667234 91.6623329,86.600051 C93.0366664,86.5333787 93.6256665,86 93.6256665,86 C93.6256665,86 92.4476664,90.9331576 92.6439997,92.0665873 C92.8403331,93.200017 93.8874443,98.2665193 93.8874443,98.2665193 L95,106.399949 L87.3435834,107 L87,99.199932 L89.3723614,86.3333617" id="Fill-166" fill="#2F302E"></path>
                <path d="M58.2244421,98.0327107 C59.1998104,103.525936 63.3060271,107.882736 68.6854755,109.133227 L89.6266437,114 L92,105.139141 L71.3793781,99.2753553 C68.8221703,98.6814931 66.8708369,96.6108211 66.4070296,94 L58,96.3434624 L58.2244421,98.0327107" id="Fill-167" fill="#E5BD95"></path>
                <path d="M88.1224199,78.6285883 L84.1193501,72 L83,75.6100075 L85.1754174,83.4669437 C85.5963348,84.9883463 85.6950327,86.5830124 85.4639635,88.1457735 L84.7678532,92.8559175 L85.9295853,101 C85.9295853,101 87.7972975,93.4497076 88.7064792,89.1490129 C89.6156608,84.8483182 88.1224199,78.6285883 88.1224199,78.6285883" id="Fill-168" fill="#171816"></path>
                <path d="M89,110.168034 C89,110.168034 66.8122531,105.29197 64.0304092,101.337927 C61.8094395,98.181165 63.6705486,95.1103094 64.5109935,94 L58,95.8287449 L58.2171872,97.4756743 C59.1610271,102.831284 63.1345122,107.078938 68.3400723,108.298102 L88.4212193,113 C88.6834613,112.140349 89,110.168034 89,110.168034" id="Fill-169" fill="#D5AC84"></path>
                <polyline id="Fill-170" fill="#F3DE49" points="95 105.159904 93.2134964 106 86 91.8400956 87.7865036 91 95 105.159904"></polyline>
                <path d="M86.4477758,89.9007335 C85.9586077,90.136866 85.3681918,89.9372847 85.1286113,89.4551566 L85.1003561,89.3988793 C84.8613642,88.9167512 85.0638598,88.3348324 85.5524392,88.09928 C86.0416073,87.8631475 86.6320232,88.0627288 86.8710151,88.5442767 L86.8992703,88.6011342 C87.1388509,89.0832623 86.9363553,89.6651811 86.4477758,89.9007335" id="Fill-171" fill="#E15E5C"></path>
                <polyline id="Fill-172" fill="#CDCCC7" points="87 90.3564875 85.6713781 91 85 89.6430756 86.3286219 89 87 90.3564875"></polyline>
                <g id="Group-175" transform="translate(92.000000, 105.000000)">
                    <mask id="mask-4" fill="white">
                        <use xlink:href="#path-3"></use>
                    </mask>
                    <g id="Clip-174"></g>
                    <polygon id="Fill-173" fill="#393937" mask="url(#mask-4)" points="0.598666667 0.846 1.554 0.846 1.554 0.4955 0.598666667 0.4955"></polygon>
                </g>
                <polyline id="Fill-176" fill="#DAC642" points="93.1331569 107 93.1331569 107 86 92.4247338 86.8668431 92 94 106.575871 93.1331569 107"></polyline>
                <path d="M85.091,91.192 L85.043,91.095 C85.042,91.092 85.04,91.089 85.039,91.085 C85.04,91.089 85.042,91.092 85.043,91.095 L85.091,91.192 M85.038,91.084 C85.037,91.081 85.035,91.078 85.034,91.076 C85.035,91.079 85.037,91.081 85.038,91.084 M85.033,91.073 C85.032,91.071 85.031,91.068 85.03,91.066 C85.031,91.068 85.032,91.071 85.033,91.073 M85.028,91.062 C85.027,91.061 85.026,91.058 85.025,91.057 C85.026,91.058 85.027,91.061 85.028,91.062 M85.023,91.053 C85.022,91.051 85.022,91.049 85.021,91.047 C85.022,91.049 85.022,91.051 85.023,91.053 M85.019,91.042 C85.018,91.041 85.017,91.039 85.016,91.037 C85.017,91.039 85.018,91.041 85.019,91.042 M85.014,91.032 C85.013,91.03 85.013,91.029 85.012,91.028 C85.013,91.029 85.013,91.03 85.014,91.032 M85.009,91.021 C85.009,91.02 85.009,91.019 85.008,91.018 C85.009,91.019 85.009,91.02 85.009,91.021 M85.005,91.011 C85.005,91.01 85.004,91.01 85.004,91.009 C85.004,91.01 85.005,91.01 85.005,91.011 M85.001,91 L85,91 L85.001,91" id="Fill-177" fill="#B9B9B4"></path>
                <path d="M85.1561341,89 L85.1288935,88.9687764 L85.1004686,88.9278481 C85.0998764,88.9265823 85.098692,88.9253165 85.0980998,88.9236287 C85.0975077,88.9236287 85.0975077,88.9232068 85.0975077,88.9232068 C85.0969155,88.9219409 85.0957311,88.921097 85.0951389,88.9198312 C85.0951389,88.9194093 85.0945467,88.9189873 85.0945467,88.9185654 C85.0939545,88.9177215 85.0933624,88.9164557 85.0927702,88.9156118 C85.092178,88.9151899 85.0915858,88.9147679 85.0915858,88.9139241 C85.0909936,88.9135021 85.0904014,88.9122363 85.0898092,88.9118143 C85.0898092,88.9109705 85.089217,88.9105485 85.0886249,88.9101266 C85.0880327,88.9092827 85.0880327,88.9084388 85.0874405,88.9075949 C85.0868483,88.9067511 85.0862561,88.9063291 85.0862561,88.9054852 C85.0856639,88.9050633 85.0850717,88.9042194 85.0844796,88.9033755 C85.0844796,88.9029536 85.0838874,88.9021097 85.0832952,88.9012658 C85.082703,88.9004219 85.082703,88.9 85.0821108,88.8995781 C85.0815186,88.8987342 85.0809264,88.8974684 85.0803342,88.8966245 C85.0803342,88.8962025 85.0803342,88.8957806 85.0797421,88.8953586 C85.0791499,88.8945148 85.0785577,88.8932489 85.0779655,88.8924051 C85.0779655,88.8919831 85.0773733,88.8919831 85.0773733,88.8915612 C85.0767811,88.8902954 85.0761889,88.8890295 85.0755968,88.8877637 L85.0750046,88.8877637 C85.0744124,88.8864979 85.0738202,88.8848101 85.0726358,88.8835443 C84.8837283,88.5531646 85.0744124,88.1729958 85.5155914,88 L86,88.7054852 L85.1561341,89" id="Fill-178" fill="#D05855"></path>
                <polyline id="Fill-179" fill="#B9B9B4" points="85.5147308 91 85.5147308 91 85 89.368269 85.0027091 89.3666929 85.4852692 89 86 90.6312057 85.5147308 91"></polyline>
                <polyline id="Fill-180" fill="#A32D2E" points="82 124 94.0104031 96.052803 123 96 112.348148 117.387622 82 124"></polyline>
                <polyline id="Fill-181" fill="#D13E3E" points="123 96.0234462 122.208092 95 93.7683394 95 81 124 82.6168123 123.466182 94.4465285 96.0234462 123 96.0234462"></polyline>
                <polyline id="Fill-182" fill="#A32D2E" points="97.0883132 100 129 100.923373 120.824551 119.664846 87 126 97.0883132 100"></polyline>
                <polyline id="Fill-183" fill="#D13E3E" points="126.505658 99.2487793 121.450731 95 122.763265 95 129 100.163317 97.2260061 99.2487793 87.1812221 125 86 124.477073 96.569446 98.0068284 126.505658 99.2487793"></polyline>
                <polyline id="Fill-184" fill="#732224" points="121.110722 96 125 99 120 98.8091684 121.110722 96"></polyline>
                <path d="M93,46.4696382 C93,46.4696382 92.1308951,46.770634 90.7215854,46.9073248 C90.3706361,46.9505872 89.9884504,46.9685364 89.5823782,46.9878664 C89.1769184,46.9910881 88.7451221,47.0145603 88.3029136,46.9860255 C87.8600927,46.9653148 87.39951,46.9510474 86.9383148,46.8925971 C86.4728323,46.8539371 86.0097996,46.7738557 85.545542,46.6974561 C85.079447,46.6270397 84.6311138,46.5041561 84.1840056,46.4024434 C83.7368974,46.3007308 83.3228629,46.1433293 82.9100534,46.0222867 C82.4978563,45.8984826 82.1297576,45.7258933 81.7702336,45.5855206 C81.4064223,45.4515913 81.0946714,45.2776213 80.8019074,45.1294246 C80.5115933,44.977546 80.2396535,44.848219 80.0246741,44.7023235 C79.8041823,44.5647123 79.6192143,44.4367661 79.4667075,44.3336727 C79.1635314,44.1251848 79,44 79,44 C79,44 79.2241666,44.0612117 79.6002275,44.1785724 C79.7876455,44.2384034 80.0154869,44.3088198 80.2678275,44.3976458 C80.5177181,44.4896935 80.8251816,44.5573485 81.1369324,44.6599816 C81.4560329,44.7520292 81.7898329,44.8661683 82.1591565,44.9577557 C82.5278677,45.0498034 82.9045411,45.1648629 83.3051011,45.2610527 C83.7081109,45.3521799 84.1184706,45.4561937 84.5423047,45.5436389 C84.9710386,45.619118 85.3911978,45.7346378 85.8309563,45.794929 C86.2652026,45.8717888 86.6994488,45.9504895 87.13247,46.0057181 C87.5636539,46.0719924 87.9899379,46.1299824 88.4064223,46.1746255 C88.8216817,46.223871 89.226529,46.2565479 89.6111646,46.2984296 C89.9958002,46.3182199 90.3620614,46.362863 90.7013737,46.3775906 C92.0586228,46.4627347 93,46.4696382 93,46.4696382" id="Fill-185" fill="#C49770"></path>
                <polyline id="Fill-186" fill="#232422" points="63 58.6117172 67.22258 73.869387 72 77 71.4819883 72.3842445 65.381767 57 63 58.6117172"></polyline>
                <polyline id="Fill-187" fill="#232422" points="81.717669 58.9485545 85 70.1585872 83.2277807 75 81.5945982 70.0043181 80 60.5308167 80.1949175 58 81.717669 58.9485545"></polyline>
                <path d="M135.734809,133.541676 C124.203035,116.617514 118.8197,113.135567 113.870885,113.003878 C109.74648,112.895393 104.013182,115.067984 94.2553012,118.921794 C89.5466451,120.781694 84.6776869,122.704248 80.4229267,124.060595 C75.9585406,125.483076 73.8616943,125.72325 73.0284753,125.744715 C72.5164478,125.230139 72.1471069,124.485251 71.8858085,123.648122 L58,121.848555 C58.3599459,126.638117 60.0586792,133.38272 66.2934354,137.302666 C72.7413406,141.357201 83.0118361,137.636241 99.2352378,131.228114 C103.629749,129.492362 110.035376,126.96299 112.79046,126.374737 C112.79046,126.374737 115.333569,125.503381 118.70285,127.216508 C122.056278,128.922093 125.842462,140.123843 128.720268,147.180556 C132.529353,153.1298 135.319667,157.940247 135.354312,158 L147,151.421894 C146.7892,151.056992 141.762288,142.387514 135.734809,133.541676" id="Fill-188" fill="#232422"></path>
                <path d="M57.2430224,97 L66,94.6925014 L62.0629663,65.8948235 C61.6961234,63.9415019 58.1402334,62.7084193 56.0964826,63.059625 C54.0527319,63.4102364 52.6929257,65.2779851 53.0597687,67.231901 L57.2430224,97" id="Fill-189" fill="#2F302E"></path>
                <path d="M65.7146477,35.788762 L66,27.2215703 C65.5538447,27.0792142 65.0784524,27 64.5837638,27 C62.0524315,27 60,29.0147969 60,31.500287 C60,33.9852031 62.0524315,36 64.5837638,36 C64.9936653,36 65.3889484,35.9420244 65.7672741,35.8432936 L65.7146477,35.788762" id="Fill-190" fill="#E5BD95"></path>
                <path d="M56.4984076,91.8310566 L66.207997,89.0271392 C66.5618946,88.9247506 66.9292908,89.1207012 67.0396271,89.4696462 L67.9686817,92.422439 C68.0848869,92.7925678 67.8671489,93.1879996 67.4903624,93.2897998 L57.5747728,95.9760292 C57.2097242,96.0748871 56.8376328,95.8589296 56.7443165,95.4946851 L56.021262,92.6595804 C55.9297064,92.3018087 56.1421623,91.9340336 56.4984076,91.8310566" id="Fill-191" fill="#FFFFFE"></path>
                <path d="M70,24.8636865 C68.3892291,27.0916115 67.445032,29.5827815 67.2397718,32.1451435 L67.0908711,34 L65,24 L70,24.8636865" id="Fill-192" fill="#903C36"></path>
                <path d="M71.9061785,16.6869106 C71.9061785,16.6869106 71.3436262,14.6352413 68.7241674,13.2032624 C66.105307,11.7706582 64.4002948,11.6974959 63.308704,12.5610605 C62.0776721,13.5346811 64.7108955,17.8656356 67.9754941,18.7273242 C70.8534876,19.4864606 72.4100817,18.6141416 71.9061785,16.6869106" id="Fill-193" fill="#C44E44"></path>
                <path d="M90.3487251,4.21716321 C90.3487251,4.21716321 88.6956901,2.39880193 85.1739514,2.07960589 C81.6522128,1.76099661 79.8025389,2.41523114 79.0863928,3.74717051 C78.2782705,5.24985629 83.3058822,8.47115459 87.2202643,7.94189939 C90.6703248,7.47542723 91.8761651,5.93577573 90.3487251,4.21716321" id="Fill-194" fill="#C44E44"></path>
                <path d="M99.0559216,10.8129015 C97.5804997,7.87106149 93.2866204,5.33989752 93.2866204,5.33989752 C93.2866204,5.33989752 95.9702949,8.55188896 93.2866204,9.3227669 C90.6035449,10.0930713 79.3327108,10.3500306 75.7774411,7.0743729 C72.2221713,3.79814163 74.7039712,2 74.7039712,2 C74.7039712,2 72.0879876,2.32119914 69.5384968,3.54175589 C67.7443885,4.40039003 66.5511117,5.82972622 66,6.60232487 C67.0644843,7.05315081 69.2839071,8.10966656 72.5708094,10.2536708 C75.9451707,12.453885 78.2867966,15.3108366 78.2867966,15.3108366 C78.2867966,15.3108366 84.3640016,13.5379321 89.7445294,14.0071123 C95.1250573,14.4757189 98.7480179,17 98.7480179,17 C98.7480179,17 99.8460481,15.5981952 100,13.5040915 C99.8190916,12.6770037 99.5267627,11.7512619 99.0559216,10.8129015" id="Fill-195" fill="#903C36"></path>
                <polyline id="Fill-196" fill="#171816" points="70 109.10359 61.3701876 108 61 109.60771 65.1212241 111 69.6381046 110.675103 70 109.10359"></polyline>
                <path d="M135.291482,149.989391 C132.036703,145.373887 125.230613,124.161861 118.424523,122.197568 C111.618434,120.233275 78.7723428,133.589298 72.1635482,132.508937 C67.5793759,131.759465 65.6064261,126.571043 64.8272283,123.460912 L58,122.56938 C58.3599459,127.395929 60.0586792,134.192616 66.2934354,138.142833 C72.7413406,142.228679 83.0118361,138.478984 99.2352378,132.021371 C103.629749,130.272215 110.035376,127.723311 112.79046,127.130515 C112.79046,127.130515 115.333569,126.25243 118.70285,127.978786 C122.056278,129.697542 125.842462,140.985796 128.720268,148.097005 C132.529353,154.092191 135.319667,158.939785 135.354312,159 L147,152.371096 C147,152.371096 138.54685,154.604894 135.291482,149.989391" id="Fill-197" fill="#171816"></path>
                <path d="M126.776073,166.675259 C124.299289,164.826144 118.433803,145.538132 115.696305,140.782337 C112.959388,136.026542 108,136 108,136 C110.916157,140.718046 118.082886,158.195871 123.54799,173 L136,168.277826 C136,168.277826 129.252276,168.524964 126.776073,166.675259" id="Fill-198" fill="#171816"></path>
                <path d="M60.8970946,68.5703095 C61.3605799,71.3212959 60.2147588,73.744018 58.338178,73.981219 C56.4622261,74.21842 54.5655211,72.1812178 54.1026647,69.4302313 C53.6398084,66.6792449 54.7856295,64.2565228 56.6615814,64.0187765 C58.5381621,63.7815755 60.4342382,65.8193231 60.8970946,68.5703095" id="Fill-199" fill="#565653"></path>
                <path d="M116.968514,115.772433 C117.331993,117.453585 114.506613,119.589221 110.658152,120.543574 C106.80911,121.497305 103.394965,120.907907 103.031486,119.227376 C102.668007,117.546845 105.493387,115.410587 109.341848,114.456856 C113.19031,113.502504 116.605035,114.091902 116.968514,115.772433" id="Fill-200" fill="#2F302E"></path>
                <path d="M87.9820961,106.805139 C87.7080844,108.128366 84.359441,108.392881 80.503498,107.395912 C76.6475549,106.398942 73.7433805,104.518088 74.0179739,103.194861 C74.2919856,101.871634 77.6400472,101.607119 81.4959903,102.604088 C85.3525151,103.601058 88.2561077,105.481912 87.9820961,106.805139" id="Fill-201" fill="#ECCDAE"></path>
                <path d="M61,137 C61,137 66.0787134,141.584052 76.3680701,141.979228 C86.6574268,142.374405 92,137 92,137 C92,137 83.8874872,140.556592 75.5105255,140.003344 C67.1341528,139.450097 61,137 61,137" id="Fill-202" fill="#732224"></path>
                <path d="M53.2954244,148 L101.70632,148 C102.966826,148 103.988953,146.918929 104,145.580578 C104,145.580578 102.048192,141.143115 99.2480994,141.004579 C96.4485887,140.866044 92.020536,143.913205 81.0818039,144.398079 C70.1430718,144.882953 59.2694582,141.420186 55.4274713,141.974327 C51.5860658,142.528469 51,145.558313 51,145.558313 C51,146.90656 52.0279408,148 53.2954244,148" id="Fill-203" fill="#732224"></path>
            </g>
        </g>
    </g>
</svg>