<?xml version="1.0" encoding="UTF-8" standalone="no"?>
<svg width="444px" height="258px" viewBox="0 0 444 258" version="1.1" xmlns="http://www.w3.org/2000/svg" xmlns:xlink="http://www.w3.org/1999/xlink">
    <!-- Generator: Sketch 49.1 (51147) - http://www.bohemiancoding.com/sketch -->
    <title>Group 5 Copy</title>
    <desc>Created with Sketch.</desc>
    <defs>
        <polygon id="path-1" points="0 0 481 0 481 173 0 173"></polygon>
    </defs>
    <g id="Page-1" stroke="none" stroke-width="1" fill="none" fill-rule="evenodd">
        <g id="Artboard-Copy-3" transform="translate(-745.000000, -256.000000)">
            <g id="Group-5-Copy" transform="translate(723.000000, 256.000000)">
                <path d="M372.972514,10 L299.026879,10 C298.460032,10 298,9.55227407 298,9 C298,8.4483166 298.460032,8 299.026879,8 L372.972514,8 C373.539361,8 374,8.4483166 374,9 C374,9.55227407 373.539361,10 372.972514,10" id="Fill-203" fill="#2F3331"></path>
                <path d="M265.934078,33 L241.065922,33 C240.477871,33 240,32.5522741 240,32 C240,31.4483166 240.477871,31 241.065922,31 L265.934078,31 C266.522759,31 267,31.4483166 267,32 C267,32.5522741 266.522759,33 265.934078,33" id="Fill-204" fill="#2F3331"></path>
                <path d="M436.965104,53 L349.030634,53 C348.46205,53 348,52.5522741 348,52 C348,51.4477259 348.46205,51 349.030634,51 L436.965104,51 C437.537341,51 438,51.4477259 438,52 C438,52.5522741 437.537341,53 436.965104,53" id="Fill-205" fill="#2F3331"></path>
                <path d="M388.026942,10 L381.973058,10 C381.435663,10 381,9.55227407 381,9 C381,8.4483166 381.435663,8 381.973058,8 L388.026942,8 C388.564337,8 389,8.4483166 389,9 C389,9.55227407 388.564337,10 388.026942,10" id="Fill-206" fill="#2F3331"></path>
                <path d="M277.026942,33 L270.973058,33 C270.435663,33 270,32.5522741 270,32 C270,31.4483166 270.435663,31 270.973058,31 L277.026942,31 C277.564337,31 278,31.4483166 278,32 C278,32.5522741 277.564337,33 277.026942,33" id="Fill-207" fill="#2F3331"></path>
                <path d="M44,95 C44,95 39.2749055,74.7183727 23,68 C23,68 36.1846698,78.6541494 40.4563366,95 L44,95" id="Fill-208" fill="#FFFFFE"></path>
                <path d="M40.3646322,93.6453166 L42.4006778,93.6453166 C41.4379588,90.2703123 37.1885248,77.4059217 26.7444456,70.5886891 C30.8863615,74.9216352 37.4826546,83.1013541 40.3646322,93.6453166 Z M43.3022226,95 L39.8251883,95 C39.5051059,95 39.227042,94.789925 39.1498021,94.4880173 C35.0597914,78.7528024 22.376989,68.3012728 22.2484617,68.198036 C21.9846099,67.9825591 21.9222001,67.6110265 22.1032505,67.3235239 C22.2830652,67.0354211 22.6556708,66.9225809 22.9708098,67.0552282 C39.081213,73.744015 43.9355904,93.9706327 43.9831702,94.1741053 C44.0295142,94.3739766 43.9788447,94.5846518 43.8472278,94.7461094 C43.714993,94.9057664 43.514787,95 43.3022226,95 Z" id="Fill-209" fill="#2F3331"></path>
                <path d="M41,95 C41,95 38.3769761,85.9737937 29,82 C29,82 36.8569112,88.9106212 37.7859749,95 L41,95" id="Fill-210" fill="#FFFFFE"></path>
                <path d="M38.5107938,93.6360173 L40.2490252,93.6360173 C39.4897026,91.884052 37.375947,87.8573721 32.9625833,84.7432371 C35.21,87.1436532 37.7629279,90.4378798 38.5107938,93.6360173 Z M41.2813984,95 L37.9156835,95 C37.5624361,95 37.2607438,94.7546402 37.2060064,94.423465 C36.285654,88.8164507 28.3302698,82.2630488 28.2500731,82.1977807 C27.9821144,81.9790117 27.9216486,81.609159 28.1068648,81.3239132 C28.2933539,81.0374587 28.6682416,80.9256569 28.9934837,81.0507541 C39.0104319,84.9922228 41.8542319,93.7532582 41.9700716,94.1237152 C42.0349927,94.3297932 41.9929849,94.5540012 41.8567778,94.7256322 C41.7218437,94.8984718 41.5086224,95 41.2813984,95 Z" id="Fill-211" fill="#2F3331"></path>
                <path d="M44,94 C44,94 42.0667984,72.5822332 24,58 C24,58 36.2213015,70.8427888 40.4134107,94 L44,94" id="Fill-212" fill="#FFFFFE"></path>
                <path d="M40.3755496,93.6665845 L42.5045906,93.6665845 C42.0463161,90.3912386 39.5663891,76.6234427 29.1141087,64.8164825 C32.915165,70.7545239 37.9412003,80.5640194 40.3755496,93.6665845 Z M43.2956449,95 L39.782415,95 C39.4383969,95 39.1449514,94.7654559 39.087511,94.4440656 C35.0623123,71.9496943 23.2976435,59.2364605 23.1790166,59.110622 C22.9311488,58.8489016 22.9423871,58.4501176 23.2021176,58.2002129 C23.4624725,57.9473543 23.8839103,57.9331754 24.1642444,58.1624023 C41.8752436,72.6190606 43.9780619,94.0624145 43.9974168,94.2774625 C44.0142743,94.4635617 43.948093,94.6472977 43.8144816,94.7837705 C43.6808702,94.9220156 43.4923158,95 43.2956449,95 Z" id="Fill-213" fill="#2F3331"></path>
                <path d="M43,94 C43,94 38.8178066,56.6942177 30,43 C30,43 36.6966128,86.904405 40.2120892,94 L43,94" id="Fill-214" fill="#FFFFFE"></path>
                <path d="M40.0642939,93.660798 L41.4899604,93.660798 C40.9191876,88.8439431 37.4812621,61.7288116 31.0470957,47.6835082 C32.7170175,58.4641731 37.3306591,87.1778026 40.0642939,93.660798 Z M42.2866378,95 L39.5903373,95 C39.3100132,95 39.0543677,94.8457277 38.9404663,94.6066057 C35.5354456,87.5516162 29.2721314,45.5468373 29.0069941,43.7626191 C28.9595352,43.446361 29.1575972,43.1431566 29.4796852,43.0369461 C29.799242,42.9325157 30.1561332,43.0553401 30.3288838,43.3312501 C38.8385877,56.902463 42.8302008,92.742878 42.9959907,94.2624599 C43.0175054,94.4505534 42.9516957,94.6392402 42.8162795,94.7786786 C42.6808633,94.9204904 42.4884965,95 42.2866378,95 Z" id="Fill-215" fill="#2F3331"></path>
                <path d="M44,95 C44,95 41.6467778,55.7918594 37,46 C37,46 38.7008243,87.783379 40.3105096,95 L44,95" id="Fill-216" fill="#FFFFFE"></path>
                <path d="M40.4005612,93.6389567 L42.5613205,93.6389567 C42.2767659,89.0348073 40.5978936,63.5506741 37.6150189,50.9352443 C38.09072,62.0020879 39.2672915,87.1364625 40.4005612,93.6389567 Z M43.3017811,95 L39.8209358,95 C39.4893678,95 39.2048132,94.7726569 39.1380047,94.4578742 C37.6255351,87.3215933 36.066052,47.4026827 36.0004807,45.7063536 C35.9881088,45.3807163 36.2157525,45.091261 36.5417531,45.017691 C36.8757955,44.9435181 37.2030333,45.1081459 37.3378875,45.4072497 C41.7218844,55.1275229 43.9086248,92.6873722 43.9989399,94.2823919 C44.0094561,94.4681258 43.9414104,94.6514475 43.8090307,94.7871297 C43.6766509,94.9228119 43.4941648,95 43.3017811,95 Z" id="Fill-217" fill="#2F3331"></path>
                <polyline id="Fill-218" fill="#FFFFFE" points="49.4518672 115 34.5481328 115 32 94 52 94 49.4518672 115"></polyline>
                <path d="M35.3851438,115.095584 L48.6148562,115.095584 L50.9404946,95.9044164 L33.0595054,95.9044164 L35.3851438,115.095584 Z M49.4757042,117 L34.5242958,117 C34.0337842,117 33.6205281,116.638516 33.5622799,116.160755 L31.0067141,95.0651718 C30.9742177,94.7940591 31.0606704,94.5235488 31.2446123,94.319913 C31.4285542,94.1168797 31.691591,94 31.9687301,94 L52.0312699,94 C52.3077958,94 52.5714458,94.1168797 52.7553877,94.319913 C52.9393296,94.5235488 53.0257823,94.7940591 52.9932859,95.0651718 L50.4377201,116.160755 C50.3794719,116.638516 49.9662158,117 49.4757042,117 Z" id="Fill-219" fill="#2F3331"></path>
                <path d="M44,95 C44,95 48.7249528,74.7183727 65,68 C65,68 51.8157256,78.6541494 47.5435571,95 L44,95" id="Fill-220" fill="#FFFFFE"></path>
                <path d="M44.5994023,93.6453166 L46.6354433,93.6453166 C49.5161788,83.1013541 56.1136932,74.9216352 60.2537462,70.5898895 C49.8103079,77.4059217 45.5621191,90.2703123 44.5994023,93.6453166 Z M47.1748861,95 L43.6978594,95 C43.4852955,95 43.28509,94.9057664 43.1528554,94.7461094 C43.0206209,94.5846518 42.9705695,94.3739766 43.0169134,94.1741053 C43.0644931,93.9706327 47.9182419,73.744015 64.0292274,67.0552282 C64.342512,66.9225809 64.7157347,67.0354211 64.8967848,67.3235239 C65.0778349,67.6110265 65.0154251,67.9825591 64.7509561,68.198036 C64.623047,68.3012728 51.9347112,78.7684079 47.8502708,94.4880173 C47.7730311,94.789925 47.4949678,95 47.1748861,95 Z" id="Fill-221" fill="#2F3331"></path>
                <path d="M40.8218215,94 C40.8218215,94 37.7547695,50.5264099 43.4707911,35 C43.4707911,35 46.8167877,82.3242017 43.6099289,94 L40.8218215,94" id="Fill-222" fill="#FFFFFE"></path>
                <path d="M42.1172542,93.6626219 L43.4705031,93.6626219 C45.6575597,83.7131684 44.1170418,51.7109005 43.4606792,40.0294327 C40.0898368,56.3588376 41.8274477,88.752779 42.1172542,93.6626219 Z M44.0237143,95 L41.4633476,95 C41.0980195,95 40.7947051,94.7256508 40.7719872,94.3730855 C40.6565558,92.6031482 38.0083876,50.844597 43.2377984,35.4620819 C43.3391078,35.1575129 43.6411942,34.9578246 43.9831905,35.0075985 C44.3122928,35.0478917 44.5664874,35.3092048 44.5867493,35.6291801 C44.7126187,37.5543647 47.6303315,82.916193 44.6966547,94.4904097 C44.6205191,94.7896459 44.3436066,95 44.0237143,95 Z" id="Fill-223" fill="#2F3331"></path>
                <path d="M45,95 C45,95 47.622891,85.9737937 57,82 C57,82 49.1434869,88.9106212 48.2138623,95 L45,95" id="Fill-224" fill="#FFFFFE"></path>
                <path d="M46.7513363,93.6359663 L48.4897177,93.6359663 C49.2376481,90.4377092 51.7907963,87.1433594 54.0384069,84.7416448 C49.6246624,87.857105 47.5100879,91.8839355 46.7513363,93.6359663 Z M49.0842428,95 L45.718874,95 C45.4916305,95 45.2777542,94.898468 45.143445,94.7256219 C45.0072262,94.5539846 44.9652147,94.3297681 45.0295049,94.1236824 C45.1459911,93.7532116 47.9887634,84.9918486 58.0059393,81.0502324 C58.3331191,80.9263392 58.7080391,81.0369366 58.8926347,81.3234018 C59.0785034,81.6086583 59.0180324,81.9785247 58.7500505,82.197302 C58.6698469,82.2625725 50.7150495,88.8216587 49.7946176,94.4234435 C49.7398755,94.7546311 49.4381572,95 49.0842428,95 Z" id="Fill-225" fill="#2F3331"></path>
                <path d="M44,94 C44,94 45.933839,72.5822332 64,58 C64,58 51.7786985,70.8427888 47.5865893,94 L44,94" id="Fill-226" fill="#FFFFFE"></path>
                <path d="M44.495402,93.6665845 L46.6244327,93.6665845 C49.05877,80.5610654 54.0860295,70.7503884 57.8870671,64.812347 C47.4223509,76.6275783 44.9511769,90.393011 44.495402,93.6665845 Z M47.2175644,95 L43.7043517,95 C43.5076817,95 43.3191282,94.9220156 43.1855175,94.7837705 C43.0519068,94.6472977 42.9857258,94.4635617 43.0025832,94.2774625 C43.0213137,94.0624145 45.1241216,72.6190606 62.8356586,58.1624023 C63.1134939,57.9331754 63.5343053,57.9473543 63.7971563,58.2002129 C64.0575099,58.4501176 64.0687481,58.8489016 63.8221302,59.110622 C63.7022552,59.2364605 51.9320249,71.9774615 47.912465,94.4440656 C47.8544005,94.7654559 47.5615808,95 47.2175644,95 Z" id="Fill-227" fill="#2F3331"></path>
                <path d="M44,94 C44,94 48.1821934,56.6942177 57,43 C57,43 50.3033872,86.904405 46.7879108,94 L44,94" id="Fill-228" fill="#FFFFFE"></path>
                <path d="M45.5104199,93.660798 L46.936043,93.660798 C49.6695946,87.1778026 54.2818301,58.4641731 55.9523339,47.6823215 C49.5170979,61.7288116 46.0805426,88.8439431 45.5104199,93.660798 Z M47.4099852,95 L44.7137668,95 C44.5119143,95 44.3195533,94.9204904 44.1841412,94.7786786 C44.0487292,94.6392402 43.9829214,94.4505534 44.0038027,94.2624599 C44.1683221,92.742878 48.1604463,56.902463 56.6705239,43.3312501 C56.8426364,43.0553401 57.1995168,42.9325157 57.5203294,43.0369461 C57.8424076,43.1431566 58.0404636,43.446361 57.9930061,43.7626191 C57.7278769,45.5468373 51.4628551,87.5516162 48.061102,94.6066057 C47.9453057,94.8457277 47.6903008,95 47.4099852,95 Z" id="Fill-229" fill="#2F3331"></path>
                <path d="M43,95 C43,95 45.3538779,55.7918594 50,46 C50,46 48.2998314,87.783379 46.6901461,95 L43,95" id="Fill-230" fill="#FFFFFE"></path>
                <path d="M44.4379297,93.6389456 L46.5989438,93.6389456 C47.7332597,87.1363981 48.9096332,62.0018179 49.3852542,50.9336777 C46.4022631,63.5486077 44.7230549,89.0347585 44.4379297,93.6389456 Z M47.1784716,95 L43.6975938,95 C43.505861,95 43.3227871,94.9228113 43.1904296,94.787128 C43.0586906,94.6514446 42.9900379,94.4681214 43.0011708,94.282386 C43.0927077,92.6873533 45.27908,55.1271966 49.6617205,45.406844 C49.7959334,45.1077377 50.1268271,44.9443147 50.4583393,45.0172821 C50.7836665,45.0908526 51.0118904,45.3803104 50.9995205,45.7059503 C50.9339603,47.4022933 49.3741213,87.3215305 47.8612877,94.4578698 C47.7944905,94.7726551 47.5093653,95 47.1784716,95 Z" id="Fill-231" fill="#2F3331"></path>
                <path d="M231,108 L231,57.3367251 C231,53.8370716 228.102028,51 224.528004,51 L132.471996,51 C128.897972,51 126,53.8370716 126,57.3367251 L126,108 L231,108" id="Fill-232" fill="#FFFFFE"></path>
                <path d="M126.933411,107.10455 L230.067201,107.10455 L230.067201,57.2957731 C230.067201,54.3179799 227.595542,51.8954499 224.556889,51.8954499 L132.443111,51.8954499 C129.404458,51.8954499 126.933411,54.3179799 126.933411,57.2957731 L126.933411,107.10455 Z M231.0336,109 L125.967011,109 C125.433045,109 125,108.575458 125,108.052575 L125,57.2957731 C125,53.2728141 128.339583,50 132.443111,50 L224.556889,50 C228.661028,50 232,53.2728141 232,57.2957731 L232,108.052575 C232,108.575458 231.567567,109 231.0336,109 Z" id="Fill-233" fill="#2F3331"></path>
                <path d="M232.515298,116 L122.484092,116 C120.024034,116 117.694479,114.873706 116.143679,112.933357 L113,109 L242,109 L238.855711,112.933357 C237.304911,114.873706 234.975966,116 232.515298,116" id="Fill-234" fill="#FFFFFE"></path>
                <path d="M114.989601,108.748945 L116.857322,110.835397 C118.233248,112.370773 120.272426,113.251608 122.453773,113.251608 L232.54497,113.251608 C234.728147,113.251608 236.766715,112.370773 238.1402,110.835397 L240.010972,108.748945 L114.989601,108.748945 Z M232.54497,115 L122.453773,115 C119.689717,115 117.103829,113.88457 115.361803,111.938101 L112.216392,108.425825 C111.980868,108.163566 111.933885,107.803928 112.093749,107.499066 C112.254223,107.194204 112.592865,107 112.963847,107 L242.036116,107 C242.408928,107 242.74635,107.194204 242.906214,107.499066 C243.066078,107.803928 243.019095,108.163566 242.784181,108.425825 L239.63694,111.938101 C237.896744,113.88457 235.311466,115 232.54497,115 Z" id="Fill-235" fill="#2F3331"></path>
                <polygon id="Fill-236" fill="#FFFFFE" points="130 108 225 108 225 57 130 57"></polygon>
                <path d="M130.931635,106.115065 L223.068365,106.115065 L223.068365,56.8849347 L130.931635,56.8849347 L130.931635,106.115065 Z M224.034488,108 L129.966123,108 C129.432647,108 129,107.577813 129,107.057831 L129,55.9427655 C129,55.4221872 129.432647,55 129.966123,55 L224.034488,55 C224.567964,55 225,55.4221872 225,55.9427655 L225,107.057831 C225,107.577813 224.567964,108 224.034488,108 Z" id="Fill-237" fill="#2F3331"></path>
                <polygon id="Fill-238" fill="#FFFFFE" points="136 104 141 104 141 62 136 62"></polygon>
                <path d="M136.99764,101.987292 L140.00236,101.987292 L140.00236,63.0133024 L136.99764,63.0133024 L136.99764,101.987292 Z M141.00118,104 L135.99882,104 C135.447198,104 135,103.549296 135,102.993349 L135,62.0066512 C135,61.4507038 135.447198,61 135.99882,61 L141.00118,61 C141.552802,61 142,61.4507038 142,62.0066512 L142,102.993349 C142,103.549296 141.552802,104 141.00118,104 Z" id="Fill-239" fill="#2F3331"></path>
                <polygon id="Fill-240" fill="#FFFFFE" points="212 68 218 68 218 62 212 62"></polygon>
                <path d="M212.996609,67.0033906 L217.003391,67.0033906 L217.003391,62.9966094 L212.996609,62.9966094 L212.996609,67.0033906 Z M218.001695,69 L211.998305,69 C211.446967,69 211,68.5530331 211,68.0016953 L211,61.9983047 C211,61.4469669 211.446967,61 211.998305,61 L218.001695,61 C218.552443,61 219,61.4469669 219,61.9983047 L219,68.0016953 C219,68.5530331 218.552443,69 218.001695,69 Z" id="Fill-241" fill="#2F3331"></path>
                <polygon id="Fill-242" fill="#FFFFFE" points="212 79 218 79 218 73 212 73"></polygon>
                <path d="M212.996609,78.0033906 L217.003391,78.0033906 L217.003391,73.9966094 L212.996609,73.9966094 L212.996609,78.0033906 Z M218.001695,80 L211.998305,80 C211.446967,80 211,79.5530331 211,79.0016953 L211,72.9983047 C211,72.4475566 211.446967,72 211.998305,72 L218.001695,72 C218.552443,72 219,72.4475566 219,72.9983047 L219,79.0016953 C219,79.5530331 218.552443,80 218.001695,80 Z" id="Fill-243" fill="#2F3331"></path>
                <polygon id="Fill-244" fill="#FFFFFE" points="212 88 218 88 218 82 212 82"></polygon>
                <path d="M212.996609,88.0038331 L217.003391,88.0038331 L217.003391,83.9961669 L212.996609,83.9961669 L212.996609,88.0038331 Z M218.001695,90 L211.998305,90 C211.446967,90 211,89.5530001 211,89.0016217 L211,82.9977886 C211,82.4469999 211.446967,82 211.998305,82 L218.001695,82 C218.552443,82 219,82.4469999 219,82.9977886 L219,89.0016217 C219,89.5530001 218.552443,90 218.001695,90 Z" id="Fill-245" fill="#2F3331"></path>
                <polygon id="Fill-246" fill="#FFFFFE" points="212 98 218 98 218 92 212 92"></polygon>
                <path d="M212.996609,97.0035388 L217.003391,97.0035388 L217.003391,92.9964612 L212.996609,92.9964612 L212.996609,97.0035388 Z M218.001695,99 L211.998305,99 C211.446967,99 211,98.5529342 211,98.0014745 L211,91.9985255 C211,91.4470658 211.446967,91 211.998305,91 L218.001695,91 C218.552443,91 219,91.4470658 219,91.9985255 L219,98.0014745 C219,98.5529342 218.552443,99 218.001695,99 Z" id="Fill-247" fill="#2F3331"></path>
                <polygon id="Fill-248" fill="#FFFFFE" points="212 108 218 108 218 103 212 103"></polygon>
                <path d="M212.996609,107.030668 L217.003391,107.030668 L217.003391,103.969332 L212.996609,103.969332 L212.996609,107.030668 Z M218.001695,109 L211.998305,109 C211.446967,109 211,108.559009 211,108.015625 L211,102.984957 C211,102.440991 211.446967,102 211.998305,102 L218.001695,102 C218.552443,102 219,102.440991 219,102.984957 L219,108.015625 C219,108.559009 218.552443,109 218.001695,109 Z" id="Fill-249" fill="#2F3331"></path>
                <path d="M162.430552,100 C156.127639,100 151,94.993909 151,88.8404036 C151,82.6868983 156.127639,77.6813996 162.430552,77.6813996 C162.608329,77.6991706 175.907062,78.2020899 177.641759,68.5548057 C177.706074,68.1905002 178.06709,67.9393367 178.43478,68.0127902 C178.806718,68.0767658 179.055485,68.422708 178.989349,68.7870135 C177.048965,79.5923746 162.547048,79.0337728 162.397181,79.0165941 C156.883042,79.0183712 152.369433,83.4249872 152.369433,88.8404036 C152.369433,94.2564124 156.883042,98.6630283 162.430552,98.6630283 C167.978061,98.6630283 172.49167,94.2564124 172.49167,88.8404036 C172.49167,88.4713592 172.797472,88.172214 173.176083,88.172214 C173.554695,88.172214 173.861103,88.4713592 173.861103,88.8404036 C173.861103,94.993909 168.733464,100 162.430552,100" id="Fill-250" fill="#2F3331"></path>
                <polygon id="Fill-251" fill="#FFFFFE" points="161 79 163 79 163 77 161 77"></polygon>
                <path d="M160.955074,78.0447577 L162.044397,78.0447577 L162.044397,76.9552423 L160.955074,76.9552423 L160.955074,78.0447577 Z M162.522199,79 L160.477801,79 C160.214588,79 160,78.7859031 160,78.5221145 L160,76.4773568 C160,76.2140969 160.214588,76 160.477801,76 L162.522199,76 C162.785412,76 163,76.2140969 163,76.4773568 L163,78.5221145 C163,78.7859031 162.785412,79 162.522199,79 Z" id="Fill-252" fill="#2F3331"></path>
                <polygon id="Fill-253" fill="#FFFFFE" points="161 100 163 100 163 98 161 98"></polygon>
                <path d="M160.955074,99.0447341 L162.044397,99.0447341 L162.044397,97.9547376 L160.955074,97.9547376 L160.955074,99.0447341 Z M162.522199,100 L160.477801,100 C160.214588,100 160,99.7854878 160,99.522367 L160,97.4771046 C160,97.2139838 160.214588,97 160.477801,97 L162.522199,97 C162.785412,97 163,97.2139838 163,97.4771046 L163,99.522367 C163,99.7854878 162.785412,100 162.522199,100 Z" id="Fill-254" fill="#2F3331"></path>
                <polygon id="Fill-255" fill="#FFFFFE" points="172 90 174 90 174 88 172 88"></polygon>
                <path d="M172.955242,89.0447341 L174.044758,89.0447341 L174.044758,87.9547376 L172.955242,87.9547376 L172.955242,89.0447341 Z M174.522643,90 L172.477357,90 C172.214097,90 172,89.7854878 172,89.522367 L172,87.477633 C172,87.2145122 172.214097,87 172.477357,87 L174.522643,87 C174.785903,87 175,87.2145122 175,87.477633 L175,89.522367 C175,89.7854878 174.785903,90 174.522643,90 Z" id="Fill-256" fill="#2F3331"></path>
                <polygon id="Fill-257" fill="#FFFFFE" points="150 90 152 90 152 88 150 88"></polygon>
                <path d="M150.955603,89.0447341 L152.044926,89.0447341 L152.044926,87.9547376 L150.955603,87.9547376 L150.955603,89.0447341 Z M152.522199,90 L150.477801,90 C150.214588,90 150,89.7854878 150,89.522367 L150,87.477633 C150,87.2145122 150.214588,87 150.477801,87 L152.522199,87 C152.785412,87 153,87.2145122 153,87.477633 L153,89.522367 C153,89.7854878 152.785412,90 152.522199,90 Z" id="Fill-258" fill="#2F3331"></path>
                <polyline id="Fill-259" fill="#FFFFFE" points="200 74.7044139 198.789461 70.1391703 190 67 193.160515 75.7301013 197.688805 77 200 74.7044139"></polyline>
                <path d="M193.465179,76.5525795 L197.734824,77.7505171 L199.747198,75.7500396 L198.604117,71.4372031 L190.576947,68.5676336 L193.465179,76.5525795 Z M197.908158,79 C197.854319,79 197.799824,78.9928228 197.747299,78.9771635 L192.849977,77.603711 C192.664826,77.5521658 192.517755,77.4151468 192.454068,77.2370221 L189.035332,67.7898876 C188.9572,67.5739195 189.011039,67.3357674 189.17321,67.1726496 C189.338008,67.0121416 189.576998,66.956029 189.793665,67.036283 L199.298764,70.4330495 C199.481289,70.4976442 199.621794,70.6490176 199.671036,70.8375818 L200.980228,75.7774434 C201.034066,75.980362 200.976288,76.1956776 200.827248,76.3437886 L198.327703,78.8277475 C198.214774,78.9399726 198.063107,79 197.908158,79 Z" id="Fill-260" fill="#2F3331"></path>
                <polyline id="Fill-261" fill="#FFFFFE" points="203 75.1122709 198.334725 79 197 77.8877291 201.665275 74 203 75.1122709"></polyline>
                <path d="M197.462955,78.3768311 L197.893166,78.74623 L201.536878,75.6236005 L201.105324,75.2542015 L197.462955,78.3768311 Z M197.893166,80 C197.738129,80 197.583092,79.9493659 197.464297,79.8480976 L196.177689,78.7445038 C195.94077,78.5419673 195.94077,78.2122701 196.177689,78.0091583 L200.675783,74.1523339 C200.912702,73.949222 201.295932,73.949222 201.532851,74.1523339 L202.821472,75.2559277 C202.934898,75.3531682 203,75.4855074 203,75.6236005 C203,75.7616936 202.934898,75.8934574 202.822815,75.9912733 L198.322707,79.8480976 C198.203912,79.9493659 198.048875,80 197.893166,80 Z" id="Fill-262" fill="#2F3331"></path>
                <path d="M194.453872,73 C194.31356,73 194.173853,72.9467796 194.066804,72.8397339 L189.160119,67.9331721 C188.946627,67.7196855 188.946627,67.3731479 189.160119,67.1596613 C189.373006,66.9467796 189.720157,66.9467796 189.933044,67.1596613 L194.840335,72.0668279 C195.053222,72.2797097 195.053222,72.6268521 194.840335,72.8397339 C194.733286,72.9467796 194.593579,73 194.453872,73" id="Fill-263" fill="#2F3331"></path>
                <path d="M195.853629,72.146371 C196.04879,72.3419355 196.04879,72.6584677 195.853629,72.853629 C195.658468,73.0487903 195.341532,73.0487903 195.146371,72.853629 C194.95121,72.6584677 194.95121,72.3419355 195.146371,72.146371 C195.341532,71.9512097 195.658468,71.9512097 195.853629,72.146371" id="Fill-264" fill="#FFFFFE"></path>
                <path d="M195.000642,70.8370375 C194.975892,70.8370375 194.928726,70.8431361 194.888565,70.8834809 C194.827856,70.9444672 194.827856,71.0457984 194.889499,71.1067847 C194.967953,71.1874743 195.032864,71.1874743 195.113187,71.1067847 C195.173895,71.0457984 195.173895,70.9444672 195.111786,70.8825427 C195.073026,70.8431361 195.025393,70.8370375 195.000642,70.8370375 Z M195.000642,72 C194.734458,72 194.483218,71.8958541 194.29362,71.7063273 C193.902283,71.3136691 193.902283,70.6765965 194.292686,70.2839383 C194.673282,69.9053539 195.328936,69.9053539 195.708131,70.2839383 C196.097134,70.6765965 196.097134,71.3136691 195.709065,71.7053891 C195.518534,71.8958541 195.267293,72 195.000642,72 Z" id="Fill-265" fill="#2F3331"></path>
                <path d="M167.54416,72 C167.311855,72 167.096445,71.8606756 167.024642,71.6435758 C166.93534,71.3772368 167.096445,71.0935522 167.383659,71.0124196 L188.294131,65.0248286 C188.581948,64.9369815 188.886057,65.0902943 188.975358,65.3577523 C189.06466,65.6240913 188.903555,65.9077758 188.616341,65.9889085 L167.705265,71.9764995 C167.652167,71.992726 167.597862,72 167.54416,72" id="Fill-266" fill="#2F3331"></path>
                <polygon id="Fill-267" fill="#FFFFFE" points="176 69 178 69 178 67 176 67"></polygon>
                <path d="M176.955242,69.0443975 L178.044758,69.0443975 L178.044758,67.9556025 L176.955242,67.9556025 L176.955242,69.0443975 Z M178.522115,70 L176.477357,70 C176.214097,70 176,69.7854123 176,69.5221987 L176,67.4778013 C176,67.2145877 176.214097,67 176.477357,67 L178.522115,67 C178.785903,67 179,67.2145877 179,67.4778013 L179,69.5221987 C179,69.7854123 178.785903,70 178.522115,70 Z" id="Fill-268" fill="#2F3331"></path>
                <polyline id="Fill-269" fill="#FFFFFE" points="89.0575201 116 74.9424799 116 73 89 91 89 89.0575201 116"></polyline>
                <path d="M75.949102,114.133018 L89.050898,114.133018 L90.9581294,89.8669817 L74.0418706,89.8669817 L75.949102,114.133018 Z M89.9628358,116 L75.0371642,116 C74.5227218,116 74.0953676,115.621997 74.0568,115.135318 L72.0027629,89.0022992 C71.9822349,88.7447845 72.0767878,88.4884511 72.2634054,88.2982682 C72.4487788,88.1080853 72.7100434,88 72.983127,88 L92.016873,88 C92.2899566,88 92.5518433,88.1080853 92.7365946,88.2982682 C92.9232122,88.4884511 93.0177651,88.7447845 92.9972371,89.0022992 L90.9432,115.135318 C90.9046324,115.621997 90.4772782,116 89.9628358,116 Z" id="Fill-270" fill="#2F3331"></path>
                <polygon id="Fill-271" fill="#FFFFFE" points="70 89 94 89 94 84 70 84"></polygon>
                <path d="M70.8809206,87.1850718 L92.1190794,87.1850718 L92.1190794,84.8149282 L70.8809206,84.8149282 L70.8809206,87.1850718 Z M93.0592422,89 L69.9407578,89 C69.4212881,89 69,88.5934928 69,88.0922488 L69,83.907177 C69,83.405933 69.4212881,83 69.9407578,83 L93.0592422,83 C93.5787119,83 94,83.405933 94,83.907177 L94,88.0922488 C94,88.5934928 93.5787119,89 93.0592422,89 Z" id="Fill-272" fill="#2F3331"></path>
                <path d="M90.2102235,80 L75.7904052,80 C74.8749411,80 74.0701374,80.7067216 73.814235,81.7340785 L73,85 L93,85 L92.1863938,81.7340785 C91.9304914,80.7067216 91.1250589,80 90.2102235,80" id="Fill-273" fill="#FFFFFE"></path>
                <path d="M74.3180933,83.0955919 L91.6819067,83.0955919 L91.2383424,81.6376142 C91.1062168,81.2056431 90.6859318,80.9044081 90.214684,80.9044081 L75.785316,80.9044081 C75.3153266,80.9044081 74.8937832,81.2056431 74.7616576,81.6388192 L74.3180933,83.0955919 Z M93.006308,85 L72.993692,85 C72.6803657,85 72.3865436,84.859022 72.1990512,84.6186364 C72.0103004,84.3794558 71.9524168,84.0691837 72.0398714,83.7818054 L72.8533872,81.1062356 C73.2308888,79.8657496 74.4376354,79 75.785316,79 L90.214684,79 C91.5655104,79 92.7703696,79.8657496 93.1466128,81.1062356 L93.9601286,83.7818054 C94.0475832,84.0691837 93.9896996,84.3794558 93.8009488,84.6186364 C93.6134564,84.859022 93.3196343,85 93.006308,85 Z" id="Fill-274" fill="#2F3331"></path>
                <polyline id="Fill-275" fill="#FFFFFE" points="74 94 92 94 90.647824 111 75.352176 111 74 94"></polyline>
                <path d="M76.2296003,110.067907 L89.7716295,110.067907 L90.9817055,93.9320925 L75.0182945,93.9320925 L76.2296003,110.067907 Z M90.6730377,112 L75.328192,112 C74.8203044,112 74.3972697,111.609425 74.3591474,111.105162 L73.002731,93.0372544 C72.98244,92.7707588 73.0759012,92.5067082 73.260364,92.3086703 C73.4429822,92.1118548 73.701845,92 73.9717755,92 L92.0282245,92 C92.2975401,92 92.5564029,92.1118548 92.739636,92.3086703 C92.9240988,92.5054858 93.01756,92.7695364 92.997269,93.0372544 L91.6420823,111.105162 C91.60396,111.609425 91.1809253,112 90.6730377,112 Z" id="Fill-276" fill="#2F3331"></path>
                <path d="M86,99 C86,100.656949 84.6563498,102 83,102 C81.3430511,102 80,100.656949 80,99 C80,97.3430511 81.3430511,96 83,96 C84.6563498,96 86,97.3430511 86,99" id="Fill-277" fill="#FFFFFE"></path>
                <path d="M82,96.91864 C80.8518519,96.91864 79.9192471,97.8518519 79.9192471,99 C79.9192471,100.148148 80.8518519,101.080753 82,101.080753 C83.1481481,101.080753 84.08136,100.148148 84.08136,99 C84.08136,97.8518519 83.1481481,96.91864 82,96.91864 Z M82,103 C79.7947784,103 78,101.205222 78,99 C78,96.7941712 79.7947784,95 82,95 C84.2052216,95 86,96.7941712 86,99 C86,101.205222 84.2052216,103 82,103 Z" id="Fill-278" fill="#2F3331"></path>
                <polygon id="Fill-279" fill="#FFFFFE" points="31 143 323 143 323 119 31 119"></polygon>
                <path d="M31.9305088,143.06636 L322.06888,143.06636 L322.06888,119.93364 L31.9305088,119.93364 L31.9305088,143.06636 Z M323.034135,145 L30.9652544,145 C30.4319208,145 30,144.566904 30,144.033486 L30,118.966514 C30,118.433096 30.4319208,118 30.9652544,118 L323.034135,118 C323.567468,118 324,118.433096 324,118.966514 L324,144.033486 C324,144.566904 323.567468,145 323.034135,145 Z" id="Fill-280" fill="#2F3331"></path>
                <polygon id="Fill-281" fill="#FFFFFE" points="23 119 331 119 331 114 23 114"></polygon>
                <path d="M24.9282685,118.212946 L330.072341,118.212946 L330.072341,115.787054 L24.9282685,115.787054 L24.9282685,118.212946 Z M23,120 L332,120 L332,114 L23,114 L23,120 Z" id="Fill-282" fill="#2F3331"></path>
                <path d="M129.000316,145 C128.44796,145 128,144.566904 128,144.033486 L128,118.966514 C128,118.433096 128.44796,118 129.000316,118 C129.55204,118 130,118.433096 130,118.966514 L130,144.033486 C130,144.566904 129.55204,145 129.000316,145" id="Fill-283" fill="#2F3331"></path>
                <path d="M226,145 C225.447468,145 225,144.566904 225,144.033486 L225,118.966514 C225,118.433096 225.447468,118 226,118 C226.552532,118 227,118.433096 227,118.966514 L227,144.033486 C227,144.566904 226.552532,145 226,145" id="Fill-284" fill="#2F3331"></path>
                <path d="M87,119 C87,122.313763 84.0899094,125 80.5,125 C76.9107042,125 74,122.313763 74,119 L87,119" id="Fill-285" fill="#FFFFFE"></path>
                <path d="M75.0329377,119.838592 C75.4931209,122.292569 77.7700111,124.161408 80.499692,124.161408 C83.2299889,124.161408 85.505647,122.292569 85.9676783,119.838592 L75.0329377,119.838592 Z M80.499692,126 C76.3648199,126 73,122.823033 73,118.919587 C73,118.411807 73.4361575,118 73.973962,118 L87.0266541,118 C87.5644585,118 88,118.411807 88,118.919587 C88,122.823033 84.6357961,126 80.499692,126 Z" id="Fill-286" fill="#2F3331"></path>
                <path d="M184,119 C184,122.313763 181.089909,125 177.5,125 C173.910091,125 171,122.313763 171,119 L184,119" id="Fill-287" fill="#FFFFFE"></path>
                <path d="M172.032322,119.838191 C172.492505,122.292796 174.770011,124.161809 177.499076,124.161809 C180.229989,124.161809 182.505647,122.292796 182.967062,119.838191 L172.032322,119.838191 Z M177.499076,126 C173.364204,126 170,122.823726 170,118.919386 C170,118.411718 170.435542,118 170.973346,118 L184.026038,118 C184.563842,118 185,118.411718 185,118.919386 C185,122.823726 181.63518,126 177.499076,126 Z" id="Fill-288" fill="#2F3331"></path>
                <path d="M282,119 C282,122.313763 279.089772,125 275.499693,125 C271.910228,125 269,122.313763 269,119 L282,119" id="Fill-289" fill="#FFFFFE"></path>
                <path d="M270.032938,119.838191 C270.493121,122.292796 272.770011,124.161809 275.499076,124.161809 C278.229989,124.161809 280.505647,122.292796 280.967678,119.838191 L270.032938,119.838191 Z M275.499076,126 C271.36482,126 268,122.823726 268,118.919386 C268,118.411718 268.435542,118 268.973346,118 L282.026654,118 C282.564458,118 283,118.411718 283,118.919386 C283,122.823726 279.63518,126 275.499076,126 Z" id="Fill-290" fill="#2F3331"></path>
                <polyline id="Fill-291" fill="#FFFFFE" points="53.737506 143 36 255 40.222755 255 65 143 53.737506 143"></polyline>
                <path d="M37.076257,255.121323 L39.4205542,255.121323 L63.8543646,144.879271 L54.5681341,144.879271 L37.076257,255.121323 Z M40.1930929,257 L35.9574705,257 C35.6785319,257 35.4123274,256.881096 35.2304109,256.673015 C35.0472817,256.464934 34.9684512,256.191456 35.0115048,255.917977 L52.8011186,143.795465 C52.8732788,143.338281 53.2753142,143 53.7470843,143 L65.0428857,143 C65.3327393,143 65.6068268,143.128416 65.7881369,143.350171 C65.9700534,143.571332 66.0397881,143.860862 65.9779365,144.139096 L41.12875,256.262798 C41.0341534,256.690851 40.6436394,257 40.1930929,257 Z" id="Fill-292" fill="#2F3331"></path>
                <polyline id="Fill-293" fill="#FFFFFE" points="302.261889 143 320 255 315.77664 255 291 143 302.261889 143"></polyline>
                <path d="M316.55602,255.121323 L318.898273,255.121323 L301.422253,144.879271 L292.143513,144.879271 L316.55602,255.121323 Z M320.042742,257 C320.042742,257 320.026989,257 320.016084,257 L315.784155,257 C315.334001,257 314.944433,256.690851 314.849313,256.262798 L290.021793,144.139096 C289.960601,143.860862 290.029669,143.571332 290.211427,143.350171 C290.393185,143.128416 290.667033,143 290.956634,143 L302.241981,143 C302.71334,143 303.11563,143.338281 303.187122,143.795465 L320.928509,255.703951 C320.97516,255.810964 321,255.935813 321,256.060662 C321,256.577892 320.571657,257 320.042742,257 Z" id="Fill-294" fill="#2F3331"></path>
                <path d="M280,89 L280,85.0650303 C280,83.9295505 279.30925,83 278.716848,83 L263.283152,83 C262.69075,83 262,83.9295505 262,85.0650303 L262,89 L280,89" id="Fill-295" fill="#FFFFFE"></path>
                <path d="M262.680149,87.4364221 L280.319851,87.4364221 L280.319851,84.6535193 C280.319851,84.0331711 279.919993,83.6016998 279.757318,83.5624226 L263.218467,83.5635779 C263.080007,83.6016998 262.680149,84.0331711 262.680149,84.6535193 L262.680149,87.4364221 Z M281.159925,89 L261.840075,89 C261.376264,89 261,88.6499711 261,88.2179223 L261,84.6535193 C261,83.2401188 262.035657,82 263.218467,82 L279.781533,82 C280.964343,82 282,83.2401188 282,84.6535193 L282,88.2179223 C282,88.6499711 281.623736,89 281.159925,89 Z" id="Fill-296" fill="#2F3331"></path>
                <path d="M280.571923,89 L262.428077,89 C262.268326,90.4262928 261,91.2295938 261,93.8885781 L261,109.014332 C261,111.756536 263.349066,114 266.220349,114 L276.779651,114 C279.650934,114 282,111.756536 282,109.014332 L282,93.8885781 C282,91.2295938 280.731674,90.4262928 280.571923,89" id="Fill-297" fill="#FFFFFE"></path>
                <path d="M262.957152,89.6489938 C262.82866,90.0650495 262.646681,90.4396824 262.467777,90.8063962 C262.073695,91.6214511 261.664243,92.463309 261.664243,93.9776787 L261.664243,109.920592 C261.664243,112.362711 263.670926,114.351615 266.136243,114.351615 L276.864371,114.351615 C279.329074,114.351615 281.336372,112.362711 281.336372,109.920592 L281.336372,93.9776787 C281.336372,92.463309 280.92692,91.6214511 280.532838,90.8063962 C280.353933,90.4396824 280.171955,90.0650495 280.043463,89.6489938 L262.957152,89.6489938 Z M276.864371,116 L266.137473,116 C262.752426,116 260,113.273404 260,109.920592 L260,93.9776787 C260,92.0868487 260.536714,90.9806157 260.967683,90.0918525 C261.212985,89.5856412 261.406645,89.1854237 261.455828,88.7370826 C261.501938,88.3167628 261.857903,88 262.283339,88 L280.716661,88 C281.142712,88 281.498677,88.3167628 281.544786,88.7370826 C281.593355,89.1854237 281.787629,89.5856412 282.032931,90.0918525 C282.463901,90.9806157 283,92.0868487 283,93.9776787 L283,109.920592 C283,113.273404 280.248189,116 276.864371,116 Z" id="Fill-298" fill="#2F3331"></path>
                <path d="M281,105.08682 L281.421098,105.08682 C282.89494,105.08682 284.10046,103.955622 284.10046,102.573382 L284.10046,99.4266179 C284.10046,98.0443776 282.89494,96.91318 281.421098,96.91318 L281,96.91318 L281,94 L281.720873,94 C284.245533,94 287,95.9367018 287,98.3044507 L287,103.695549 C287,106.063298 284.245533,108 281.720873,108 L281,108 L281,105.08682" id="Fill-299" fill="#FFFFFE"></path>
                <path d="M281.571429,104.17887 L281.571429,105.431999 C283.350755,105.362092 285.427991,103.895197 285.427991,102.085699 L285.427991,96.9131456 C285.427991,95.1036475 283.350755,93.63733 281.571429,93.5674229 L281.571429,94.8193968 C283.150987,95.0192967 284.376307,96.3642876 284.376307,97.9889073 L284.376307,101.009359 C284.376307,102.634557 283.150987,103.97897 281.571429,104.17887 Z M281.438444,107 L280.785714,107 C280.351916,107 280,106.649886 280,106.217733 L280,103.421446 C280,102.98987 280.351916,102.639757 280.785714,102.639757 L281.167247,102.639757 C282.069686,102.639757 282.804297,101.908331 282.804297,101.009359 L282.804297,97.9889073 C282.804297,97.0899357 282.069686,96.3590879 281.167247,96.3590879 L280.785714,96.3590879 C280.351916,96.3590879 280,96.0089743 280,95.5773986 L280,92.7816893 C280,92.3501136 280.351916,92 280.785714,92 L281.438444,92 C284.063879,92 287,94.1012595 287,96.9131456 L287,102.085699 C287,104.898741 284.063879,107 281.438444,107 Z" id="Fill-300" fill="#2F3331"></path>
                <path d="M270.340932,82.3911128 L270.659068,82.3911128 L270.659068,68.6088872 L270.340932,68.6088872 L270.340932,82.3911128 Z M271.329534,84 L269.670466,84 C269.300297,84 269,83.639828 269,83.1958536 L269,67.8041464 C269,67.360172 269.300297,67 269.670466,67 L271.329534,67 C271.699703,67 272,67.360172 272,67.8041464 L272,83.1958536 C272,83.639828 271.699703,84 271.329534,84 Z" id="Fill-301" fill="#2F3331"></path>
                <path d="M282.181938,85 L260.817458,85 C260.366134,85 260,84.7761359 260,84.5001847 C260,84.2238641 260.366134,84 260.817458,84 L282.181938,84 C282.633866,84 283,84.2238641 283,84.5001847 C283,84.7761359 282.633866,85 282.181938,85" id="Fill-302" fill="#2F3331"></path>
                <polyline id="Fill-303" fill="#FFFFFE" points="151.009799 184 140 257 142.621325 257 158 184 151.009799 184"></polyline>
                <path d="M140.109697,256.125396 L140.963183,256.125396 L156.819524,185.875197 L151.460745,185.875197 L140.109697,256.125396 Z M141.748266,258 L138.972744,258 C138.689276,258 138.418749,257.881354 138.234495,257.673724 C138.048392,257.466094 137.968281,257.187276 138.011418,256.920323 L149.665652,184.793741 C149.738984,184.337547 150.147548,184 150.626979,184 L158.026728,184 C158.321904,184 158.599826,184.128138 158.784697,184.348819 C158.969567,184.570093 159.040434,184.858996 158.977578,185.136034 L142.699117,257.258464 C142.602368,257.691521 142.205512,258 141.748266,258 Z" id="Fill-304" fill="#2F3331"></path>
                <polyline id="Fill-305" fill="#FFFFFE" points="203.990427 184 215 257 212.37859 257 197 184 203.990427 184"></polyline>
                <path d="M214.012997,256.125396 L214.864668,256.125396 L203.528332,185.875197 L198.177694,185.875197 L214.012997,256.125396 Z M216.027101,258 C216.021563,258 216.011101,258 216.000025,258 L213.229016,258 C212.771796,258 212.376114,257.691521 212.279501,257.258464 L196.022055,185.136034 C195.959903,184.858996 196.03067,184.570093 196.214666,184.348819 C196.399276,184.128138 196.677423,184 196.97157,184 L204.361542,184 C204.840299,184 205.248289,184.337547 205.321518,184.793741 L216.926771,256.700828 C216.974154,256.813542 217,256.93812 217,257.062698 C217,257.578807 216.564318,258 216.027101,258 Z" id="Fill-306" fill="#2F3331"></path>
                <path d="M211.918255,89 L144.081849,89 C139.261993,89 135.51376,93.122333 136.051407,97.8329691 L139.827164,130.938557 C140.285295,134.959832 143.742991,138 147.857606,138 L171.588665,138 L171.588665,116.574456 L184.410826,116.574456 L184.410826,138 L208.142497,138 C212.257113,138 215.714808,134.959832 216.172939,130.938557 L219.948697,97.8329691 C220.485731,93.122333 216.73811,89 211.918255,89" id="Fill-307" fill="#FFFFFE"></path>
                <path d="M184.797091,137.09486 L207.316608,137.09486 C210.903879,137.09486 213.909708,134.416455 214.309638,130.86594 L218.045143,97.6962621 C218.267797,95.7151822 217.630087,93.7280753 216.296583,92.2412106 C214.963079,90.7561541 213.050554,89.9045368 211.050298,89.9045368 L143.947945,89.9045368 C141.947689,89.9045368 140.035769,90.7561541 138.70166,92.2430187 C137.368156,93.7280753 136.732261,95.7151822 136.954915,97.6962621 L140.68921,130.86594 C141.08914,134.416455 144.09618,137.09486 147.68345,137.09486 L170.201152,137.09486 L170.201152,116.579503 C170.201152,116.053948 170.629519,115.627235 171.157718,115.627235 L183.841131,115.627235 C184.369329,115.627235 184.797091,116.053948 184.797091,116.579503 L184.797091,137.09486 Z M207.316608,139 L183.841131,139 C183.312933,139 182.885171,138.573287 182.885171,138.047129 L182.885171,117.532375 L172.113678,117.532375 L172.113678,138.047129 C172.113678,138.573287 171.685311,139 171.157718,139 L147.68345,139 C143.121463,139 139.298228,135.593531 138.789996,131.078091 L135.055701,97.908413 C134.771938,95.3897233 135.581479,92.8619932 137.27619,90.9725239 C138.972717,89.0836573 141.40376,88 143.947945,88 L211.050298,88 C213.595088,88 216.026131,89.0836573 217.722053,90.9725239 C219.41737,92.8619932 220.228121,95.3897233 219.944358,97.908413 L216.208853,131.078091 C215.700621,135.593531 211.877385,139 207.316608,139 Z" id="Fill-308" fill="#2F3331"></path>
                <polygon id="Fill-309" fill="#FFFFFE" points="138 182 170 182 170 166 138 166"></polygon>
                <path d="M139.950719,180.183149 L171.049281,180.183149 L171.049281,166.816276 L139.950719,166.816276 L139.950719,180.183149 Z M172.024949,182 L138.975051,182 C138.436921,182 138,181.593637 138,181.091862 L138,165.908138 C138,165.406363 138.436921,165 138.975051,165 L172.024949,165 C172.563079,165 173,165.406363 173,165.908138 L173,181.091862 C173,181.593637 172.563079,182 172.024949,182 Z" id="Fill-310" fill="#2F3331"></path>
                <polygon id="Fill-311" fill="#FFFFFE" points="185 182 217 182 217 166 185 166"></polygon>
                <path d="M184.950033,180.183149 L216.04935,180.183149 L216.04935,166.816276 L184.950033,166.816276 L184.950033,180.183149 Z M217.024367,182 L183.975016,182 C183.436289,182 183,181.593637 183,181.091862 L183,165.908138 C183,165.406363 183.436289,165 183.975016,165 L217.024367,165 C217.563094,165 218,165.406363 218,165.908138 L218,181.091862 C218,181.593637 217.563094,182 217.024367,182 Z" id="Fill-312" fill="#2F3331"></path>
                <polygon id="Fill-313" fill="#FFFFFE" points="144 183 172 183 172 181 144 181"></polygon>
                <path d="M144.907426,182.759427 L170.092574,182.759427 L170.092574,182.240573 L144.907426,182.240573 L144.907426,182.759427 Z M143,185 L172,185 L172,180 L143,180 L143,185 Z" id="Fill-314" fill="#2F3331"></path>
                <polygon id="Fill-315" fill="#FFFFFE" points="185 183 213 183 213 181 185 181"></polygon>
                <path d="M184.906823,182.759427 L210.092574,182.759427 L210.092574,182.240573 L184.906823,182.240573 L184.906823,182.759427 Z M183,185 L212,185 L212,180 L183,180 L183,185 Z" id="Fill-316" fill="#2F3331"></path>
                <polygon id="Fill-317" fill="#FFFFFE" points="172 187 185 187 185 117 172 117"></polygon>
                <path d="M172.96547,187.105943 L184.035152,187.105943 L184.035152,117.894057 L172.96547,117.894057 L172.96547,187.105943 Z M171,189 L186,189 L186,116 L171,116 L171,189 Z" id="Fill-318" fill="#2F3331"></path>
                <path d="M313.570613,79 L303.428762,79 C303.428762,79 303.769696,83.695943 301.626682,86.9331231 C299.162091,90.6555465 294,97.3300695 294,101.168951 C294,106.500563 297.92199,111.045474 303.428762,112.806908 L303.428762,114 L313.570613,114 L313.570613,112.806908 C319.077385,111.045474 323,106.500563 323,101.168951 C323,97.3294629 317.755485,90.7034643 315.372069,86.9313034 C313.23405,83.5473372 313.570613,79 313.570613,79 L347.179688,96.5" id="Fill-334" fill="#FBBC00"></path>
                <path d="M305.044069,111.130293 L312.955326,111.130293 L312.955326,110.224126 L313.612733,110.012964 C318.682082,108.381036 322.088259,104.177891 322.088259,99.5518295 C322.088259,96.8924798 318.945166,92.2616861 316.649383,88.8807157 C315.969599,87.8799106 315.341827,86.9542251 314.841666,86.1574848 C313.228691,83.5874505 312.95956,80.4472175 312.937182,78.8697074 L305.062818,78.8697074 C305.044069,80.4756092 304.78159,83.6909617 303.147448,86.1758211 C302.738005,86.7974796 302.252963,87.504313 301.728611,88.2655636 C299.41166,91.6370701 295.911136,96.7310024 295.911136,99.5518295 C295.911136,104.177891 299.317313,108.381036 304.386662,110.012964 L305.044069,110.224126 L305.044069,111.130293 Z M314.867067,113 L303.132328,113 L303.132328,111.562082 C297.64144,109.530897 294,104.780031 294,99.5518295 C294,96.1608038 297.405572,91.2052807 300.142247,87.2227626 C300.658132,86.4727503 301.137126,85.7765638 301.539311,85.1637777 C303.422022,82.3021376 303.137771,78.042801 303.135352,78.0002136 L303.063382,77 L314.936618,77 L314.864648,78.0013966 C314.861624,78.042801 314.590073,82.1850221 316.47097,85.179748 C316.960245,85.9605179 317.575921,86.8666842 318.24119,87.8473785 C320.807314,91.6252403 324,96.3276046 324,99.5518295 C324,104.780031 320.357955,109.530897 314.867067,111.562082 L314.867067,113 Z" id="Fill-335" fill="#2F3331"></path>
                <path d="M309.000316,80 C308.44796,80 308,79.5806486 308,79.0635669 L308,52.9364331 C308,52.4193514 308.44796,52 309.000316,52 C309.552673,52 310,52.4193514 310,52.9364331 L310,79.0635669 C310,79.5806486 309.552673,80 309.000316,80" id="Fill-336" fill="#2F3331"></path>
                <path d="M308.989256,60 C308.681637,60 308.37902,59.8653895 308.185821,59.6138031 C307.867572,59.1976274 307.968236,58.6174504 308.410282,58.317075 L320.434309,50.1740223 C320.879481,49.8759982 321.49722,49.9700492 321.814218,50.3850492 C322.132466,50.800637 322.031802,51.3814019 321.589131,51.6817773 L309.565104,59.82483 C309.390036,59.9429816 309.189334,60 308.989256,60" id="Fill-337" fill="#2F3331"></path>
                <path d="M309.020259,58 C308.860522,58 308.699546,57.9629768 308.549096,57.8866164 L298.506701,52.7149346 C298.033062,52.4713912 297.860942,51.9154644 298.121598,51.4729211 C298.384112,51.0303779 298.976007,50.8707152 299.450884,51.1131017 L309.493898,56.2847834 C309.966919,56.5283268 310.139039,57.0842537 309.878382,57.5267969 C309.699452,57.8287676 309.365118,58 309.020259,58" id="Fill-338" fill="#2F3331"></path>
                <path d="M303.210556,56 C302.833418,56 302.50018,55.6733836 302.433832,55.2098765 L301.011084,45.1075836 C300.938749,44.5900407 301.228088,44.1001161 301.656608,44.0130584 C302.095605,43.9272015 302.492198,44.273631 302.566029,44.7899731 L303.988777,54.8922661 C304.061611,55.409809 303.772272,55.8991332 303.343253,55.9867912 C303.298356,55.9957972 303.254456,56 303.210556,56" id="Fill-339" fill="#2F3331"></path>
                <path d="M296.893785,59 C296.524953,59 296.178184,58.7080587 296.049772,58.2415251 C295.887984,57.6512027 296.133494,57.006499 296.599625,56.8011384 L302.81149,54.0620422 C303.278186,53.8595437 303.789006,54.168658 303.950228,54.7575494 C304.112016,55.3471563 303.866506,55.9925755 303.400375,56.1972206 L297.187944,58.9370323 C297.091211,58.9792493 296.991084,59 296.893785,59" id="Fill-340" fill="#2F3331"></path>
                <path d="M314.764614,56 C314.742864,56 314.72063,55.998778 314.699363,55.9963339 C314.278372,55.9517295 313.966616,55.4842995 314.002867,54.9539345 L314.475576,47.8844381 C314.51086,47.3540732 314.893183,46.9593545 315.300158,47.0033479 C315.721149,47.0479524 316.033388,47.5153823 315.997137,48.0457473 L315.523945,55.1152437 C315.491078,55.6187238 315.156605,56 314.764614,56" id="Fill-341" fill="#2F3331"></path>
                <path d="M319.000503,60 C318.844498,60 318.684071,59.959109 318.536909,59.8752825 L313.533377,57.0285881 C313.044519,56.7505293 312.858197,56.1003626 313.11589,55.5742319 C313.371687,55.0487827 313.976128,54.8477353 314.463091,55.1237495 L319.466623,57.9704439 C319.955481,58.2485026 320.141803,58.8986693 319.88411,59.4248001 C319.705999,59.7907744 319.359251,60 319.000503,60" id="Fill-342" fill="#2F3331"></path>
                <path d="M318.981486,43.8825471 C318.718667,45.7841407 315.377955,48 315.377955,48 C315.377955,48 312.755695,45.0196178 313.018514,43.1180243 C313.281333,41.2158593 316.622045,39 316.622045,39 C316.622045,39 319.244305,41.9803822 318.981486,43.8825471" id="Fill-343" fill="#FFFFFE"></path>
                <path d="M315.454769,40.3959089 C314.303999,41.3716713 313.033871,42.7642582 312.91572,43.7082989 C312.787924,44.7138798 313.75363,46.450331 314.545727,47.6043699 C315.697703,46.6286075 316.966625,45.2353862 317.084776,44.2913455 C317.212572,43.286399 316.246263,41.5493134 315.454769,40.3959089 Z M314.369103,50 C314.097837,50 313.829585,49.8781883 313.64211,49.6447159 C313.341909,49.2710331 310.712438,45.925018 311.025901,43.4424702 C311.341172,40.9618257 314.709089,38.4545349 315.091876,38.1779208 C315.494555,37.8854459 316.041909,37.9596749 316.359592,38.3555629 C316.659793,38.7286112 319.288058,42.0765296 318.973993,44.5571741 C318.659324,47.0378186 315.292612,49.5451094 314.909826,49.8223579 C314.745258,49.9409975 314.556577,50 314.369103,50 Z" id="Fill-344" fill="#2F3331"></path>
                <path d="M311.999999,47.497168 C312.001774,49.3996853 309.00355,52 309.00355,52 C309.00355,52 306.001776,49.4042165 306.000001,47.5022656 C305.998226,45.6003147 308.995858,43 308.995858,43 C308.995858,43 311.998224,45.5952171 311.999999,47.497168" id="Fill-345" fill="#FFFFFE"></path>
                <path d="M308.996091,44.3904251 C307.980677,45.5110697 306.899693,47.0562868 306.900896,48.0005512 C306.900896,49.0103282 308.075721,50.5845221 309.003911,51.6094174 C310.019325,50.4887728 311.100309,48.9422958 311.099105,47.9967716 C311.099105,46.9882544 309.924281,45.4153204 308.996091,44.3904251 Z M309.003911,54 C308.775924,54 308.547937,53.9143296 308.367472,53.7429888 C308.022785,53.4166853 305.001205,50.4887728 305.000002,48.001811 C304.996995,45.5179989 308.013762,42.5844171 308.358449,42.2581136 C308.718777,41.9135422 309.2716,41.914802 309.632529,42.2568538 C309.977217,42.5831573 312.998797,45.5110697 313,47.9967716 C313.001203,50.4818436 309.98624,53.4154254 309.641553,53.7417289 C309.461088,53.9143296 309.231898,54 309.003911,54 Z" id="Fill-346" fill="#2F3331"></path>
                <path d="M304.979693,40.1002669 C305.254431,42.0017156 302.650649,45 302.650649,45 C302.650649,45 299.295045,42.8017537 299.020307,40.900305 C298.745569,38.9982844 301.349351,36 301.349351,36 C301.349351,36 304.704955,38.1982463 304.979693,40.1002669" id="Fill-347" fill="#FFFFFE"></path>
                <path d="M301.521358,37.3937539 C300.660265,38.6605744 299.791332,40.3610984 299.916155,41.3047051 C300.040977,42.2495817 301.319351,43.6351469 302.477123,44.6047884 C303.338216,43.3379679 304.208957,41.6361739 304.084135,40.6932022 C303.951474,39.6854608 302.578428,38.2827507 301.521358,37.3937539 Z M302.660437,47 C302.474711,47 302.288382,46.9422152 302.124967,46.8260106 C301.739646,46.5504216 298.35678,44.0631354 298.028744,41.5815641 C297.6989,39.0999928 300.310521,35.7325997 300.608406,35.357316 C300.924984,34.9629824 301.47372,34.8861477 301.875323,35.1712617 C302.260644,35.4474857 305.642907,37.934137 305.971545,40.4157082 C306.299581,42.8972795 303.689166,46.2646726 303.391884,46.6399563 C303.204349,46.8749054 302.932996,47 302.660437,47 Z" id="Fill-348" fill="#2F3331"></path>
                <path d="M296.53444,46.4207376 C298.225143,47.4476414 299,51.4300101 299,51.4300101 C299,51.4300101 295.155676,52.6064976 293.464973,51.5790002 C291.774269,50.5520964 291,46.5697277 291,46.5697277 C291,46.5697277 294.844324,45.3938337 296.53444,46.4207376" id="Fill-349" fill="#FFFFFE"></path>
                <path d="M292.072623,47.2220547 C292.461867,48.6469435 293.161672,50.3377553 293.927642,50.8038743 C294.147597,50.9371373 294.586317,51.0951232 295.4417,51.0951232 C296.321522,51.0951232 297.266318,50.9250773 297.927377,50.7761363 C297.538133,49.3512475 296.838328,47.6622447 296.072358,47.1955227 C295.852403,47.0628627 295.413683,46.9048768 294.5583,46.9048768 C293.674305,46.9048768 292.730702,47.0737167 292.072623,47.2220547 Z M295.4417,53 C294.407491,53 293.571779,52.811261 292.958406,52.4361951 C290.941252,51.2108992 290.106136,47.1720057 290.017915,46.7143288 C289.92433,46.2349438 290.205682,45.7615889 290.668245,45.6192809 C290.751101,45.5939549 292.714011,45 294.5583,45 C295.592509,45 296.428221,45.188739 297.041594,45.5638049 C299.058748,46.7891008 299.893864,50.8279943 299.982085,51.2850682 C300.07567,51.7650562 299.794318,52.2384111 299.331755,52.3807191 C299.248899,52.4054421 297.285989,53 295.4417,53 Z" id="Fill-350" fill="#2F3331"></path>
                <path d="M291.810627,55.0626262 C293.712446,54.5955063 297,56.894761 297,56.894761 C297,56.894761 295.091774,60.4702539 293.189955,60.9373738 C291.288137,61.4044937 288,59.105239 288,59.105239 C288,59.105239 289.908808,55.5297461 291.810627,55.0626262" id="Fill-351" fill="#FFFFFE"></path>
                <path d="M289.407331,58.8082244 C290.44863,59.3718346 292.032179,60.0902563 293.147627,60.0902563 C293.290121,60.0902563 293.417785,60.0769522 293.527395,60.0527629 C294.466177,59.8411067 295.732501,58.4375236 296.59262,57.1923804 C295.551966,56.6287701 293.969061,55.9103485 292.853613,55.9103485 C292.71112,55.9103485 292.583456,55.9236526 292.473845,55.9478419 C291.534419,56.1594981 290.266806,57.5630811 289.407331,58.8082244 Z M293.147627,62 C290.772948,62 287.777358,60.124726 287.444658,59.9118603 C287.012664,59.6342883 286.873394,59.0960768 287.124853,58.6642981 C287.363417,58.2548945 289.526613,54.6464585 291.998007,54.0895003 C292.263651,54.0296319 292.551862,54 292.853613,54 C295.228292,54 298.222593,55.8758788 298.556583,56.0887444 C298.987287,56.3663164 299.126557,56.9045279 298.875098,57.3350971 C298.637823,57.7457102 296.475918,61.3541462 294.003234,61.9111044 C293.73759,61.9709729 293.448734,62 293.147627,62 Z" id="Fill-352" fill="#2F3331"></path>
                <path d="M296.6478,63.0923947 C297.812143,61.4016342 301.75527,61 301.75527,61 C301.75527,61 302.517018,65.2174733 301.352674,66.9082338 C300.187751,68.5983658 296.244624,69 296.244624,69 C296.244624,69 295.482877,64.7831552 296.6478,63.0923947" id="Fill-353" fill="#FFFFFE"></path>
                <path d="M302.028996,61.8980516 C300.598389,62.1314409 298.878465,62.6344744 298.345981,63.3159487 C297.815272,63.9968566 297.798706,65.721219 297.969101,67.1005956 C299.399708,66.8672062 301.12259,66.3641728 301.654482,65.6838314 C302.221874,64.9570387 302.182825,63.160167 302.028996,61.8980516 Z M297.183983,69 C296.742021,69 296.355082,68.7003326 296.268702,68.2771727 C296.179954,67.847215 295.451043,64.0342442 296.849109,62.2447368 C298.245993,60.4540963 302.271572,60.043399 302.72655,60.0026125 C303.19632,59.9686238 303.639465,60.2694242 303.730579,60.7214745 C303.819326,61.1508656 304.549421,64.9655359 303.151946,66.7550433 C301.755063,68.5451173 297.7283,68.9546817 297.27273,68.9960346 C297.243148,68.9983006 297.214157,69 297.183983,69 Z" id="Fill-354" fill="#2F3331"></path>
                <path d="M311.439994,66.5691489 C310.398054,64.8788416 311.533638,61 311.533638,61 C311.533638,61 315.517665,61.7399527 316.559605,63.4308511 C317.602137,65.1211584 316.466553,69 316.466553,69 C316.466553,69 312.482526,68.2600473 311.439994,66.5691489" id="Fill-355" fill="#FFFFFE"></path>
                <path d="M313.190346,62.0736618 C312.883586,63.511928 312.734726,65.3287798 313.207824,66.0931395 C313.681524,66.8598954 315.381061,67.5481785 316.809998,67.9243681 C317.116758,66.487899 317.265618,64.6710471 316.791315,63.9036923 C316.31882,63.1381345 314.619886,62.4504504 313.190346,62.0736618 Z M317.509098,70 C317.450036,70 317.392179,69.9946087 317.33372,69.9838262 C316.876292,69.8993633 312.831756,69.0978639 311.585429,67.0845308 C310.34091,65.0735939 311.447417,61.1230044 311.577594,60.6797237 C311.714401,60.2124819 312.196539,59.9321368 312.665418,60.0142036 C313.122244,60.0986666 317.168588,60.900166 318.414915,62.913499 C319.659434,64.9274311 318.551721,68.8750255 318.421544,69.3183062 C318.300407,69.7280413 317.923134,70 317.509098,70 Z" id="Fill-356" fill="#2F3331"></path>
                <path d="M320.381939,63.5321878 C318.691454,62.4691084 318,58.4852214 318,58.4852214 C318,58.4852214 321.92698,57.4049956 323.618061,58.468075 C325.308546,59.5311543 326,63.5150414 326,63.5150414 C326,63.5150414 322.07302,64.5946759 320.381939,63.5321878" id="Fill-357" fill="#FFFFFE"></path>
                <path d="M319.079912,59.1597415 C319.439986,60.5891502 320.108867,62.2890525 320.873045,62.7729356 C321.110078,62.9208055 321.596209,63.0999324 322.570882,63.0999324 C323.415277,63.0999324 324.294051,62.9646856 324.920109,62.8414607 C324.559432,61.412052 323.891154,59.7109475 323.126373,59.2270644 C322.889942,59.0791945 322.403209,58.9000676 321.429139,58.9000676 C320.588966,58.9000676 319.708986,59.0353144 319.079912,59.1597415 Z M322.570882,65 C321.422505,65 320.507542,64.7908182 319.853739,64.3772635 C317.84227,63.1065444 317.092568,59.0617627 317.01416,58.6043279 C316.930323,58.1234503 317.226465,57.6588023 317.698723,57.5271621 C317.775924,57.5061237 319.628768,57 321.429139,57 C322.577516,57 323.492479,57.2091818 324.146281,57.6227365 C326.157751,58.8934556 326.907453,62.9382373 326.985861,63.3956721 C327.069698,63.8765497 326.772953,64.3411977 326.301298,64.4728379 C326.224096,64.4938763 324.370649,65 322.570882,65 Z" id="Fill-358" fill="#2F3331"></path>
                <path d="M326.922168,50.3431207 C325.23129,51.5117883 321,50.7648824 321,50.7648824 C321,50.7648824 321.387585,46.8255469 323.077832,45.6568793 C324.76871,44.4882117 329,45.2351176 329,45.2351176 C329,45.2351176 328.612415,49.1744531 326.922168,50.3431207" id="Fill-359" fill="#FFFFFE"></path>
                <path d="M321.903142,50.0347351 C322.323226,50.0855813 322.861388,50.1328801 323.418283,50.1328801 C324.859626,50.1328801 325.461368,49.8289853 325.691847,49.6492499 C326.416208,49.0798906 326.885681,47.2736679 327.096858,45.9652649 C326.676206,45.9144187 326.138612,45.8688937 325.581717,45.8688937 C324.140374,45.8688937 323.538064,46.1710147 323.308153,46.3525238 C322.583792,46.9207006 322.114319,48.7281058 321.903142,50.0347351 Z M323.418283,52 C322.026896,52 320.779133,51.7540463 320.728041,51.743404 C320.275032,51.6523539 319.962239,51.2195699 320.00368,50.7424433 C320.043418,50.2877836 320.440227,46.2638386 322.229559,44.8602468 C322.956758,44.2891139 324.085309,44 325.581717,44 C326.973104,44 328.219164,44.246545 328.271959,44.256596 C328.724968,44.3482374 329.037761,44.7804301 328.99632,45.2575567 C328.956015,45.7122164 328.559773,49.7379351 326.770441,51.1415269 C326.043242,51.7108861 324.915827,52 323.418283,52 Z" id="Fill-360" fill="#2F3331"></path>
                <path d="M302.986219,62 C302.788791,62 302.589488,61.9455861 302.415801,61.8321761 C301.970963,61.5429233 301.866625,60.9775916 302.182761,60.5709193 L306.208176,55.382125 C306.522437,54.9754528 307.136589,54.8757894 307.583927,55.1684789 C308.028766,55.4577317 308.133727,56.0236362 307.816967,56.4297357 L303.791552,61.61853 C303.598497,61.8671155 303.295482,62 302.986219,62" id="Fill-361" fill="#2F3331"></path>
                <path d="M311.268984,62 C311.023982,62 310.785464,61.8447829 310.646521,61.5608063 L309.110277,58.4182486 C308.896769,57.9825825 309.002828,57.4099256 309.346017,57.1394717 C309.691984,56.8696056 310.140306,57.0030688 310.353352,57.4387349 L311.890058,60.5812925 C312.103104,61.0163706 311.997044,61.5890275 311.653856,61.8600695 C311.533439,61.9547284 311.40098,62 311.268984,62" id="Fill-362" fill="#2F3331"></path>
                <polygon id="Fill-370" fill="#FFFFFE" points="384 185 460 185 460 170 384 170"></polygon>
                <path d="M384.92425,184.143094 L459.076359,184.143094 L459.076359,170.856906 L384.92425,170.856906 L384.92425,184.143094 Z M383,185.071253 L383,169.928747 C383,169.415909 383.430384,169 383.961821,169 L460.038179,169 C460.567789,169 461,169.415909 461,169.928747 L461,185.071253 C461,185.584091 460.567789,186 460.038179,186 L383.961821,186 C383.430384,186 383,185.584091 383,185.071253 Z" id="Fill-371" fill="#2F3331"></path>
                <polygon id="Fill-372" fill="#FFFFFE" points="379 170 466 170 466 168 379 168"></polygon>
                <path d="M379.930427,168.985854 L464.069573,168.985854 L464.069573,168.014146 L379.930427,168.014146 L379.930427,168.985854 Z M378,171 L466,171 L466,166 L378,166 L378,171 Z" id="Fill-373" fill="#2F3331"></path>
                <polyline id="Fill-374" fill="#FFFFFE" points="447.98641 186 459 256 456.374876 256 441 186 447.98641 186"></polyline>
                <path d="M446.525132,186.894586 L441.233097,186.894586 L457.039901,256.106013 L457.840006,256.106013 L446.525132,186.894586 Z M455.263289,257.250796 L439.021783,186.14778 C438.958782,185.867877 439.034383,185.575988 439.223384,185.352425 C439.412385,185.129462 439.695887,185 439.998289,185 L447.375638,185 C447.867041,185 448.289144,185.340438 448.364744,185.801948 L459.98832,256.90916 C460.032421,257.178873 459.95052,257.460573 459.761519,257.67035 C459.572518,257.880127 459.295316,258 459.005514,258 L456.233496,258 C455.767293,258 455.36409,257.688331 455.263289,257.250796 Z" id="Fill-375" fill="#2F3331"></path>
                <polyline id="Fill-376" fill="#FFFFFE" points="396.009645 186 385 256 387.621458 256 403 186 396.009645 186"></polyline>
                <path d="M402.773493,186.894586 L397.485327,186.894586 L386.182847,256.106013 L386.984504,256.106013 L402.773493,186.894586 Z M384,257.053007 C384,256.92714 384.026428,256.801274 384.07488,256.687395 L395.65171,185.801948 C395.72659,185.340438 396.143779,185 396.63333,185 L404.006811,185 C404.307589,185 404.592008,185.129462 404.780152,185.352425 C404.968925,185.575988 405.041288,185.867877 404.977105,186.14778 L388.757084,257.250796 C388.658922,257.688331 388.253689,258 387.786161,258 L385.021892,258 C385.011195,258 385.001127,258 384.994205,258 C384.444875,258 384,257.574452 384,257.053007 Z" id="Fill-377" fill="#2F3331"></path>
                <path d="M419,170 C419,171.657113 420.790713,173 422.9973,173 C425.205686,173 427,171.657113 427,170 L419,170" id="Fill-378" fill="#FFFFFE"></path>
                <path d="M420.069133,170.930185 C420.473014,172.170975 421.633111,173.069815 422.996968,173.069815 C424.367495,173.069815 425.525773,172.170975 425.926016,170.930185 L420.069133,170.930185 Z M418,169.964787 C418,169.431712 418.428745,169 418.958156,169 L427.041844,169 C427.569436,169 428,169.431712 428,169.964787 C428,172.741299 425.756216,175 422.996968,175 C420.243178,175 418,172.741299 418,169.964787 Z" id="Fill-379" fill="#2F3331"></path>
                <polygon id="Fill-380" fill="#FFFFFE" points="390 168 411 168 411 140 390 140"></polygon>
                <path d="M390.925091,166.135938 L410.074909,166.135938 L410.074909,140.864062 L390.925091,140.864062 L390.925091,166.135938 Z M389,167.068264 L389,139.932326 C389,139.417512 389.431181,139 389.96285,139 L411.037759,139 C411.569428,139 412,139.417512 412,139.932326 L412,167.068264 C412,167.582488 411.569428,168 411.037759,168 L389.96285,168 C389.431181,168 389,167.582488 389,167.068264 Z" id="Fill-381" fill="#2F3331"></path>
                <path d="M401,140 C401.552532,140 402,139.574353 402,139.048766 L402,133.951836 C402,133.426249 401.552532,133 401,133 C400.447468,133 400,133.426249 400,133.951836 L400,139.048766 C400,139.574353 400.447468,140 401,140" id="Fill-382" fill="#2F3331"></path>
                <path d="M398,131.905344 C398,134.166432 399.343618,136 401,136 C402.656987,136 404,134.166432 404,131.905344 C404,129.644256 401,124 401,124 C401,124 398,129.644256 398,131.905344" id="Fill-383" fill="#FFFFFE"></path>
                <path d="M398.933333,130.257851 C398.933333,131.827073 399.879511,133.152584 401,133.152584 C402.120489,133.152584 403.066667,131.827073 403.066667,130.257851 C403.066667,129.208196 402.003058,126.820172 401,124.886259 C399.996942,126.820172 398.933333,129.207027 398.933333,130.257851 Z M397,130.257851 C397,127.979117 399.831193,123.003192 400.153517,122.442714 C400.492966,121.852429 401.507034,121.852429 401.846483,122.442714 C402.168807,123.003192 405,127.979117 405,130.257851 C405,132.873221 403.205505,135 401,135 C398.794495,135 397,132.873221 397,130.257851 Z" id="Fill-384" fill="#2F3331"></path>
                <polygon id="Fill-385" fill="#FFFFFE" points="433 117 449 117 449 90 433 90"></polygon>
                <path d="M432.850499,115.114524 L446.143645,115.114524 L446.143645,90.8854757 L432.850499,90.8854757 L432.850499,115.114524 Z M431,116.05756 L431,89.9430361 C431,89.4223084 431.415777,89 431.92525,89 L447.068894,89 C447.584223,89 448,89.4223084 448,89.9430361 L448,116.05756 C448,116.577692 447.584223,117 447.068894,117 L431.92525,117 C431.415777,117 431,116.577692 431,116.05756 Z" id="Fill-386" fill="#2F3331"></path>
                <path d="M440,92 C440.550633,92 441,91.5530503 441,91.001159 L441,86.998841 C441,86.4475819 440.550633,86 440,86 C439.449367,86 439,86.4475819 439,86.998841 L439,91.001159 C439,91.5530503 439.449367,92 440,92" id="Fill-387" fill="#2F3331"></path>
                <path d="M438,85.2703383 C438,86.7783058 439.11336,88 440.496626,88 C441.879892,88 443,86.7783058 443,85.2703383 C443,83.7629298 440.496626,80 440.496626,80 C440.496626,80 438,83.7629298 438,85.2703383" id="Fill-388" fill="#FFFFFE"></path>
                <path d="M439.092715,85.3000916 C439.092715,86.3070758 439.748344,87.1904053 440.496689,87.1904053 C441.245033,87.1904053 441.907285,86.3070758 441.907285,85.3000916 C441.907285,84.6657889 441.231788,83.2197161 440.496689,81.8892833 C439.761589,83.2197161 439.092715,84.6657889 439.092715,85.3000916 Z M437,85.3000916 C437,83.6107167 439.152318,80.1455232 439.582781,79.4682849 C439.761589,79.1791848 440.119205,79 440.496689,79 C440.880795,79 441.231788,79.1791848 441.417219,79.4682849 C441.847682,80.1455232 444,83.6095718 444,85.3000916 C444,87.3403939 442.430464,89 440.496689,89 C438.569536,89 437,87.3403939 437,85.3000916 Z" id="Fill-389" fill="#2F3331"></path>
                <path d="M427,168 C427,166.748274 428.206396,164.182838 433.172828,162.117491 C438.139261,160.052745 436.804264,157.924811 434.385348,154.069135 C431.966432,150.213459 434.066909,144.283408 435.340667,142.218663 C436.614425,140.153315 442.150374,131.517611 435.977546,127.512691 C429.798594,123.50777 428.334997,117 428.334997,117 L452.65888,117 C452.65888,117 451.195282,123.50777 445.022454,127.512691 C438.843502,131.517611 444.385575,140.153315 445.659333,142.218663 C446.926968,144.283408 449.033568,150.213459 446.608528,154.069135 C444.189612,157.924811 442.854616,160.052745 447.821048,162.117491 C452.78748,164.182838 454,166.748274 454,168 L427,168" id="Fill-390" fill="#FFFFFE"></path>
                <path d="M447.463069,162.143286 C445.26582,161.248897 444.05672,160.252764 443.639365,159.007599 C443.037884,157.192792 444.259259,155.291623 445.799788,152.881148 C447.849735,149.676252 446.186455,144.347773 444.83619,142.206443 L444.744127,142.06211 C438.895026,132.779861 441.380741,128.469991 444.492487,126.487783 C448.74582,123.785094 450.654603,119.804705 451.378836,117.869818 L429.621164,117.869818 C430.339259,119.804705 432.248042,123.785094 436.501376,126.487783 C439.619259,128.469991 442.104974,132.779861 436.249735,142.06211 L436.157672,142.208218 C434.813545,144.347773 433.144127,149.676252 435.200212,152.884698 C436.740741,155.291623 437.955979,157.192792 437.354497,159.007599 C436.94328,160.252764 435.728042,161.248897 433.536931,162.143286 C430.228783,163.49256 428.737354,165.031123 428.191111,166.130182 L452.802751,166.130182 C452.262646,165.031123 450.771217,163.49256 447.463069,162.143286 Z M426,167.065387 C426,165.190244 427.779894,162.461528 432.782011,160.422533 C434.390053,159.765346 435.28,159.117031 435.50709,158.440324 C435.838519,157.443009 434.82582,155.864222 433.543069,153.86131 C430.885503,149.701097 433.039788,143.559858 434.500529,141.239296 L434.592593,141.090822 C438.649524,134.660327 438.931852,130.272967 435.433439,128.047049 C428.988995,123.950721 427.423915,117.413751 427.36254,117.136916 L427.098624,116 L453.895238,116 L453.63746,117.136916 C453.569947,117.413751 452.004868,123.950721 445.566561,128.047049 C442.068148,130.272967 442.350476,134.660327 446.40127,141.090822 L446.499471,141.238113 C447.960212,143.559858 450.114497,149.701097 447.450794,153.86545 C446.168042,155.864222 445.161481,157.443009 445.486772,158.440324 C445.713862,159.117031 446.60381,159.765346 448.217989,160.422533 C453.213968,162.461528 455,165.190244 455,167.065387 L455,168 L426,168 L426,167.065387 Z" id="Fill-391" fill="#2F3331"></path>
                <path d="M105.95898,2 L26.0410198,2 C25.466367,2 25,1.5521418 25,1.00029542 C25,0.447858198 25.466367,0 26.0410198,0 L105.95898,0 C106.533633,0 107,0.447858198 107,1.00029542 C107,1.5521418 106.533633,2 105.95898,2" id="Fill-392" fill="#2F3331"></path>
                <path d="M133.949165,2 L116.050214,2 C115.470486,2 115,1.5521418 115,1.00029542 C115,0.447858198 115.470486,0 116.050214,0 L133.949165,0 C134.529514,0 135,0.447858198 135,1.00029542 C135,1.5521418 134.529514,2 133.949165,2" id="Fill-393" fill="#2F3331"></path>
                <g id="Group-398" transform="translate(0.000000, 119.000000)">
                    <mask id="mask-2" fill="white">
                        <use xlink:href="#path-1"></use>
                    </mask>
                    <g id="Clip-396"></g>
                    <path d="M480.322592,-89.0628272 L0.678610833,-89.0628272 C0.303831667,-89.0628272 0,-89.4701509 0,-89.9685864 C0,-90.4670219 0.303831667,-90.8743455 0.678610833,-90.8743455 L480.322592,-90.8743455 C480.695367,-90.8743455 481,-90.4670219 481,-89.9685864 C481,-89.4701509 480.695367,-89.0628272 480.322592,-89.0628272" id="Fill-397" fill="#2F3331" mask="url(#mask-2)"></path>
                </g>
            </g>
        </g>
    </g>
</svg>