<?xml version="1.0" encoding="UTF-8" standalone="no"?>
<svg width="73px" height="82px" viewBox="0 0 73 82" version="1.1" xmlns="http://www.w3.org/2000/svg" xmlns:xlink="http://www.w3.org/1999/xlink">
    <!-- Generator: Sketch 49.1 (51147) - http://www.bohemiancoding.com/sketch -->
    <title>thinking</title>
    <desc>Created with Sketch.</desc>
    <defs></defs>
    <g id="Page-1" stroke="none" stroke-width="1" fill="none" fill-rule="evenodd">
        <g id="EXIT" transform="translate(-604.000000, -313.000000)" fill-rule="nonzero">
            <g id="thinking" transform="translate(604.000000, 313.000000)">
                <g id="Group" transform="translate(36.500000, 41.000000) scale(-1, 1) rotate(-180.000000) translate(-36.500000, -41.000000) ">
                    <g id="Shape">
                        <g>
                            <path d="M0.131384026,45.5467641 C0.131384026,25.4573635 16.4066302,9.17345029 36.4804322,9.17345029 C56.5564305,9.17345029 72.8294803,25.4573635 72.8294803,45.5467641 C72.82968,65.6339669 56.5566302,81.920078 36.4806318,81.920078 C16.4068299,81.920078 0.131384026,65.6339669 0.131384026,45.5467641" fill="#FFCC4D"></path>
                            <g transform="translate(16.373085, 32.768031)" fill="#664500">
                                <path d="M14.2144338,25.2819347 C14.2144338,22.1423977 12.1789798,19.5986793 9.67070295,19.5986793 C7.16242615,19.5986793 5.1269721,22.1425975 5.1269721,25.2819347 C5.1269721,28.4190741 7.16242615,30.9651901 9.67070295,30.9651901 C12.1789798,30.9651901 14.2144338,28.4192739 14.2144338,25.2819347"></path>
                                <path d="M38.2820706,23.0087524 C38.2820706,19.8692154 36.2488129,17.3254971 33.7383397,17.3254971 C31.2302626,17.3254971 29.1946089,19.8694152 29.1946089,23.0087524 C29.1946089,26.1458918 31.2300629,28.6920078 33.7383397,28.6920078 C36.2488129,28.6920078 38.2820706,26.1458918 38.2820706,23.0087524"></path>
                                <path d="M1.18545131,34.7550926 C0.812863786,34.9528996 0.497182713,35.2619981 0.297111597,35.6598099 C-0.193681619,36.6350585 0.206260941,37.767154 1.18984409,38.1899415 C10.8815126,42.3500828 18.680692,38.2876462 19.0077544,38.112617 C19.9915372,37.5875292 20.3890837,36.412076 19.8960941,35.4891764 C19.4053009,34.5684747 18.2148578,34.2479873 17.2312746,34.7662817 C16.9519338,34.9117398 10.7974508,38.0217057 2.96871991,34.659386 C2.38507932,34.4116277 1.72616247,34.4663743 1.18545131,34.7550926"></path>
                                <path d="M12.70811,4.65825536 C12.3992177,4.94697368 12.1719912,5.32440546 12.0811406,5.76317739 C11.8563102,6.82933723 12.5310011,7.82276803 13.5918572,7.97741715 C24.0241083,9.51871345 30.5214278,3.59209552 30.7963758,3.33974172 C31.6142314,2.58048246 31.6937008,1.34608674 30.9826696,0.577636452 C30.2738348,-0.186218324 29.0402626,-0.19081384 28.2246034,0.564049708 C27.9883917,0.773245614 22.8358616,5.35617446 14.4073167,4.11278752 C13.778151,4.01947856 13.1557741,4.24006335 12.70811,4.65825536"></path>
                                <path d="M25.6302681,26.2300097 C25.2758507,26.4527924 24.9805361,26.7824708 24.80782,27.1938694 C24.3829185,28.1986891 24.860134,29.3036111 25.8686761,29.6582651 C35.8215153,33.1500585 43.3275766,28.5671296 43.6434573,28.3693226 C44.5863074,27.7782992 44.9019885,26.580268 44.3498961,25.6913353 C43.8001997,24.8048002 42.586994,24.5660331 41.6441439,25.1502632 C41.3715919,25.3163012 35.4465317,28.835268 27.4065481,26.0142203 C26.8071335,25.8048246 26.1528091,25.9049269 25.6302681,26.2300097"></path>
                            </g>
                            <path d="M34.8357358,2.05319688 C34.8357358,2.05319688 37.7096116,2.98748538 38.0821991,5.12679825 C38.4751532,7.33424464 36.6645295,7.77980994 36.6645295,7.77980994 C36.6645295,7.77980994 39.029442,8.25274854 39.3271526,10.9079581 C39.6064934,13.4087183 37.3687719,14.0065351 37.3687719,14.0065351 C37.3687719,14.0065351 39.5723496,14.915848 39.6769776,17.5051218 C39.7632358,19.6851949 37.4164934,20.7513548 37.4164934,20.7513548 C37.4164934,20.7513548 48.8618791,23.5248489 50.0365481,23.7975828 C51.2088211,24.0727144 53.0376149,25.1980166 52.4673523,27.6508236 C51.9016822,30.1060283 49.7320487,30.1923441 48.6098933,29.930999 C47.4875383,29.6672563 33.2886789,26.3686745 28.3907303,25.2273879 C27.8681893,25.1069055 25.419215,24.5408577 25.1215044,24.4681287 C23.894721,24.1794103 23.3380361,24.7204825 24.2014168,25.6319932 C25.3577161,26.8504045 26.0939059,28.1986891 26.3528802,30.4355068 C26.6232358,32.7906092 25.8257467,35.6959747 25.3690974,36.8212768 C24.519494,38.9150341 23.0858507,40.5700195 21.429773,41.1382651 C18.8444229,42.0248002 17.0088403,40.408577 17.9265317,37.5895273 C19.2986761,33.3724415 18.4013512,29.9170127 16.0340427,27.8300487 C10.4703884,22.9264327 7.88044584,19.4300439 9.60481127,11.978114 C11.483523,3.85084308 19.5486652,-1.38005361 27.6703146,0.502309942 C28.0998085,0.598216374 34.8357358,2.05319688 34.8357358,2.05319688" fill="#F4900C"></path>
                        </g>
                    </g>
                </g>
            </g>
        </g>
    </g>
</svg>